G04 Layer_Color=16711935*
%FSLAX43Y43*%
%MOMM*%
G71*
G01*
G75*
%ADD13C,1.270*%
%ADD22C,1.703*%
%ADD23R,1.703X1.703*%
%ADD24C,3.203*%
%ADD25R,1.703X1.703*%
%ADD26C,1.727*%
%ADD27C,1.473*%
D13*
X54483Y49403D02*
Y116840D01*
Y49403D02*
X130302D01*
Y116840D01*
X54483D02*
X130302D01*
D22*
X109855Y71374D02*
D03*
Y68834D02*
D03*
Y66294D02*
D03*
X68961Y88519D02*
D03*
X71501D02*
D03*
X74041D02*
D03*
X76581D02*
D03*
X79121D02*
D03*
X81661D02*
D03*
X84201D02*
D03*
X86741D02*
D03*
X89281D02*
D03*
X91821D02*
D03*
X94361D02*
D03*
X96901D02*
D03*
X99441D02*
D03*
X101981D02*
D03*
X104521D02*
D03*
X68961Y103759D02*
D03*
X71501D02*
D03*
X74041D02*
D03*
X76581D02*
D03*
X79121D02*
D03*
X81661D02*
D03*
X84201D02*
D03*
X86741D02*
D03*
X89281D02*
D03*
X96901D02*
D03*
X99441D02*
D03*
X101981D02*
D03*
X104521D02*
D03*
X104140Y83439D02*
D03*
Y80899D02*
D03*
Y78359D02*
D03*
X79883Y51943D02*
D03*
X77343D02*
D03*
X104140Y71374D02*
D03*
Y68834D02*
D03*
Y66294D02*
D03*
X117475Y51943D02*
D03*
X114935D02*
D03*
X108077D02*
D03*
X105537D02*
D03*
X98679D02*
D03*
X96139D02*
D03*
X89281D02*
D03*
X86741D02*
D03*
X70485D02*
D03*
X67945D02*
D03*
X124079D02*
D03*
X126619D02*
D03*
X73660Y83439D02*
D03*
Y80899D02*
D03*
Y78359D02*
D03*
Y71374D02*
D03*
Y68834D02*
D03*
Y66294D02*
D03*
X60960Y69088D02*
D03*
X123571Y71374D02*
D03*
X75438Y110490D02*
D03*
X58928Y89154D02*
D03*
Y86614D02*
D03*
Y81026D02*
D03*
Y78486D02*
D03*
X65913Y59055D02*
D03*
X68453Y56515D02*
D03*
Y59055D02*
D03*
X70993Y56515D02*
D03*
Y59055D02*
D03*
X73533Y56515D02*
D03*
Y59055D02*
D03*
X76073Y56515D02*
D03*
Y59055D02*
D03*
X78613Y56515D02*
D03*
Y59055D02*
D03*
X81153Y56515D02*
D03*
Y59055D02*
D03*
X83693Y56515D02*
D03*
Y59055D02*
D03*
X86233Y56515D02*
D03*
Y59055D02*
D03*
X88773Y56515D02*
D03*
Y59055D02*
D03*
X91313Y56515D02*
D03*
Y59055D02*
D03*
X93853Y56515D02*
D03*
Y59055D02*
D03*
X96393Y56515D02*
D03*
Y59055D02*
D03*
X98933Y56515D02*
D03*
Y59055D02*
D03*
X101473Y56515D02*
D03*
Y59055D02*
D03*
X104013Y56515D02*
D03*
Y59055D02*
D03*
X106553Y56515D02*
D03*
Y59055D02*
D03*
X109093Y56515D02*
D03*
Y59055D02*
D03*
X111633Y56515D02*
D03*
Y59055D02*
D03*
X114173Y56515D02*
D03*
Y59055D02*
D03*
X125095Y98171D02*
D03*
Y95631D02*
D03*
Y93091D02*
D03*
Y90551D02*
D03*
Y88011D02*
D03*
Y85471D02*
D03*
Y82931D02*
D03*
X61976Y51943D02*
D03*
X59436D02*
D03*
D23*
X109855Y63754D02*
D03*
X104140Y75819D02*
D03*
Y63754D02*
D03*
X73660Y75819D02*
D03*
Y63754D02*
D03*
X60960Y71628D02*
D03*
X123571Y68834D02*
D03*
X58928Y91694D02*
D03*
Y83566D02*
D03*
X125095Y100711D02*
D03*
D24*
X113161Y84201D02*
D03*
Y99441D02*
D03*
X61051Y106785D02*
D03*
X119041D02*
D03*
X61051Y57785D02*
D03*
X119041D02*
D03*
D25*
X74803Y51943D02*
D03*
X112395D02*
D03*
X102997D02*
D03*
X93599D02*
D03*
X84201D02*
D03*
X65405D02*
D03*
X121539D02*
D03*
X77978Y110490D02*
D03*
X65913Y56515D02*
D03*
X56896Y51943D02*
D03*
D26*
X84328Y113030D02*
D03*
X86868D02*
D03*
X89408D02*
D03*
X91948D02*
D03*
X94488D02*
D03*
X97028D02*
D03*
X99568D02*
D03*
X102108D02*
D03*
X84328Y110490D02*
D03*
X86868D02*
D03*
X89408D02*
D03*
X91948D02*
D03*
X94488D02*
D03*
X97028D02*
D03*
X99568D02*
D03*
X102108D02*
D03*
X84328Y107950D02*
D03*
X86868D02*
D03*
X89408D02*
D03*
X91948D02*
D03*
X94488D02*
D03*
X97028D02*
D03*
X99568D02*
D03*
X102108D02*
D03*
D27*
X68453Y80899D02*
D03*
X100711Y85598D02*
D03*
X92075Y95631D02*
D03*
X89789Y93853D02*
D03*
M02*
