G04 Layer_Color=128*
%FSLAX43Y43*%
%MOMM*%
G71*
G01*
G75*
%ADD13C,1.270*%
%ADD32C,0.127*%
D13*
X54483Y49403D02*
Y116840D01*
Y49403D02*
X130302D01*
Y116840D01*
X54483D02*
X130302D01*
D32*
X109405Y71374D02*
X110305D01*
X109855Y70924D02*
Y71824D01*
X109405Y68834D02*
X110305D01*
X109855Y68384D02*
Y69284D01*
X109405Y66294D02*
X110305D01*
X109855Y65844D02*
Y66744D01*
X109405Y63754D02*
X110305D01*
X109855Y63304D02*
Y64204D01*
X68511Y88519D02*
X69411D01*
X68961Y88069D02*
Y88969D01*
X71051Y88519D02*
X71951D01*
X71501Y88069D02*
Y88969D01*
X73591Y88519D02*
X74491D01*
X74041Y88069D02*
Y88969D01*
X76131Y88519D02*
X77031D01*
X76581Y88069D02*
Y88969D01*
X78671Y88519D02*
X79571D01*
X79121Y88069D02*
Y88969D01*
X81211Y88519D02*
X82111D01*
X81661Y88069D02*
Y88969D01*
X83751Y88519D02*
X84651D01*
X84201Y88069D02*
Y88969D01*
X86291Y88519D02*
X87191D01*
X86741Y88069D02*
Y88969D01*
X88831Y88519D02*
X89731D01*
X89281Y88069D02*
Y88969D01*
X91371Y88519D02*
X92271D01*
X91821Y88069D02*
Y88969D01*
X93911Y88519D02*
X94811D01*
X94361Y88069D02*
Y88969D01*
X96451Y88519D02*
X97351D01*
X96901Y88069D02*
Y88969D01*
X98991Y88519D02*
X99891D01*
X99441Y88069D02*
Y88969D01*
X101531Y88519D02*
X102431D01*
X101981Y88069D02*
Y88969D01*
X104071Y88519D02*
X104971D01*
X104521Y88069D02*
Y88969D01*
X68511Y103759D02*
X69411D01*
X68961Y103309D02*
Y104209D01*
X71051Y103759D02*
X71951D01*
X71501Y103309D02*
Y104209D01*
X73591Y103759D02*
X74491D01*
X74041Y103309D02*
Y104209D01*
X76131Y103759D02*
X77031D01*
X76581Y103309D02*
Y104209D01*
X78671Y103759D02*
X79571D01*
X79121Y103309D02*
Y104209D01*
X81211Y103759D02*
X82111D01*
X81661Y103309D02*
Y104209D01*
X83751Y103759D02*
X84651D01*
X84201Y103309D02*
Y104209D01*
X86291Y103759D02*
X87191D01*
X86741Y103309D02*
Y104209D01*
X88831Y103759D02*
X89731D01*
X89281Y103309D02*
Y104209D01*
X96451Y103759D02*
X97351D01*
X96901Y103309D02*
Y104209D01*
X98991Y103759D02*
X99891D01*
X99441Y103309D02*
Y104209D01*
X101531Y103759D02*
X102431D01*
X101981Y103309D02*
Y104209D01*
X104071Y103759D02*
X104971D01*
X104521Y103309D02*
Y104209D01*
X103690Y83439D02*
X104590D01*
X104140Y82989D02*
Y83889D01*
X103690Y80899D02*
X104590D01*
X104140Y80449D02*
Y81349D01*
X103690Y78359D02*
X104590D01*
X104140Y77909D02*
Y78809D01*
X103690Y75819D02*
X104590D01*
X104140Y75369D02*
Y76269D01*
X111661Y84201D02*
X114661D01*
X113161Y82701D02*
Y85701D01*
X111661Y99441D02*
X114661D01*
X113161Y97941D02*
Y100941D01*
X79433Y51943D02*
X80333D01*
X79883Y51493D02*
Y52393D01*
X74353Y51943D02*
X75253D01*
X74803Y51493D02*
Y52393D01*
X76893Y51943D02*
X77793D01*
X77343Y51493D02*
Y52393D01*
X103690Y71374D02*
X104590D01*
X104140Y70924D02*
Y71824D01*
X103690Y68834D02*
X104590D01*
X104140Y68384D02*
Y69284D01*
X103690Y66294D02*
X104590D01*
X104140Y65844D02*
Y66744D01*
X103690Y63754D02*
X104590D01*
X104140Y63304D02*
Y64204D01*
X59551Y106785D02*
X62551D01*
X61051Y105285D02*
Y108285D01*
X117541Y106785D02*
X120541D01*
X119041Y105285D02*
Y108285D01*
X59551Y57785D02*
X62551D01*
X61051Y56285D02*
Y59285D01*
X117541Y57785D02*
X120541D01*
X119041Y56285D02*
Y59285D01*
X117025Y51943D02*
X117925D01*
X117475Y51493D02*
Y52393D01*
X111945Y51943D02*
X112845D01*
X112395Y51493D02*
Y52393D01*
X114485Y51943D02*
X115385D01*
X114935Y51493D02*
Y52393D01*
X107627Y51943D02*
X108527D01*
X108077Y51493D02*
Y52393D01*
X102547Y51943D02*
X103447D01*
X102997Y51493D02*
Y52393D01*
X105087Y51943D02*
X105987D01*
X105537Y51493D02*
Y52393D01*
X98229Y51943D02*
X99129D01*
X98679Y51493D02*
Y52393D01*
X93149Y51943D02*
X94049D01*
X93599Y51493D02*
Y52393D01*
X95689Y51943D02*
X96589D01*
X96139Y51493D02*
Y52393D01*
X88831Y51943D02*
X89731D01*
X89281Y51493D02*
Y52393D01*
X83751Y51943D02*
X84651D01*
X84201Y51493D02*
Y52393D01*
X86291Y51943D02*
X87191D01*
X86741Y51493D02*
Y52393D01*
X70035Y51943D02*
X70935D01*
X70485Y51493D02*
Y52393D01*
X64955Y51943D02*
X65855D01*
X65405Y51493D02*
Y52393D01*
X67495Y51943D02*
X68395D01*
X67945Y51493D02*
Y52393D01*
X121089Y51943D02*
X121989D01*
X121539Y51493D02*
Y52393D01*
X123629Y51943D02*
X124529D01*
X124079Y51493D02*
Y52393D01*
X126169Y51943D02*
X127069D01*
X126619Y51493D02*
Y52393D01*
X73210Y83439D02*
X74110D01*
X73660Y82989D02*
Y83889D01*
X73210Y80899D02*
X74110D01*
X73660Y80449D02*
Y81349D01*
X73210Y78359D02*
X74110D01*
X73660Y77909D02*
Y78809D01*
X73210Y75819D02*
X74110D01*
X73660Y75369D02*
Y76269D01*
X73210Y71374D02*
X74110D01*
X73660Y70924D02*
Y71824D01*
X73210Y68834D02*
X74110D01*
X73660Y68384D02*
Y69284D01*
X73210Y66294D02*
X74110D01*
X73660Y65844D02*
Y66744D01*
X73210Y63754D02*
X74110D01*
X73660Y63304D02*
Y64204D01*
X60510Y71628D02*
X61410D01*
X60960Y71178D02*
Y72078D01*
X60510Y69088D02*
X61410D01*
X60960Y68638D02*
Y69538D01*
X123121Y68834D02*
X124021D01*
X123571Y68384D02*
Y69284D01*
X123121Y71374D02*
X124021D01*
X123571Y70924D02*
Y71824D01*
X77528Y110490D02*
X78428D01*
X77978Y110040D02*
Y110940D01*
X74988Y110490D02*
X75888D01*
X75438Y110040D02*
Y110940D01*
X58478Y91694D02*
X59378D01*
X58928Y91244D02*
Y92144D01*
X58478Y89154D02*
X59378D01*
X58928Y88704D02*
Y89604D01*
X58478Y86614D02*
X59378D01*
X58928Y86164D02*
Y87064D01*
X58478Y83566D02*
X59378D01*
X58928Y83116D02*
Y84016D01*
X58478Y81026D02*
X59378D01*
X58928Y80576D02*
Y81476D01*
X58478Y78486D02*
X59378D01*
X58928Y78036D02*
Y78936D01*
X65463Y56515D02*
X66363D01*
X65913Y56065D02*
Y56965D01*
X65463Y59055D02*
X66363D01*
X65913Y58605D02*
Y59505D01*
X68003Y56515D02*
X68903D01*
X68453Y56065D02*
Y56965D01*
X68003Y59055D02*
X68903D01*
X68453Y58605D02*
Y59505D01*
X70543Y56515D02*
X71443D01*
X70993Y56065D02*
Y56965D01*
X70543Y59055D02*
X71443D01*
X70993Y58605D02*
Y59505D01*
X73083Y56515D02*
X73983D01*
X73533Y56065D02*
Y56965D01*
X73083Y59055D02*
X73983D01*
X73533Y58605D02*
Y59505D01*
X75623Y56515D02*
X76523D01*
X76073Y56065D02*
Y56965D01*
X75623Y59055D02*
X76523D01*
X76073Y58605D02*
Y59505D01*
X78163Y56515D02*
X79063D01*
X78613Y56065D02*
Y56965D01*
X78163Y59055D02*
X79063D01*
X78613Y58605D02*
Y59505D01*
X80703Y56515D02*
X81603D01*
X81153Y56065D02*
Y56965D01*
X80703Y59055D02*
X81603D01*
X81153Y58605D02*
Y59505D01*
X83243Y56515D02*
X84143D01*
X83693Y56065D02*
Y56965D01*
X83243Y59055D02*
X84143D01*
X83693Y58605D02*
Y59505D01*
X85783Y56515D02*
X86683D01*
X86233Y56065D02*
Y56965D01*
X85783Y59055D02*
X86683D01*
X86233Y58605D02*
Y59505D01*
X88323Y56515D02*
X89223D01*
X88773Y56065D02*
Y56965D01*
X88323Y59055D02*
X89223D01*
X88773Y58605D02*
Y59505D01*
X90863Y56515D02*
X91763D01*
X91313Y56065D02*
Y56965D01*
X90863Y59055D02*
X91763D01*
X91313Y58605D02*
Y59505D01*
X93403Y56515D02*
X94303D01*
X93853Y56065D02*
Y56965D01*
X93403Y59055D02*
X94303D01*
X93853Y58605D02*
Y59505D01*
X95943Y56515D02*
X96843D01*
X96393Y56065D02*
Y56965D01*
X95943Y59055D02*
X96843D01*
X96393Y58605D02*
Y59505D01*
X98483Y56515D02*
X99383D01*
X98933Y56065D02*
Y56965D01*
X98483Y59055D02*
X99383D01*
X98933Y58605D02*
Y59505D01*
X101023Y56515D02*
X101923D01*
X101473Y56065D02*
Y56965D01*
X101023Y59055D02*
X101923D01*
X101473Y58605D02*
Y59505D01*
X103563Y56515D02*
X104463D01*
X104013Y56065D02*
Y56965D01*
X103563Y59055D02*
X104463D01*
X104013Y58605D02*
Y59505D01*
X106103Y56515D02*
X107003D01*
X106553Y56065D02*
Y56965D01*
X106103Y59055D02*
X107003D01*
X106553Y58605D02*
Y59505D01*
X108643Y56515D02*
X109543D01*
X109093Y56065D02*
Y56965D01*
X108643Y59055D02*
X109543D01*
X109093Y58605D02*
Y59505D01*
X111183Y56515D02*
X112083D01*
X111633Y56065D02*
Y56965D01*
X111183Y59055D02*
X112083D01*
X111633Y58605D02*
Y59505D01*
X113723Y56515D02*
X114623D01*
X114173Y56065D02*
Y56965D01*
X113723Y59055D02*
X114623D01*
X114173Y58605D02*
Y59505D01*
X124645Y100711D02*
X125545D01*
X125095Y100261D02*
Y101161D01*
X124645Y98171D02*
X125545D01*
X125095Y97721D02*
Y98621D01*
X124645Y95631D02*
X125545D01*
X125095Y95181D02*
Y96081D01*
X124645Y93091D02*
X125545D01*
X125095Y92641D02*
Y93541D01*
X124645Y90551D02*
X125545D01*
X125095Y90101D02*
Y91001D01*
X124645Y88011D02*
X125545D01*
X125095Y87561D02*
Y88461D01*
X124645Y85471D02*
X125545D01*
X125095Y85021D02*
Y85921D01*
X124645Y82931D02*
X125545D01*
X125095Y82481D02*
Y83381D01*
X61526Y51943D02*
X62426D01*
X61976Y51493D02*
Y52393D01*
X58986Y51943D02*
X59886D01*
X59436Y51493D02*
Y52393D01*
X56446Y51943D02*
X57346D01*
X56896Y51493D02*
Y52393D01*
X83947Y113030D02*
X84709D01*
X84328Y112649D02*
Y113411D01*
X86487Y113030D02*
X87249D01*
X86868Y112649D02*
Y113411D01*
X89027Y113030D02*
X89789D01*
X89408Y112649D02*
Y113411D01*
X91567Y113030D02*
X92329D01*
X91948Y112649D02*
Y113411D01*
X94107Y113030D02*
X94869D01*
X94488Y112649D02*
Y113411D01*
X96647Y113030D02*
X97409D01*
X97028Y112649D02*
Y113411D01*
X99187Y113030D02*
X99949D01*
X99568Y112649D02*
Y113411D01*
X101727Y113030D02*
X102489D01*
X102108Y112649D02*
Y113411D01*
X83947Y110490D02*
X84709D01*
X84328Y110109D02*
Y110871D01*
X86487Y110490D02*
X87249D01*
X86868Y110109D02*
Y110871D01*
X89027Y110490D02*
X89789D01*
X89408Y110109D02*
Y110871D01*
X91567Y110490D02*
X92329D01*
X91948Y110109D02*
Y110871D01*
X94107Y110490D02*
X94869D01*
X94488Y110109D02*
Y110871D01*
X96647Y110490D02*
X97409D01*
X97028Y110109D02*
Y110871D01*
X99187Y110490D02*
X99949D01*
X99568Y110109D02*
Y110871D01*
X101727Y110490D02*
X102489D01*
X102108Y110109D02*
Y110871D01*
X83947Y107950D02*
X84709D01*
X84328Y107569D02*
Y108331D01*
X86487Y107950D02*
X87249D01*
X86868Y107569D02*
Y108331D01*
X89027Y107950D02*
X89789D01*
X89408Y107569D02*
Y108331D01*
X91567Y107950D02*
X92329D01*
X91948Y107569D02*
Y108331D01*
X94107Y107950D02*
X94869D01*
X94488Y107569D02*
Y108331D01*
X96647Y107950D02*
X97409D01*
X97028Y107569D02*
Y108331D01*
X99187Y107950D02*
X99949D01*
X99568Y107569D02*
Y108331D01*
X101727Y107950D02*
X102489D01*
X102108Y107569D02*
Y108331D01*
X68097Y80899D02*
X68809D01*
X68453Y80543D02*
Y81255D01*
X100355Y85598D02*
X101067D01*
X100711Y85242D02*
Y85954D01*
X91719Y95631D02*
X92431D01*
X92075Y95275D02*
Y95987D01*
X89433Y93853D02*
X90145D01*
X89789Y93497D02*
Y94209D01*
M02*
