G04 Layer_Color=2752767*
%FSLAX43Y43*%
%MOMM*%
G71*
G01*
G75*
%ADD13C,1.270*%
%ADD32C,0.127*%
%ADD33C,0.169*%
D13*
X54483Y49403D02*
Y116840D01*
Y49403D02*
X130302D01*
Y116840D01*
X54483D02*
X130302D01*
D32*
X109347Y70866D02*
Y71882D01*
X110363D01*
Y70866D01*
X109347D01*
Y68326D02*
Y69342D01*
X110363D01*
Y68326D01*
X109347D01*
Y65786D02*
Y66802D01*
X110363D01*
Y65786D01*
X109347D01*
Y63246D02*
Y64262D01*
X110363D01*
Y63246D01*
X109347D01*
X68453Y88011D02*
Y89027D01*
X69469D01*
Y88011D01*
X68453D01*
X70993D02*
Y89027D01*
X72009D01*
Y88011D01*
X70993D01*
X73533D02*
Y89027D01*
X74549D01*
Y88011D01*
X73533D01*
X76073D02*
Y89027D01*
X77089D01*
Y88011D01*
X76073D01*
X78613D02*
Y89027D01*
X79629D01*
Y88011D01*
X78613D01*
X81153D02*
Y89027D01*
X82169D01*
Y88011D01*
X81153D01*
X83693D02*
Y89027D01*
X84709D01*
Y88011D01*
X83693D01*
X86233D02*
Y89027D01*
X87249D01*
Y88011D01*
X86233D01*
X88773D02*
Y89027D01*
X89789D01*
Y88011D01*
X88773D01*
X91313D02*
Y89027D01*
X92329D01*
Y88011D01*
X91313D01*
X93853D02*
Y89027D01*
X94869D01*
Y88011D01*
X93853D01*
X96393D02*
Y89027D01*
X97409D01*
Y88011D01*
X96393D01*
X98933D02*
Y89027D01*
X99949D01*
Y88011D01*
X98933D01*
X101473D02*
Y89027D01*
X102489D01*
Y88011D01*
X101473D01*
X104013D02*
Y89027D01*
X105029D01*
Y88011D01*
X104013D01*
X68453Y103251D02*
Y104267D01*
X69469D01*
Y103251D01*
X68453D01*
X70993D02*
Y104267D01*
X72009D01*
Y103251D01*
X70993D01*
X73533D02*
Y104267D01*
X74549D01*
Y103251D01*
X73533D01*
X76073D02*
Y104267D01*
X77089D01*
Y103251D01*
X76073D01*
X78613D02*
Y104267D01*
X79629D01*
Y103251D01*
X78613D01*
X81153D02*
Y104267D01*
X82169D01*
Y103251D01*
X81153D01*
X83693D02*
Y104267D01*
X84709D01*
Y103251D01*
X83693D01*
X86233D02*
Y104267D01*
X87249D01*
Y103251D01*
X86233D01*
X88773D02*
Y104267D01*
X89789D01*
Y103251D01*
X88773D01*
X96393D02*
Y104267D01*
X97409D01*
Y103251D01*
X96393D01*
X98933D02*
Y104267D01*
X99949D01*
Y103251D01*
X98933D01*
X101473D02*
Y104267D01*
X102489D01*
Y103251D01*
X101473D01*
X104013D02*
Y104267D01*
X105029D01*
Y103251D01*
X104013D01*
X103632Y82931D02*
Y83947D01*
X104648D01*
Y82931D01*
X103632D01*
Y80391D02*
Y81407D01*
X104648D01*
Y80391D01*
X103632D01*
Y77851D02*
Y78867D01*
X104648D01*
Y77851D01*
X103632D01*
Y75311D02*
Y76327D01*
X104648D01*
Y75311D01*
X103632D01*
X79375Y51435D02*
Y52451D01*
X80391D01*
Y51435D01*
X79375D01*
X74295D02*
Y52451D01*
X75311D01*
Y51435D01*
X74295D01*
X76835D02*
Y52451D01*
X77851D01*
Y51435D01*
X76835D01*
X103632Y70866D02*
Y71882D01*
X104648D01*
Y70866D01*
X103632D01*
Y68326D02*
Y69342D01*
X104648D01*
Y68326D01*
X103632D01*
Y65786D02*
Y66802D01*
X104648D01*
Y65786D01*
X103632D01*
Y63246D02*
Y64262D01*
X104648D01*
Y63246D01*
X103632D01*
X116967Y51435D02*
Y52451D01*
X117983D01*
Y51435D01*
X116967D01*
X111887D02*
Y52451D01*
X112903D01*
Y51435D01*
X111887D01*
X114427D02*
Y52451D01*
X115443D01*
Y51435D01*
X114427D01*
X107569D02*
Y52451D01*
X108585D01*
Y51435D01*
X107569D01*
X102489D02*
Y52451D01*
X103505D01*
Y51435D01*
X102489D01*
X105029D02*
Y52451D01*
X106045D01*
Y51435D01*
X105029D01*
X98171D02*
Y52451D01*
X99187D01*
Y51435D01*
X98171D01*
X93091D02*
Y52451D01*
X94107D01*
Y51435D01*
X93091D01*
X95631D02*
Y52451D01*
X96647D01*
Y51435D01*
X95631D01*
X88773D02*
Y52451D01*
X89789D01*
Y51435D01*
X88773D01*
X83693D02*
Y52451D01*
X84709D01*
Y51435D01*
X83693D01*
X86233D02*
Y52451D01*
X87249D01*
Y51435D01*
X86233D01*
X69977D02*
Y52451D01*
X70993D01*
Y51435D01*
X69977D01*
X64897D02*
Y52451D01*
X65913D01*
Y51435D01*
X64897D01*
X67437D02*
Y52451D01*
X68453D01*
Y51435D01*
X67437D01*
X121031D02*
Y52451D01*
X122047D01*
Y51435D01*
X121031D01*
X123571D02*
Y52451D01*
X124587D01*
Y51435D01*
X123571D01*
X126111D02*
Y52451D01*
X127127D01*
Y51435D01*
X126111D01*
X73152Y82931D02*
Y83947D01*
X74168D01*
Y82931D01*
X73152D01*
Y80391D02*
Y81407D01*
X74168D01*
Y80391D01*
X73152D01*
Y77851D02*
Y78867D01*
X74168D01*
Y77851D01*
X73152D01*
Y75311D02*
Y76327D01*
X74168D01*
Y75311D01*
X73152D01*
Y70866D02*
Y71882D01*
X74168D01*
Y70866D01*
X73152D01*
Y68326D02*
Y69342D01*
X74168D01*
Y68326D01*
X73152D01*
Y65786D02*
Y66802D01*
X74168D01*
Y65786D01*
X73152D01*
Y63246D02*
Y64262D01*
X74168D01*
Y63246D01*
X73152D01*
X60452Y71120D02*
Y72136D01*
X61468D01*
Y71120D01*
X60452D01*
Y68580D02*
Y69596D01*
X61468D01*
Y68580D01*
X60452D01*
X123063Y68326D02*
Y69342D01*
X124079D01*
Y68326D01*
X123063D01*
Y70866D02*
Y71882D01*
X124079D01*
Y70866D01*
X123063D01*
X77470Y109982D02*
Y110998D01*
X78486D01*
Y109982D01*
X77470D01*
X74930D02*
Y110998D01*
X75946D01*
Y109982D01*
X74930D01*
X58420Y91186D02*
Y92202D01*
X59436D01*
Y91186D01*
X58420D01*
Y88646D02*
Y89662D01*
X59436D01*
Y88646D01*
X58420D01*
Y86106D02*
Y87122D01*
X59436D01*
Y86106D01*
X58420D01*
Y83058D02*
Y84074D01*
X59436D01*
Y83058D01*
X58420D01*
Y80518D02*
Y81534D01*
X59436D01*
Y80518D01*
X58420D01*
Y77978D02*
Y78994D01*
X59436D01*
Y77978D01*
X58420D01*
X65405Y56007D02*
Y57023D01*
X66421D01*
Y56007D01*
X65405D01*
Y58547D02*
Y59563D01*
X66421D01*
Y58547D01*
X65405D01*
X67945Y56007D02*
Y57023D01*
X68961D01*
Y56007D01*
X67945D01*
Y58547D02*
Y59563D01*
X68961D01*
Y58547D01*
X67945D01*
X70485Y56007D02*
Y57023D01*
X71501D01*
Y56007D01*
X70485D01*
Y58547D02*
Y59563D01*
X71501D01*
Y58547D01*
X70485D01*
X73025Y56007D02*
Y57023D01*
X74041D01*
Y56007D01*
X73025D01*
Y58547D02*
Y59563D01*
X74041D01*
Y58547D01*
X73025D01*
X75565Y56007D02*
Y57023D01*
X76581D01*
Y56007D01*
X75565D01*
Y58547D02*
Y59563D01*
X76581D01*
Y58547D01*
X75565D01*
X78105Y56007D02*
Y57023D01*
X79121D01*
Y56007D01*
X78105D01*
Y58547D02*
Y59563D01*
X79121D01*
Y58547D01*
X78105D01*
X80645Y56007D02*
Y57023D01*
X81661D01*
Y56007D01*
X80645D01*
Y58547D02*
Y59563D01*
X81661D01*
Y58547D01*
X80645D01*
X83185Y56007D02*
Y57023D01*
X84201D01*
Y56007D01*
X83185D01*
Y58547D02*
Y59563D01*
X84201D01*
Y58547D01*
X83185D01*
X85725Y56007D02*
Y57023D01*
X86741D01*
Y56007D01*
X85725D01*
Y58547D02*
Y59563D01*
X86741D01*
Y58547D01*
X85725D01*
X88265Y56007D02*
Y57023D01*
X89281D01*
Y56007D01*
X88265D01*
Y58547D02*
Y59563D01*
X89281D01*
Y58547D01*
X88265D01*
X90805Y56007D02*
Y57023D01*
X91821D01*
Y56007D01*
X90805D01*
Y58547D02*
Y59563D01*
X91821D01*
Y58547D01*
X90805D01*
X93345Y56007D02*
Y57023D01*
X94361D01*
Y56007D01*
X93345D01*
Y58547D02*
Y59563D01*
X94361D01*
Y58547D01*
X93345D01*
X95885Y56007D02*
Y57023D01*
X96901D01*
Y56007D01*
X95885D01*
Y58547D02*
Y59563D01*
X96901D01*
Y58547D01*
X95885D01*
X98425Y56007D02*
Y57023D01*
X99441D01*
Y56007D01*
X98425D01*
Y58547D02*
Y59563D01*
X99441D01*
Y58547D01*
X98425D01*
X100965Y56007D02*
Y57023D01*
X101981D01*
Y56007D01*
X100965D01*
Y58547D02*
Y59563D01*
X101981D01*
Y58547D01*
X100965D01*
X103505Y56007D02*
Y57023D01*
X104521D01*
Y56007D01*
X103505D01*
Y58547D02*
Y59563D01*
X104521D01*
Y58547D01*
X103505D01*
X106045Y56007D02*
Y57023D01*
X107061D01*
Y56007D01*
X106045D01*
Y58547D02*
Y59563D01*
X107061D01*
Y58547D01*
X106045D01*
X108585Y56007D02*
Y57023D01*
X109601D01*
Y56007D01*
X108585D01*
Y58547D02*
Y59563D01*
X109601D01*
Y58547D01*
X108585D01*
X111125Y56007D02*
Y57023D01*
X112141D01*
Y56007D01*
X111125D01*
Y58547D02*
Y59563D01*
X112141D01*
Y58547D01*
X111125D01*
X113665Y56007D02*
Y57023D01*
X114681D01*
Y56007D01*
X113665D01*
Y58547D02*
Y59563D01*
X114681D01*
Y58547D01*
X113665D01*
X124587Y100203D02*
Y101219D01*
X125603D01*
Y100203D01*
X124587D01*
Y97663D02*
Y98679D01*
X125603D01*
Y97663D01*
X124587D01*
Y95123D02*
Y96139D01*
X125603D01*
Y95123D01*
X124587D01*
Y92583D02*
Y93599D01*
X125603D01*
Y92583D01*
X124587D01*
Y90043D02*
Y91059D01*
X125603D01*
Y90043D01*
X124587D01*
Y87503D02*
Y88519D01*
X125603D01*
Y87503D01*
X124587D01*
Y84963D02*
Y85979D01*
X125603D01*
Y84963D01*
X124587D01*
Y82423D02*
Y83439D01*
X125603D01*
Y82423D01*
X124587D01*
X61468Y51435D02*
Y52451D01*
X62484D01*
Y51435D01*
X61468D01*
X58928D02*
Y52451D01*
X59944D01*
Y51435D01*
X58928D01*
X56388D02*
Y52451D01*
X57404D01*
Y51435D01*
X56388D01*
X84328Y112522D02*
X83820Y113538D01*
X84836D01*
X84328Y112522D01*
X86868D02*
X86360Y113538D01*
X87376D01*
X86868Y112522D01*
X89408D02*
X88900Y113538D01*
X89916D01*
X89408Y112522D01*
X91948D02*
X91440Y113538D01*
X92456D01*
X91948Y112522D01*
X94488D02*
X93980Y113538D01*
X94996D01*
X94488Y112522D01*
X97028D02*
X96520Y113538D01*
X97536D01*
X97028Y112522D01*
X99568D02*
X99060Y113538D01*
X100076D01*
X99568Y112522D01*
X102108D02*
X101600Y113538D01*
X102616D01*
X102108Y112522D01*
X84328Y109982D02*
X83820Y110998D01*
X84836D01*
X84328Y109982D01*
X86868D02*
X86360Y110998D01*
X87376D01*
X86868Y109982D01*
X89408D02*
X88900Y110998D01*
X89916D01*
X89408Y109982D01*
X91948D02*
X91440Y110998D01*
X92456D01*
X91948Y109982D01*
X94488D02*
X93980Y110998D01*
X94996D01*
X94488Y109982D01*
X97028D02*
X96520Y110998D01*
X97536D01*
X97028Y109982D01*
X99568D02*
X99060Y110998D01*
X100076D01*
X99568Y109982D01*
X102108D02*
X101600Y110998D01*
X102616D01*
X102108Y109982D01*
X84328Y107442D02*
X83820Y108458D01*
X84836D01*
X84328Y107442D01*
X86868D02*
X86360Y108458D01*
X87376D01*
X86868Y107442D01*
X89408D02*
X88900Y108458D01*
X89916D01*
X89408Y107442D01*
X91948D02*
X91440Y108458D01*
X92456D01*
X91948Y107442D01*
X94488D02*
X93980Y108458D01*
X94996D01*
X94488Y107442D01*
X97028D02*
X96520Y108458D01*
X97536D01*
X97028Y107442D01*
X99568D02*
X99060Y108458D01*
X100076D01*
X99568Y107442D01*
X102108D02*
X101600Y108458D01*
X102616D01*
X102108Y107442D01*
X68453Y80391D02*
X68707Y80645D01*
X68961D01*
X68707Y80899D01*
X68961Y81153D01*
X68707D01*
X68453Y81407D01*
X68199Y81153D01*
X67945D01*
X68199Y80899D01*
X67945Y80645D01*
X68199D01*
X68453Y80391D01*
X100711Y85090D02*
X100965Y85344D01*
X101219D01*
X100965Y85598D01*
X101219Y85852D01*
X100965D01*
X100711Y86106D01*
X100457Y85852D01*
X100203D01*
X100457Y85598D01*
X100203Y85344D01*
X100457D01*
X100711Y85090D01*
X92075Y95123D02*
X92329Y95377D01*
X92583D01*
X92329Y95631D01*
X92583Y95885D01*
X92329D01*
X92075Y96139D01*
X91821Y95885D01*
X91567D01*
X91821Y95631D01*
X91567Y95377D01*
X91821D01*
X92075Y95123D01*
X89789Y93345D02*
X90043Y93599D01*
X90297D01*
X90043Y93853D01*
X90297Y94107D01*
X90043D01*
X89789Y94361D01*
X89535Y94107D01*
X89281D01*
X89535Y93853D01*
X89281Y93599D01*
X89535D01*
X89789Y93345D01*
D33*
X113669Y84201D02*
G03*
X113669Y84201I-508J0D01*
G01*
Y99441D02*
G03*
X113669Y99441I-508J0D01*
G01*
X61559Y106785D02*
G03*
X61559Y106785I-508J0D01*
G01*
X119549D02*
G03*
X119549Y106785I-508J0D01*
G01*
X61559Y57785D02*
G03*
X61559Y57785I-508J0D01*
G01*
X119549D02*
G03*
X119549Y57785I-508J0D01*
G01*
M02*
