G04 Layer_Color=32896*
%FSLAX43Y43*%
%MOMM*%
G71*
G01*
G75*
%ADD13C,1.270*%
%ADD20C,0.200*%
%ADD28C,0.400*%
%ADD29C,0.025*%
%ADD30C,0.254*%
%ADD31C,0.300*%
D13*
X54483Y49403D02*
Y116840D01*
Y49403D02*
X130302D01*
Y116840D01*
X54483D02*
X130302D01*
D20*
X72390Y74549D02*
X74930D01*
Y84709D01*
X72390Y74549D02*
Y84709D01*
X74930D01*
X72390Y62484D02*
X74930D01*
Y72644D01*
X72390Y62484D02*
Y72644D01*
X74930D01*
X59690Y67818D02*
X62230D01*
Y72898D01*
X59690D02*
X62230D01*
X59690Y67818D02*
Y72898D01*
X122301Y72644D02*
X124841D01*
X122301Y67564D02*
Y72644D01*
Y67564D02*
X124841D01*
Y72644D01*
X60198Y85344D02*
Y92964D01*
X57658Y85344D02*
X60198D01*
X57658D02*
Y92964D01*
X60198D01*
Y77216D02*
Y84836D01*
X57658Y77216D02*
X60198D01*
X57658D02*
Y84836D01*
X60198D01*
X123825Y81661D02*
X126365D01*
Y101981D01*
X123825D02*
X126365D01*
X123825Y81661D02*
Y101981D01*
X94209Y54387D02*
X94342Y54521D01*
X94609D01*
X94742Y54387D01*
Y53854D01*
X94609Y53721D01*
X94342D01*
X94209Y53854D01*
Y54121D01*
X94475D01*
X93942Y53721D02*
Y54521D01*
X93542D01*
X93409Y54387D01*
Y54121D01*
X93542Y53988D01*
X93942D01*
X93676D02*
X93409Y53721D01*
X92743Y54521D02*
X93009D01*
X93143Y54387D01*
Y53854D01*
X93009Y53721D01*
X92743D01*
X92609Y53854D01*
Y54387D01*
X92743Y54521D01*
X92343D02*
Y53854D01*
X92209Y53721D01*
X91943D01*
X91810Y53854D01*
Y54521D01*
X91543Y53721D02*
Y54521D01*
X91010Y53721D01*
Y54521D01*
X90743D02*
Y53721D01*
X90343D01*
X90210Y53854D01*
Y54387D01*
X90343Y54521D01*
X90743D01*
X89944Y54121D02*
X89410D01*
X88611Y54387D02*
X88744Y54521D01*
X89011D01*
X89144Y54387D01*
Y54254D01*
X89011Y54121D01*
X88744D01*
X88611Y53988D01*
Y53854D01*
X88744Y53721D01*
X89011D01*
X89144Y53854D01*
X88344Y54521D02*
X88077D01*
X88211D01*
Y53721D01*
X88344D01*
X88077D01*
X87144Y54387D02*
X87278Y54521D01*
X87544D01*
X87678Y54387D01*
Y53854D01*
X87544Y53721D01*
X87278D01*
X87144Y53854D01*
Y54121D01*
X87411D01*
X86878Y53721D02*
Y54521D01*
X86345Y53721D01*
Y54521D01*
X86078Y53721D02*
Y54254D01*
X85812Y54521D01*
X85545Y54254D01*
Y53721D01*
Y54121D01*
X86078D01*
X85278Y54521D02*
Y53721D01*
X84745D01*
X94742Y115635D02*
Y114935D01*
X94392D01*
X94275Y115052D01*
Y115518D01*
X94392Y115635D01*
X94742D01*
X93576Y114935D02*
X94042D01*
X93576Y115402D01*
Y115518D01*
X93692Y115635D01*
X93926D01*
X94042Y115518D01*
X93342Y115285D02*
X92876D01*
X92643Y115635D02*
Y114935D01*
X92293D01*
X92176Y115052D01*
Y115518D01*
X92293Y115635D01*
X92643D01*
X91943Y115518D02*
X91826Y115635D01*
X91593D01*
X91476Y115518D01*
Y115402D01*
X91593Y115285D01*
X91710D01*
X91593D01*
X91476Y115168D01*
Y115052D01*
X91593Y114935D01*
X91826D01*
X91943Y115052D01*
D28*
X56134Y112395D02*
Y115189D01*
X66929Y112395D02*
Y115189D01*
X56134D02*
X66929D01*
X56134Y112395D02*
X66929D01*
D29*
X120091Y112624D02*
X127838D01*
X119913Y112954D02*
X122860D01*
X119786Y112928D02*
X122885D01*
X119837Y112903D02*
X122936D01*
X119863Y112878D02*
X122987D01*
X119888Y112852D02*
X123063D01*
X119913Y112827D02*
X123114D01*
X119939Y112801D02*
X123215D01*
X119964Y112776D02*
X123444D01*
X119990Y112751D02*
X127940D01*
X120015Y112725D02*
X127914D01*
X120040Y112700D02*
X127889D01*
X120040Y112674D02*
X127889D01*
X120066Y112649D02*
X127864D01*
X120091Y112598D02*
X127813D01*
X120117Y112573D02*
X127813D01*
X120142Y112547D02*
X127787D01*
X120167Y112522D02*
X127762D01*
X119913Y112497D02*
X128016D01*
X119964Y112471D02*
X127965D01*
X119990Y112446D02*
X127940D01*
X120015Y112420D02*
X127889D01*
X120294Y112395D02*
X127864D01*
X120091Y112370D02*
X127813D01*
X120371Y112344D02*
X127787D01*
X120371Y112319D02*
X127762D01*
X120447Y112293D02*
X127737D01*
X120472Y112268D02*
X127711D01*
X120523Y112243D02*
X127406D01*
X121590Y112217D02*
X126340D01*
X121818Y112192D02*
X126111D01*
X121818Y112166D02*
X126111D01*
X121691Y112141D02*
X126238D01*
X121539Y112116D02*
X126365D01*
X121488Y112090D02*
X126441D01*
X121412Y112065D02*
X126517D01*
X121336Y112039D02*
X126594D01*
X121285Y112014D02*
X126619D01*
X121234Y111989D02*
X126695D01*
X121183Y111963D02*
X126721D01*
X120625Y111938D02*
X127279D01*
X120599Y111912D02*
X127305D01*
X120548Y111887D02*
X127305D01*
X120523Y111862D02*
X127330D01*
X120523Y111836D02*
X127330D01*
X120498Y111811D02*
X127356D01*
X120498Y111785D02*
X127356D01*
X120498Y111760D02*
X127356D01*
X120472Y111735D02*
X127356D01*
X120421Y111709D02*
X127356D01*
X120396Y111684D02*
X127432D01*
X120345Y111658D02*
X127483D01*
X120320Y111633D02*
X127508D01*
X120320Y111608D02*
X127533D01*
X120294Y111582D02*
X127559D01*
X120294Y111557D02*
X127559D01*
X120294Y111531D02*
X127584D01*
X120294Y111506D02*
X127584D01*
X120294Y111481D02*
X127584D01*
X120269Y111455D02*
X127584D01*
X120269Y111430D02*
X127584D01*
X120193Y110160D02*
X127660D01*
X120218Y110134D02*
X127660D01*
X120218Y110109D02*
X127660D01*
X120218Y110084D02*
X127635D01*
X120218Y110058D02*
X127635D01*
X120244Y110033D02*
X127610D01*
X120269Y110007D02*
X127610D01*
X120294Y109982D02*
X127584D01*
X120345Y109957D02*
X127533D01*
X120371Y109931D02*
X127457D01*
X120371Y109906D02*
X127457D01*
X120371Y109880D02*
X127457D01*
X120396Y109855D02*
X127457D01*
X120396Y109830D02*
X127457D01*
X120396Y109804D02*
X127457D01*
X120421Y109779D02*
X127457D01*
X120421Y109753D02*
X127432D01*
X120447Y109728D02*
X127432D01*
X120472Y109703D02*
X127406D01*
X120523Y109677D02*
X127381D01*
X120548Y109652D02*
X127330D01*
X122631Y109626D02*
X125222D01*
X122682Y109601D02*
X125171D01*
X122733Y109576D02*
X125095D01*
X120879Y107925D02*
X122834D01*
X120929Y107899D02*
X122885D01*
X120980Y107874D02*
X124130D01*
X121031Y107848D02*
X124130D01*
X121082Y107823D02*
X124130D01*
X121133Y107798D02*
X124104D01*
X121158Y107772D02*
X124104D01*
X121209Y107747D02*
X124079D01*
X121260Y107721D02*
X124079D01*
X121310Y107696D02*
X124079D01*
X121361Y107671D02*
X124079D01*
X121793Y107645D02*
X124054D01*
X121844Y107620D02*
X124054D01*
X121895Y107594D02*
X124079D01*
X121945Y107569D02*
X124104D01*
X121945Y107544D02*
X124130D01*
X121996Y107518D02*
X124130D01*
X122047Y107493D02*
X124155D01*
X122098Y107467D02*
X124155D01*
X122123Y107442D02*
X124155D01*
X122504Y107188D02*
X124155D01*
X122504Y107163D02*
X124155D01*
X122504Y107137D02*
X124155D01*
X122504Y107112D02*
X124130D01*
X122530Y107086D02*
X124130D01*
X122555Y107061D02*
X124130D01*
X122580Y107036D02*
X124104D01*
X122580Y107010D02*
X124079D01*
X122606Y106985D02*
X124054D01*
X122606Y106959D02*
X124028D01*
X122631Y106934D02*
X124028D01*
X122657Y106909D02*
X124003D01*
X122682Y106883D02*
X123977D01*
X122707Y106858D02*
X123952D01*
X122733Y106832D02*
X123901D01*
X122784Y106807D02*
X123850D01*
X119736Y112624D02*
X119964D01*
X121691Y110592D02*
X122174D01*
X121209Y108560D02*
X121945D01*
X124968Y114656D02*
X125857D01*
X126746Y110592D02*
X127940D01*
X125755D02*
X126060D01*
X123800D02*
X124104D01*
X123063Y108560D02*
X124308D01*
X121133Y115519D02*
X121895D01*
X121336Y115494D02*
X121971D01*
X121539Y115468D02*
X122047D01*
X121717Y115443D02*
X122098D01*
X121158Y115316D02*
X121844D01*
X121183Y115291D02*
X121920D01*
X121183Y115265D02*
X121971D01*
X121209Y115240D02*
X122022D01*
X121234Y115214D02*
X122072D01*
X121260Y115189D02*
X122123D01*
X121285Y115164D02*
X122149D01*
X121310Y115138D02*
X122199D01*
X121310Y115113D02*
X122225D01*
X121361Y115087D02*
X122276D01*
X121361Y115062D02*
X122301D01*
X121361Y115037D02*
X122352D01*
X121437Y115011D02*
X122377D01*
X121488Y114986D02*
X122403D01*
X121539Y114960D02*
X122453D01*
X121564Y114935D02*
X122479D01*
X121615Y114910D02*
X122504D01*
X121666Y114884D02*
X122530D01*
X121717Y114859D02*
X122580D01*
X121768Y114833D02*
X122580D01*
X121615Y114173D02*
X121920D01*
X121666Y114148D02*
X121895D01*
X121717Y114122D02*
X121869D01*
X121717Y114097D02*
X121818D01*
X119228D02*
X119786D01*
X121691Y114071D02*
X121793D01*
X119380D02*
X119863D01*
X119482Y114046D02*
X119913D01*
X119609Y114021D02*
X119964D01*
X119685Y113995D02*
X120040D01*
X119634Y113843D02*
X119812D01*
X119634Y113817D02*
X119837D01*
X119761Y113792D02*
X119913D01*
X119990Y113690D02*
X121818D01*
X120091Y113665D02*
X121869D01*
X120117Y113640D02*
X121920D01*
X120091Y113614D02*
X121971D01*
X120091Y113589D02*
X121996D01*
X120066Y113563D02*
X122047D01*
X120040Y113538D02*
X122098D01*
X120040Y113513D02*
X122123D01*
X120015Y113487D02*
X122174D01*
X119990Y113462D02*
X122225D01*
X119990Y113436D02*
X122250D01*
X119583D02*
X119761D01*
X119964Y113411D02*
X122301D01*
X119634D02*
X119863D01*
X119964Y113386D02*
X122326D01*
X119710D02*
X119888D01*
X119786Y113360D02*
X122377D01*
X119863Y113335D02*
X122580D01*
X119913Y113309D02*
X122606D01*
X119939Y113284D02*
X122631D01*
X119939Y113259D02*
X122631D01*
X119913Y113233D02*
X122606D01*
X119913Y113208D02*
X122631D01*
X119913Y113182D02*
X122631D01*
X119913Y113157D02*
X122657D01*
X119913Y113132D02*
X122682D01*
X119913Y113106D02*
X122682D01*
X119913Y113081D02*
X122707D01*
X119634D02*
X119761D01*
X119913Y113055D02*
X122707D01*
X119659D02*
X119786D01*
X119913Y113030D02*
X122733D01*
X119710D02*
X119812D01*
X119913Y113005D02*
X122758D01*
X119710D02*
X119837D01*
X119913Y112979D02*
X122784D01*
X119736D02*
X119863D01*
X119583Y112801D02*
X119761D01*
X119583Y112776D02*
X119786D01*
X119609Y112751D02*
X119837D01*
X119634Y112725D02*
X119837D01*
X119659Y112700D02*
X119888D01*
X119685Y112674D02*
X119939D01*
X119710Y112649D02*
X119964D01*
X121793Y110896D02*
X122149D01*
X121793Y110871D02*
X122149D01*
X121793Y110846D02*
X122149D01*
X121768Y110820D02*
X122123D01*
X121768Y110795D02*
X122123D01*
X121768Y110769D02*
X122123D01*
X121742Y110744D02*
X122149D01*
X121742Y110719D02*
X122149D01*
X121742Y110693D02*
X122149D01*
X121717Y110668D02*
X122149D01*
X121717Y110642D02*
X122174D01*
X121717Y110617D02*
X122174D01*
X121691Y110566D02*
X122199D01*
X121666Y110541D02*
X122199D01*
X121666Y110515D02*
X122225D01*
X121641Y110490D02*
X122225D01*
X121641Y110465D02*
X122225D01*
X121641Y110439D02*
X122250D01*
X121615Y110414D02*
X122250D01*
X121615Y110388D02*
X122276D01*
X121615Y110363D02*
X122276D01*
X121590Y110338D02*
X122276D01*
X121590Y110312D02*
X122301D01*
X121590Y110287D02*
X122301D01*
X121564Y110261D02*
X122326D01*
X121564Y110236D02*
X122352D01*
X121539Y110211D02*
X122377D01*
X121514Y110185D02*
X122428D01*
X121234Y108636D02*
X121818D01*
X121209Y108610D02*
X121844D01*
X121209Y108585D02*
X121895D01*
X121183Y108534D02*
X121996D01*
X121209Y108509D02*
X122047D01*
X121209Y108483D02*
X122098D01*
X121209Y108458D02*
X122149D01*
X121234Y108433D02*
X122199D01*
X121260Y108407D02*
X122250D01*
X121310Y108382D02*
X122276D01*
X121361Y108356D02*
X122301D01*
X121412Y108331D02*
X122301D01*
X121463Y108306D02*
X122301D01*
X121488Y108280D02*
X122326D01*
X121539Y108255D02*
X122326D01*
X121590Y108229D02*
X122301D01*
X121641Y108204D02*
X122301D01*
X121615Y108179D02*
X122301D01*
X121590Y108153D02*
X122326D01*
X121564Y108128D02*
X122403D01*
X120675Y108102D02*
X122453D01*
X120701Y108077D02*
X122504D01*
X120701Y108052D02*
X122555D01*
X120726Y108026D02*
X122606D01*
X120752Y108001D02*
X122657D01*
X120777Y107975D02*
X122707D01*
X120828Y107950D02*
X122758D01*
X123266Y115595D02*
X123825D01*
X123673Y115570D02*
X123850D01*
X123723Y115545D02*
X123850D01*
X123723Y115519D02*
X123850D01*
X123723Y115494D02*
X123850D01*
X123723Y115468D02*
X123850D01*
X125832Y115443D02*
X126213D01*
X123723D02*
X123850D01*
X125755Y115418D02*
X126086D01*
X123723D02*
X123850D01*
X125705Y115392D02*
X126009D01*
X123698D02*
X123850D01*
X125679Y115367D02*
X125933D01*
X123673D02*
X123825D01*
X125628Y115341D02*
X125908D01*
X123673D02*
X123825D01*
X125857Y115214D02*
X126695D01*
X125806Y115189D02*
X126670D01*
X125781Y115164D02*
X126644D01*
X125730Y115138D02*
X126619D01*
X125705Y115113D02*
X126594D01*
X125654Y115087D02*
X126568D01*
X125628Y115062D02*
X126543D01*
X125578Y115037D02*
X126568D01*
X125552Y115011D02*
X126492D01*
X125501Y114986D02*
X126441D01*
X125476Y114960D02*
X126390D01*
X125451Y114935D02*
X126340D01*
X125425Y114910D02*
X126314D01*
X125374Y114884D02*
X126263D01*
X125349Y114859D02*
X126213D01*
X125324Y114833D02*
X126136D01*
X125298Y114808D02*
X126086D01*
X123800D02*
X124130D01*
X124892Y114783D02*
X126009D01*
X123596D02*
X124308D01*
X124917Y114757D02*
X125959D01*
X123444D02*
X124460D01*
X124943Y114732D02*
X125908D01*
X123368D02*
X124562D01*
X124943Y114706D02*
X125882D01*
X123114D02*
X124816D01*
X124968Y114681D02*
X125857D01*
X123774Y114605D02*
X124155D01*
X123647Y114579D02*
X124282D01*
X123520Y114554D02*
X124409D01*
X123419Y114529D02*
X124511D01*
X125857Y114249D02*
X125984D01*
X125806Y114224D02*
X126009D01*
X125781Y114198D02*
X125908D01*
X125755Y114173D02*
X125882D01*
X125705Y114148D02*
X125857D01*
X127889Y113995D02*
X128245D01*
X127838Y113970D02*
X128118D01*
X127737Y113944D02*
X128118D01*
X126746Y113919D02*
X128016D01*
X126619Y113894D02*
X127965D01*
X126340Y113868D02*
X127914D01*
X127889Y113741D02*
X128092D01*
X127787Y113716D02*
X128092D01*
X126111Y113690D02*
X127940D01*
X125832Y113538D02*
X127864D01*
X125781Y113513D02*
X127889D01*
X125755Y113487D02*
X127914D01*
X125705Y113462D02*
X127914D01*
X125654Y113436D02*
X127940D01*
X125628Y113411D02*
X127940D01*
X125578Y113386D02*
X127965D01*
X125552Y113360D02*
X128143D01*
X125349Y113335D02*
X128067D01*
X125324Y113309D02*
X127991D01*
X125324Y113284D02*
X127991D01*
X125324Y113259D02*
X127991D01*
X125298Y113233D02*
X128016D01*
X125298Y113208D02*
X128016D01*
X125298Y113182D02*
X128016D01*
X125273Y113157D02*
X127991D01*
X125273Y113132D02*
X128016D01*
X125247Y113106D02*
X128016D01*
X125222Y113081D02*
X128016D01*
X123774D02*
X124155D01*
X125197Y113055D02*
X128016D01*
X123698D02*
X124231D01*
X125197Y113030D02*
X128016D01*
X123520D02*
X124409D01*
X125171Y113005D02*
X128016D01*
X123546D02*
X124384D01*
X125146Y112979D02*
X128016D01*
X123571D02*
X124358D01*
X125095Y112954D02*
X127991D01*
X123596D02*
X124333D01*
X125044Y112928D02*
X128118D01*
X123622D02*
X124308D01*
X124993Y112903D02*
X128092D01*
X123622D02*
X124282D01*
X124943Y112878D02*
X128067D01*
X123622D02*
X124282D01*
X124892Y112852D02*
X128041D01*
X123622D02*
X124308D01*
X124816Y112827D02*
X128016D01*
X123596D02*
X124333D01*
X124714Y112801D02*
X127991D01*
X123546D02*
X124358D01*
X124638Y112776D02*
X127965D01*
X123469D02*
X124409D01*
X127889Y112573D02*
X128092D01*
X127864Y112547D02*
X128067D01*
X127813Y112522D02*
X128041D01*
X123800Y111404D02*
X126213D01*
X123825Y111379D02*
X126162D01*
X123800Y111354D02*
X126136D01*
X123800Y111328D02*
X126111D01*
X123800Y111303D02*
X126086D01*
X123800Y111277D02*
X126060D01*
X123800Y111252D02*
X126060D01*
X123800Y111227D02*
X126060D01*
X123800Y111201D02*
X126035D01*
X123800Y111176D02*
X126035D01*
X123800Y111150D02*
X126035D01*
X123800Y111125D02*
X126035D01*
X126721Y111100D02*
X127889D01*
X123800D02*
X126035D01*
X126721Y111074D02*
X127914D01*
X123800D02*
X126035D01*
X126721Y111049D02*
X127914D01*
X125476D02*
X126035D01*
X123800D02*
X124358D01*
X126721Y111023D02*
X127940D01*
X125578D02*
X126035D01*
X123800D02*
X124257D01*
X126721Y110998D02*
X127940D01*
X125603D02*
X126035D01*
X123800D02*
X124231D01*
X126721Y110973D02*
X127940D01*
X125628D02*
X126035D01*
X123800D02*
X124206D01*
X126721Y110947D02*
X127940D01*
X125679D02*
X126035D01*
X123800D02*
X124181D01*
X126721Y110922D02*
X127940D01*
X125679D02*
X126060D01*
X123800D02*
X124155D01*
X126746Y110896D02*
X127940D01*
X125705D02*
X126060D01*
X123800D02*
X124130D01*
X126746Y110871D02*
X127965D01*
X125730D02*
X126060D01*
X123800D02*
X124104D01*
X126746Y110846D02*
X127965D01*
X125730D02*
X126086D01*
X123800D02*
X124104D01*
X126746Y110820D02*
X127965D01*
X125755D02*
X126111D01*
X123800D02*
X124104D01*
X126746Y110795D02*
X127965D01*
X125755D02*
X126111D01*
X123800D02*
X124104D01*
X126746Y110769D02*
X127965D01*
X125755D02*
X126086D01*
X123800D02*
X124104D01*
X126746Y110744D02*
X127965D01*
X125755D02*
X126086D01*
X123800D02*
X124104D01*
X126746Y110719D02*
X127965D01*
X125755D02*
X126060D01*
X123800D02*
X124104D01*
X126746Y110693D02*
X127965D01*
X125755D02*
X126060D01*
X123800D02*
X124104D01*
X126746Y110668D02*
X127965D01*
X125755D02*
X126060D01*
X123800D02*
X124104D01*
X126746Y110642D02*
X127965D01*
X125755D02*
X126060D01*
X123800D02*
X124104D01*
X126746Y110617D02*
X127965D01*
X125755D02*
X126060D01*
X123800D02*
X124104D01*
X126746Y110566D02*
X127914D01*
X125755D02*
X126060D01*
X123800D02*
X124104D01*
X126746Y110541D02*
X127914D01*
X125755D02*
X126060D01*
X123800D02*
X124104D01*
X126746Y110515D02*
X127889D01*
X125755D02*
X126060D01*
X123800D02*
X124130D01*
X125755Y110490D02*
X126060D01*
X123800D02*
X124612D01*
X125755Y110465D02*
X126060D01*
X123800D02*
X124612D01*
X125755Y110439D02*
X126060D01*
X123800D02*
X124612D01*
X125755Y110414D02*
X126060D01*
X123800D02*
X124587D01*
X125755Y110388D02*
X126060D01*
X123800D02*
X124562D01*
X125730Y110363D02*
X126086D01*
X123800D02*
X124511D01*
X125730Y110338D02*
X126086D01*
X123800D02*
X124130D01*
X125705Y110312D02*
X126111D01*
X123800D02*
X124104D01*
X125679Y110287D02*
X126136D01*
X123800D02*
X124104D01*
X125679Y110261D02*
X126162D01*
X123800D02*
X124104D01*
X125654Y110236D02*
X126187D01*
X123800D02*
X124104D01*
X125628Y110211D02*
X126213D01*
X123800D02*
X124130D01*
X125578Y110185D02*
X126289D01*
X123774D02*
X124155D01*
X122834Y109550D02*
X125044D01*
X122885Y109525D02*
X125019D01*
X122911Y109499D02*
X124993D01*
X122936Y109474D02*
X124968D01*
X122961Y109449D02*
X124943D01*
X122987Y109423D02*
X124917D01*
X123012Y109398D02*
X124892D01*
X123063Y109372D02*
X124866D01*
X123088Y109347D02*
X124816D01*
X123114Y109322D02*
X124790D01*
X123139Y109296D02*
X124739D01*
X123139Y109271D02*
X124689D01*
X123139Y109245D02*
X124638D01*
X123139Y109220D02*
X124612D01*
X123139Y109195D02*
X124562D01*
X123139Y109169D02*
X124485D01*
X123139Y109144D02*
X124485D01*
X123114Y109118D02*
X124460D01*
X123114Y109093D02*
X124460D01*
X123114Y109068D02*
X124460D01*
X123114Y109042D02*
X124435D01*
X123114Y109017D02*
X124435D01*
X123088Y108991D02*
X124435D01*
X123088Y108966D02*
X124435D01*
X123088Y108941D02*
X124409D01*
X123088Y108915D02*
X124409D01*
X123088Y108890D02*
X124409D01*
X123088Y108864D02*
X124409D01*
X123088Y108839D02*
X124384D01*
X123088Y108814D02*
X124384D01*
X123088Y108788D02*
X124384D01*
X123088Y108763D02*
X124384D01*
X123063Y108737D02*
X124358D01*
X123063Y108712D02*
X124358D01*
X123063Y108687D02*
X124358D01*
X123063Y108661D02*
X124333D01*
X123063Y108636D02*
X124333D01*
X123063Y108610D02*
X124308D01*
X123063Y108585D02*
X124308D01*
X123063Y108534D02*
X124308D01*
X123063Y108509D02*
X124282D01*
X123038Y108483D02*
X124282D01*
X123038Y108458D02*
X124282D01*
X123038Y108433D02*
X124282D01*
X123038Y108407D02*
X124257D01*
X123038Y108382D02*
X124257D01*
X123038Y108356D02*
X124257D01*
X123038Y108331D02*
X124257D01*
X123038Y108306D02*
X124231D01*
X123038Y108280D02*
X124231D01*
X123012Y108255D02*
X124231D01*
X123012Y108229D02*
X124231D01*
X123012Y108204D02*
X124231D01*
X123012Y108179D02*
X124206D01*
X123012Y108153D02*
X124206D01*
X123012Y108128D02*
X124206D01*
X122987Y108102D02*
X124181D01*
X122987Y108077D02*
X124181D01*
X122987Y108052D02*
X124181D01*
X122987Y108026D02*
X124181D01*
X122987Y108001D02*
X124181D01*
X122987Y107975D02*
X124155D01*
X122987Y107950D02*
X124155D01*
X122987Y107925D02*
X124155D01*
X122961Y107899D02*
X124130D01*
X123469Y107417D02*
X124155D01*
X123520Y107391D02*
X124155D01*
X123546Y107366D02*
X124181D01*
X123546Y107340D02*
X124181D01*
X123546Y107315D02*
X124181D01*
X123546Y107290D02*
X124181D01*
X123520Y107264D02*
X124181D01*
X123495Y107239D02*
X124181D01*
X123444Y107213D02*
X124155D01*
X122834Y106782D02*
X123825D01*
X120980Y114656D02*
X121107D01*
X120625D02*
X120828D01*
X121488Y110592D02*
X121514D01*
X119964D02*
X121310D01*
X123063Y114656D02*
X123596D01*
X122072D02*
X122936D01*
X123495Y110592D02*
X123647D01*
X122784D02*
X123292D01*
X122377D02*
X122580D01*
X124333Y114656D02*
X124841D01*
X124765Y110592D02*
X125070D01*
X127076Y114656D02*
X127279D01*
X126822D02*
X126949D01*
X126213Y110592D02*
X126568D01*
X127965Y112624D02*
X128168D01*
X118897Y114224D02*
X119329D01*
X118847Y114198D02*
X119405D01*
X118821Y114173D02*
X119532D01*
X118796Y114148D02*
X119609D01*
X119177Y114122D02*
X119710D01*
X118796D02*
X118948D01*
X118796Y114097D02*
X118923D01*
X118796Y114071D02*
X118923D01*
X119024Y114046D02*
X119101D01*
X118796D02*
X118923D01*
X119024Y114021D02*
X119202D01*
X118796D02*
X118923D01*
X119355Y113995D02*
X119380D01*
X119050D02*
X119329D01*
X118796D02*
X118923D01*
X119050Y113970D02*
X119482D01*
X118770D02*
X118923D01*
X119253Y113944D02*
X119583D01*
X119050D02*
X119151D01*
X118796D02*
X118923D01*
X119304Y113919D02*
X119634D01*
X119075D02*
X119151D01*
X118796D02*
X118948D01*
X119532Y113894D02*
X119710D01*
X119380D02*
X119456D01*
X119075D02*
X119177D01*
X118796D02*
X118948D01*
X119583Y113868D02*
X119736D01*
X119405D02*
X119456D01*
X119101D02*
X119177D01*
X118796D02*
X118974D01*
X119405Y113843D02*
X119456D01*
X119101D02*
X119202D01*
X118821D02*
X118974D01*
X119405Y113817D02*
X119456D01*
X119126D02*
X119202D01*
X118821D02*
X118974D01*
X119634Y113792D02*
X119710D01*
X119380D02*
X119456D01*
X119126D02*
X119228D01*
X118847D02*
X118999D01*
X119634Y113767D02*
X119685D01*
X119380D02*
X119456D01*
X119151D02*
X119228D01*
X118847D02*
X118999D01*
X119609Y113741D02*
X119685D01*
X119380D02*
X119456D01*
X119177D02*
X119253D01*
X118872D02*
X119024D01*
X119609Y113716D02*
X119685D01*
X119380D02*
X119456D01*
X119177D02*
X119253D01*
X118872D02*
X119050D01*
X119609Y113690D02*
X119685D01*
X119355D02*
X119456D01*
X119202D02*
X119278D01*
X118897D02*
X119050D01*
X119609Y113665D02*
X119685D01*
X119355D02*
X119456D01*
X119202D02*
X119304D01*
X118897D02*
X119075D01*
X119609Y113640D02*
X119685D01*
X119355D02*
X119456D01*
X119228D02*
X119304D01*
X118923D02*
X119101D01*
X119583Y113614D02*
X119685D01*
X119355D02*
X119431D01*
X119228D02*
X119329D01*
X118948D02*
X119101D01*
X119583Y113589D02*
X119685D01*
X119253D02*
X119431D01*
X118948D02*
X119126D01*
X119583Y113563D02*
X119685D01*
X119278D02*
X119482D01*
X118974D02*
X119151D01*
X119583Y113538D02*
X119685D01*
X119278D02*
X119532D01*
X118999D02*
X119151D01*
X119304Y113513D02*
X119659D01*
X118999D02*
X119151D01*
X119482Y113487D02*
X119659D01*
X119329D02*
X119431D01*
X118999D02*
X119202D01*
X119532Y113462D02*
X119710D01*
X119355D02*
X119431D01*
X119024D02*
X119202D01*
X119355Y113436D02*
X119456D01*
X119050D02*
X119228D01*
X119380Y113411D02*
X119482D01*
X119075D02*
X119228D01*
X119405Y113386D02*
X119482D01*
X119075D02*
X119253D01*
X119405Y113360D02*
X119507D01*
X119075D02*
X119278D01*
X119431Y113335D02*
X119532D01*
X119101D02*
X119278D01*
X119456Y113309D02*
X119558D01*
X119126D02*
X119304D01*
X119482Y113284D02*
X119558D01*
X119151D02*
X119329D01*
X119482Y113259D02*
X119583D01*
X119177D02*
X119329D01*
X119507Y113233D02*
X119609D01*
X119177D02*
X119355D01*
X119532Y113208D02*
X119634D01*
X119202D02*
X119380D01*
X119558Y113182D02*
X119659D01*
X119228D02*
X119405D01*
X119583Y113157D02*
X119685D01*
X119228D02*
X119405D01*
X119583Y113132D02*
X119710D01*
X119253D02*
X119456D01*
X119634Y113106D02*
X119736D01*
X119278D02*
X119456D01*
X119304Y113081D02*
X119482D01*
X119304Y113055D02*
X119507D01*
X119329Y113030D02*
X119532D01*
X119355Y113005D02*
X119558D01*
X119380Y112979D02*
X119583D01*
X119405Y112954D02*
X119609D01*
X119431Y112928D02*
X119634D01*
X119456Y112903D02*
X119659D01*
X119482Y112878D02*
X119710D01*
X119507Y112852D02*
X119710D01*
X119532Y112827D02*
X119736D01*
X120447Y115672D02*
X120752D01*
X120269Y115646D02*
X121031D01*
X121234Y115621D02*
X121361D01*
X120193D02*
X121209D01*
X120167Y115595D02*
X121514D01*
X120142Y115570D02*
X121615D01*
X120980Y115545D02*
X121768D01*
X120117D02*
X120294D01*
X120117Y115519D02*
X120244D01*
X120117Y115494D02*
X120244D01*
X120371Y115468D02*
X120929D01*
X120117D02*
X120244D01*
X120345Y115443D02*
X121234D01*
X120117D02*
X120244D01*
X121006Y115418D02*
X121310D01*
X120548D02*
X120675D01*
X120371D02*
X120421D01*
X120117D02*
X120244D01*
X121133Y115392D02*
X121514D01*
X120599D02*
X120726D01*
X120371D02*
X120447D01*
X120117D02*
X120244D01*
X121133Y115367D02*
X121615D01*
X120625D02*
X120752D01*
X120396D02*
X120447D01*
X120117D02*
X120269D01*
X121158Y115341D02*
X121768D01*
X120650D02*
X120777D01*
X120421D02*
X120472D01*
X120117D02*
X120269D01*
X120701Y115316D02*
X120828D01*
X120421D02*
X120498D01*
X120142D02*
X120294D01*
X120726Y115291D02*
X120853D01*
X120447D02*
X120523D01*
X120142D02*
X120294D01*
X120777Y115265D02*
X120879D01*
X120447D02*
X120523D01*
X120167D02*
X120320D01*
X120802Y115240D02*
X120904D01*
X120472D02*
X120548D01*
X120167D02*
X120345D01*
X120828Y115214D02*
X120929D01*
X120472D02*
X120574D01*
X120193D02*
X120345D01*
X120853Y115189D02*
X120980D01*
X120498D02*
X120599D01*
X120193D02*
X120371D01*
X120879Y115164D02*
X121006D01*
X120523D02*
X120625D01*
X120218D02*
X120371D01*
X120929Y115138D02*
X121031D01*
X120548D02*
X120625D01*
X120244D02*
X120396D01*
X120955Y115113D02*
X121056D01*
X120574D02*
X120650D01*
X120269D02*
X120421D01*
X120980Y115087D02*
X121082D01*
X120574D02*
X120675D01*
X120269D02*
X120421D01*
X121006Y115062D02*
X121107D01*
X120599D02*
X120701D01*
X120294D02*
X120447D01*
X121031Y115037D02*
X121133D01*
X120625D02*
X120726D01*
X120320D02*
X120472D01*
X121310Y115011D02*
X121412D01*
X121056D02*
X121158D01*
X120625D02*
X120752D01*
X120320D02*
X120498D01*
X121285Y114986D02*
X121361D01*
X121082D02*
X121183D01*
X120675D02*
X120777D01*
X120345D02*
X120523D01*
X121260Y114960D02*
X121336D01*
X121107D02*
X121209D01*
X120675D02*
X120777D01*
X120371D02*
X120523D01*
X121133Y114935D02*
X121310D01*
X120701D02*
X120802D01*
X120396D02*
X120548D01*
X121158Y114910D02*
X121260D01*
X120726D02*
X120828D01*
X120421D02*
X120574D01*
X121183Y114884D02*
X121209D01*
X120752D02*
X120853D01*
X120421D02*
X120625D01*
X120777Y114859D02*
X120879D01*
X120447D02*
X120625D01*
X120802Y114833D02*
X120904D01*
X120472D02*
X120650D01*
X120828Y114808D02*
X120929D01*
X120498D02*
X120675D01*
X120853Y114783D02*
X120955D01*
X120523D02*
X120701D01*
X120879Y114757D02*
X121006D01*
X120548D02*
X120726D01*
X120904Y114732D02*
X121031D01*
X120548D02*
X120752D01*
X120929Y114706D02*
X121056D01*
X120599D02*
X120752D01*
X120955Y114681D02*
X121082D01*
X120599D02*
X120802D01*
X121006Y114630D02*
X121133D01*
X120650D02*
X120853D01*
X121031Y114605D02*
X121158D01*
X120701D02*
X120853D01*
X121056Y114579D02*
X121183D01*
X120726D02*
X120879D01*
X121107Y114554D02*
X121234D01*
X120726D02*
X120929D01*
X121133Y114529D02*
X121260D01*
X120752D02*
X120955D01*
X121158Y114503D02*
X121285D01*
X120777D02*
X120980D01*
X121183Y114478D02*
X121336D01*
X120828D02*
X121006D01*
X121234Y114452D02*
X121361D01*
X120853D02*
X121056D01*
X121260Y114427D02*
X121387D01*
X120879D02*
X121082D01*
X121285Y114402D02*
X121437D01*
X120904D02*
X121107D01*
X121336Y114376D02*
X121463D01*
X120929D02*
X121158D01*
X121361Y114351D02*
X121514D01*
X120980D02*
X121183D01*
X121412Y114325D02*
X121539D01*
X121006D02*
X121183D01*
X121437Y114300D02*
X121590D01*
X121031D02*
X121234D01*
X121463Y114275D02*
X121615D01*
X121082D02*
X121260D01*
X121514Y114249D02*
X121666D01*
X121107D02*
X121310D01*
X121539Y114224D02*
X121691D01*
X121133D02*
X121336D01*
X121590Y114198D02*
X121742D01*
X121158D02*
X121387D01*
X121209Y114173D02*
X121437D01*
X121234Y114148D02*
X121488D01*
X121260Y114122D02*
X121514D01*
X121234Y114097D02*
X121539D01*
X121209Y114071D02*
X121539D01*
X120675D02*
X120980D01*
X121691Y114046D02*
X121768D01*
X120548D02*
X121514D01*
X121641Y114021D02*
X121742D01*
X120447D02*
X121488D01*
X121615Y113995D02*
X121717D01*
X120396D02*
X121463D01*
X121590Y113970D02*
X121691D01*
X120320D02*
X121260D01*
X119812D02*
X120117D01*
X121564Y113944D02*
X121666D01*
X120294D02*
X121209D01*
X119812D02*
X120193D01*
X121539Y113919D02*
X121641D01*
X121387D02*
X121412D01*
X119913D02*
X121183D01*
X121336Y113894D02*
X121615D01*
X119964D02*
X121310D01*
X120015Y113868D02*
X121590D01*
X120091Y113843D02*
X121564D01*
X120142Y113817D02*
X121590D01*
X120193Y113792D02*
X121641D01*
X120244Y113767D02*
X121691D01*
X119786D02*
X119964D01*
X120269Y113741D02*
X121742D01*
X119837D02*
X120040D01*
X120218Y113716D02*
X121768D01*
X119837D02*
X120142D01*
X119837Y113690D02*
X119913D01*
X119837Y113665D02*
X119888D01*
X119812Y113640D02*
X119888D01*
X119812Y113614D02*
X119888D01*
X119812Y113589D02*
X119888D01*
X119812Y113563D02*
X119888D01*
X119812Y113538D02*
X119888D01*
X119812Y113513D02*
X119888D01*
X119786Y113487D02*
X119888D01*
X119786Y113462D02*
X119888D01*
X119786Y113436D02*
X119888D01*
X119786Y112954D02*
X119888D01*
X119786Y112598D02*
X120015D01*
X119837Y112573D02*
X120040D01*
X119837Y112547D02*
X120066D01*
X119888Y112522D02*
X120117D01*
X120066Y112395D02*
X120269D01*
X120117Y112344D02*
X120345D01*
X120142Y112319D02*
X120345D01*
X120167Y112293D02*
X120421D01*
X120218Y112268D02*
X120447D01*
X120244Y112243D02*
X120498D01*
X120599Y112217D02*
X121539D01*
X120269D02*
X120574D01*
X120320Y112192D02*
X121463D01*
X120345Y112166D02*
X121412D01*
X120396Y112141D02*
X121285D01*
X120421Y112116D02*
X121183D01*
X120498Y112090D02*
X121183D01*
X120574Y112065D02*
X121183D01*
X120650Y112039D02*
X121158D01*
X120752Y112014D02*
X121158D01*
X120777Y111989D02*
X121133D01*
X120675Y111963D02*
X121107D01*
X121310Y111404D02*
X121742D01*
X120269D02*
X121209D01*
X121336Y111379D02*
X121717D01*
X120269D02*
X121183D01*
X121361Y111354D02*
X121717D01*
X120269D02*
X121183D01*
X121336Y111328D02*
X121717D01*
X120244D02*
X121183D01*
X121336Y111303D02*
X121717D01*
X120193D02*
X121183D01*
X121336Y111277D02*
X121717D01*
X120167D02*
X121183D01*
X121336Y111252D02*
X121717D01*
X120142D02*
X121183D01*
X121336Y111227D02*
X121717D01*
X120117D02*
X121183D01*
X121336Y111201D02*
X121717D01*
X120091D02*
X121183D01*
X121336Y111176D02*
X121717D01*
X120066D02*
X121183D01*
X121336Y111150D02*
X121717D01*
X120040D02*
X121183D01*
X121336Y111125D02*
X121717D01*
X120015D02*
X121183D01*
X121336Y111100D02*
X121691D01*
X119990D02*
X121183D01*
X121336Y111074D02*
X121691D01*
X119990D02*
X121158D01*
X121336Y111049D02*
X121691D01*
X119990D02*
X121158D01*
X121361Y111023D02*
X121691D01*
X119990D02*
X121183D01*
X121361Y110998D02*
X121666D01*
X119990D02*
X121183D01*
X121361Y110973D02*
X121666D01*
X119990D02*
X121183D01*
X121387Y110947D02*
X121666D01*
X119964D02*
X121209D01*
X121387Y110922D02*
X121641D01*
X119964D02*
X121209D01*
X121387Y110896D02*
X121641D01*
X119964D02*
X121209D01*
X121387Y110871D02*
X121615D01*
X119964D02*
X121234D01*
X121412Y110846D02*
X121615D01*
X119964D02*
X121234D01*
X121412Y110820D02*
X121590D01*
X119964D02*
X121234D01*
X121412Y110795D02*
X121590D01*
X119964D02*
X121234D01*
X121437Y110769D02*
X121590D01*
X119964D02*
X121260D01*
X121437Y110744D02*
X121564D01*
X119964D02*
X121260D01*
X121437Y110719D02*
X121564D01*
X119964D02*
X121260D01*
X121463Y110693D02*
X121564D01*
X119964D02*
X121285D01*
X121463Y110668D02*
X121539D01*
X119964D02*
X121285D01*
X121463Y110642D02*
X121539D01*
X119964D02*
X121285D01*
X121463Y110617D02*
X121539D01*
X119964D02*
X121310D01*
X121488Y110566D02*
X121514D01*
X119964D02*
X121310D01*
X119990Y110541D02*
X121310D01*
X119990Y110515D02*
X121336D01*
X120015Y110490D02*
X121336D01*
X120040Y110465D02*
X121336D01*
X120066Y110439D02*
X121361D01*
X120091Y110414D02*
X121361D01*
X120117Y110388D02*
X121361D01*
X120167Y110363D02*
X121387D01*
X120193Y110338D02*
X121387D01*
X120218Y110312D02*
X121387D01*
X120218Y110287D02*
X121387D01*
X120218Y110261D02*
X121412D01*
X120218Y110236D02*
X121412D01*
X120218Y110211D02*
X121437D01*
X120193Y110185D02*
X121463D01*
X121361Y108814D02*
X121437D01*
X121310Y108788D02*
X121514D01*
X121260Y108763D02*
X121564D01*
X121260Y108737D02*
X121615D01*
X121234Y108712D02*
X121666D01*
X121234Y108687D02*
X121717D01*
X121234Y108661D02*
X121768D01*
X120955Y108356D02*
X121082D01*
X120879Y108331D02*
X121133D01*
X120828Y108306D02*
X121183D01*
X120777Y108280D02*
X121209D01*
X120726Y108255D02*
X121260D01*
X120701Y108229D02*
X121310D01*
X120701Y108204D02*
X121361D01*
X120701Y108179D02*
X121387D01*
X120675Y108153D02*
X121437D01*
X120675Y108128D02*
X121488D01*
X121412Y107645D02*
X121742D01*
X121463Y107620D02*
X121717D01*
X121514Y107594D02*
X121666D01*
X123469Y115672D02*
X123698D01*
X123419Y115646D02*
X123774D01*
X123317Y115621D02*
X123800D01*
X123190Y115570D02*
X123520D01*
X123165Y115545D02*
X123444D01*
X123114Y115519D02*
X123393D01*
X123571Y115494D02*
X123622D01*
X123088D02*
X123317D01*
X123520Y115468D02*
X123596D01*
X123012D02*
X123241D01*
X123444Y115443D02*
X123596D01*
X122987D02*
X123215D01*
X123393Y115418D02*
X123571D01*
X122936D02*
X123190D01*
X121818D02*
X122149D01*
X123342Y115392D02*
X123546D01*
X122911D02*
X123139D01*
X121920D02*
X122199D01*
X123292Y115367D02*
X123520D01*
X122885D02*
X123088D01*
X121971D02*
X122250D01*
X123241Y115341D02*
X123495D01*
X122860D02*
X123063D01*
X122022D02*
X122276D01*
X123622Y115316D02*
X123800D01*
X123215D02*
X123469D01*
X122834D02*
X123012D01*
X122072D02*
X122301D01*
X123596Y115291D02*
X123774D01*
X123165D02*
X123444D01*
X122809D02*
X122987D01*
X122149D02*
X122377D01*
X123596Y115265D02*
X123749D01*
X123139D02*
X123419D01*
X122758D02*
X122961D01*
X122174D02*
X122428D01*
X123571Y115240D02*
X123723D01*
X123088D02*
X123393D01*
X122733D02*
X122936D01*
X122225D02*
X122453D01*
X123520Y115214D02*
X123723D01*
X123063D02*
X123368D01*
X122707D02*
X122911D01*
X122250D02*
X122504D01*
X123520Y115189D02*
X123698D01*
X123038D02*
X123342D01*
X122682D02*
X122860D01*
X122301D02*
X122530D01*
X123469Y115164D02*
X123673D01*
X122987D02*
X123317D01*
X122631D02*
X122834D01*
X122326D02*
X122555D01*
X123444Y115138D02*
X123622D01*
X122961D02*
X123292D01*
X122631D02*
X122809D01*
X122377D02*
X122580D01*
X123419Y115113D02*
X123596D01*
X122936D02*
X123266D01*
X122403D02*
X122784D01*
X123393Y115087D02*
X123571D01*
X122911D02*
X123241D01*
X122479D02*
X122733D01*
X123368Y115062D02*
X123546D01*
X122885D02*
X123215D01*
X122479D02*
X122707D01*
X123368Y115037D02*
X123520D01*
X122860D02*
X123190D01*
X122504D02*
X122707D01*
X123342Y115011D02*
X123495D01*
X122834D02*
X123165D01*
X122555D02*
X122657D01*
X123317Y114986D02*
X123469D01*
X122809D02*
X123165D01*
X122580D02*
X122657D01*
X123266Y114960D02*
X123444D01*
X122784D02*
X123139D01*
X122580D02*
X122657D01*
X123266Y114935D02*
X123444D01*
X122758D02*
X123114D01*
X123241Y114910D02*
X123419D01*
X122733D02*
X123088D01*
X123215Y114884D02*
X123393D01*
X122733D02*
X123088D01*
X123215Y114859D02*
X123368D01*
X122707D02*
X123063D01*
X123190Y114833D02*
X123342D01*
X122682D02*
X123038D01*
X123165Y114808D02*
X123317D01*
X122657D02*
X123038D01*
X121844D02*
X122606D01*
X123165Y114783D02*
X123292D01*
X121895D02*
X123012D01*
X123139Y114757D02*
X123292D01*
X121971D02*
X123012D01*
X123114Y114732D02*
X123266D01*
X122022D02*
X122987D01*
X122047Y114706D02*
X122961D01*
X123088Y114681D02*
X123673D01*
X122047D02*
X122961D01*
X123063Y114630D02*
X123419D01*
X122072D02*
X122936D01*
X123063Y114605D02*
X123342D01*
X122098D02*
X122936D01*
X123088Y114579D02*
X123266D01*
X122123D02*
X122961D01*
X123088Y114554D02*
X123190D01*
X122123D02*
X122961D01*
X123114Y114529D02*
X123139D01*
X122149D02*
X122987D01*
X123342Y114503D02*
X123800D01*
X122149D02*
X122987D01*
X123266Y114478D02*
X123698D01*
X122174D02*
X123012D01*
X123190Y114452D02*
X123571D01*
X122199D02*
X123038D01*
X123139Y114427D02*
X123469D01*
X122199D02*
X123038D01*
X122199Y114402D02*
X123393D01*
X122199Y114376D02*
X123317D01*
X122225Y114351D02*
X123266D01*
X122276Y114325D02*
X123190D01*
X122377Y114300D02*
X123165D01*
X122479Y114275D02*
X123190D01*
X121971D02*
X122047D01*
X122479Y114249D02*
X123190D01*
X121945D02*
X122072D01*
X122479Y114224D02*
X123215D01*
X121895D02*
X122123D01*
X123038Y114198D02*
X123241D01*
X122479D02*
X122961D01*
X122022D02*
X122149D01*
X121869D02*
X121971D01*
X123114Y114173D02*
X123266D01*
X122479D02*
X122936D01*
X122047D02*
X122174D01*
X123139Y114148D02*
X123292D01*
X122479D02*
X122885D01*
X122072D02*
X122199D01*
X123190Y114122D02*
X123317D01*
X122504D02*
X122885D01*
X122098D02*
X122225D01*
X123266Y114097D02*
X123342D01*
X122504D02*
X122834D01*
X122123D02*
X122276D01*
X123292Y114071D02*
X123342D01*
X122504D02*
X122834D01*
X122149D02*
X122301D01*
X123342Y114046D02*
X123368D01*
X122504D02*
X122809D01*
X122174D02*
X122326D01*
X122504Y114021D02*
X122809D01*
X122199D02*
X122352D01*
X122530Y113995D02*
X122809D01*
X122225D02*
X122377D01*
X122530Y113970D02*
X122809D01*
X122250D02*
X122403D01*
X122504Y113944D02*
X122809D01*
X122276D02*
X122428D01*
X122504Y113919D02*
X122809D01*
X122301D02*
X122453D01*
X122326Y113894D02*
X122809D01*
X122352Y113868D02*
X122809D01*
X122377Y113843D02*
X122784D01*
X122403Y113817D02*
X122784D01*
X122428Y113792D02*
X122784D01*
X122453Y113767D02*
X122758D01*
X122707Y113741D02*
X122758D01*
X122428D02*
X122631D01*
X122428Y113716D02*
X122631D01*
X122403Y113690D02*
X122631D01*
X122403Y113665D02*
X122631D01*
X122403Y113640D02*
X122631D01*
X122403Y113614D02*
X122631D01*
X122403Y113589D02*
X122631D01*
X122403Y113563D02*
X122657D01*
X122403Y113538D02*
X122657D01*
X122403Y113513D02*
X122657D01*
X122403Y113487D02*
X122682D01*
X122403Y113462D02*
X122707D01*
X122403Y113436D02*
X122809D01*
X122403Y113411D02*
X122885D01*
X122657Y113386D02*
X122987D01*
X122428D02*
X122555D01*
X122707Y113360D02*
X123088D01*
X122428D02*
X122580D01*
X122809Y113335D02*
X123190D01*
X122733D02*
X122784D01*
X122885Y113309D02*
X123241D01*
X122987Y113284D02*
X123317D01*
X123088Y113259D02*
X123368D01*
X123165Y113233D02*
X123419D01*
X123215Y113208D02*
X123469D01*
X123292Y113182D02*
X123495D01*
X123342Y113157D02*
X123520D01*
X123393Y113132D02*
X123571D01*
X123419Y113106D02*
X123596D01*
X123469Y113081D02*
X123622D01*
X123495Y113055D02*
X123647D01*
X123241Y112801D02*
X123266D01*
X122580Y111404D02*
X123266D01*
X121844D02*
X122428D01*
X122606Y111379D02*
X123215D01*
X121869D02*
X122377D01*
X122631Y111354D02*
X123190D01*
X121869D02*
X122352D01*
X122657Y111328D02*
X123165D01*
X121869D02*
X122352D01*
X122657Y111303D02*
X123139D01*
X121869D02*
X122326D01*
X122682Y111277D02*
X123139D01*
X121869D02*
X122326D01*
X122682Y111252D02*
X123114D01*
X121869D02*
X122301D01*
X123292Y111227D02*
X123647D01*
X122682D02*
X123114D01*
X122479D02*
X122504D01*
X121869D02*
X122301D01*
X123292Y111201D02*
X123647D01*
X122707D02*
X123114D01*
X122453D02*
X122530D01*
X121869D02*
X122276D01*
X123292Y111176D02*
X123647D01*
X122707D02*
X123114D01*
X122453D02*
X122530D01*
X121869D02*
X122276D01*
X123292Y111150D02*
X123647D01*
X122733D02*
X123114D01*
X122428D02*
X122555D01*
X121869D02*
X122250D01*
X123292Y111125D02*
X123647D01*
X122733D02*
X123114D01*
X122428D02*
X122555D01*
X121869D02*
X122250D01*
X123266Y111100D02*
X123647D01*
X122758D02*
X123114D01*
X122403D02*
X122580D01*
X121869D02*
X122225D01*
X123292Y111074D02*
X123647D01*
X122758D02*
X123114D01*
X122403D02*
X122580D01*
X121869D02*
X122225D01*
X123292Y111049D02*
X123647D01*
X122784D02*
X123114D01*
X122377D02*
X122580D01*
X121869D02*
X122199D01*
X123342Y111023D02*
X123647D01*
X122784D02*
X123114D01*
X122377D02*
X122606D01*
X121869D02*
X122199D01*
X122809Y110998D02*
X123114D01*
X122377D02*
X122606D01*
X121844D02*
X122174D01*
X122809Y110973D02*
X123139D01*
X122352D02*
X122631D01*
X121844D02*
X122174D01*
X122809Y110947D02*
X123139D01*
X122352D02*
X122631D01*
X121818D02*
X122149D01*
X122834Y110922D02*
X123165D01*
X122326D02*
X122657D01*
X121818D02*
X122149D01*
X122834Y110896D02*
X123190D01*
X122326D02*
X122657D01*
X122834Y110871D02*
X123241D01*
X122301D02*
X122657D01*
X122834Y110846D02*
X123317D01*
X122301D02*
X122682D01*
X123622Y110820D02*
X123647D01*
X122834D02*
X123419D01*
X122301D02*
X122682D01*
X123596Y110795D02*
X123647D01*
X122834D02*
X123419D01*
X122301D02*
X122682D01*
X123596Y110769D02*
X123647D01*
X122834D02*
X123393D01*
X122301D02*
X122682D01*
X123571Y110744D02*
X123647D01*
X122834D02*
X123368D01*
X122301D02*
X122657D01*
X123571Y110719D02*
X123647D01*
X122809D02*
X123368D01*
X122326D02*
X122657D01*
X123546Y110693D02*
X123647D01*
X122809D02*
X123342D01*
X122326D02*
X122631D01*
X123520Y110668D02*
X123647D01*
X122809D02*
X123342D01*
X122326D02*
X122631D01*
X123520Y110642D02*
X123647D01*
X122784D02*
X123317D01*
X122352D02*
X122606D01*
X123495Y110617D02*
X123647D01*
X122784D02*
X123292D01*
X122352D02*
X122606D01*
X123469Y110566D02*
X123647D01*
X122758D02*
X123266D01*
X122377D02*
X122580D01*
X123444Y110541D02*
X123647D01*
X122758D02*
X123241D01*
X122377D02*
X122580D01*
X123444Y110515D02*
X123647D01*
X122733D02*
X123241D01*
X122403D02*
X122555D01*
X123419Y110490D02*
X123647D01*
X122733D02*
X123215D01*
X122403D02*
X122555D01*
X123393Y110465D02*
X123647D01*
X122707D02*
X123215D01*
X122428D02*
X122530D01*
X123393Y110439D02*
X123647D01*
X122707D02*
X123190D01*
X122428D02*
X122530D01*
X123368Y110414D02*
X123647D01*
X122707D02*
X123165D01*
X122428D02*
X122504D01*
X123368Y110388D02*
X123647D01*
X122682D02*
X123165D01*
X122453D02*
X122479D01*
X123342Y110363D02*
X123647D01*
X122682D02*
X123139D01*
X123317Y110338D02*
X123647D01*
X122657D02*
X123139D01*
X123317Y110312D02*
X123647D01*
X122657D02*
X123114D01*
X123292Y110287D02*
X123647D01*
X122631D02*
X123114D01*
X123292Y110261D02*
X123647D01*
X122631D02*
X123114D01*
X123266Y110236D02*
X123647D01*
X122606D02*
X123114D01*
X123241Y110211D02*
X123647D01*
X122580D02*
X123114D01*
X123190Y110185D02*
X123698D01*
X122530D02*
X123165D01*
X122174Y107417D02*
X123190D01*
X122225Y107391D02*
X123139D01*
X122276Y107366D02*
X123114D01*
X122301Y107340D02*
X123114D01*
X122326Y107315D02*
X123088D01*
X122377Y107290D02*
X123114D01*
X122428Y107264D02*
X123114D01*
X122453Y107239D02*
X123165D01*
X122479Y107213D02*
X123190D01*
X122885Y106756D02*
X123774D01*
X122936Y106731D02*
X123723D01*
X122987Y106705D02*
X123673D01*
X123063Y106680D02*
X123571D01*
X123190Y106655D02*
X123444D01*
X124206Y115672D02*
X124460D01*
X124155Y115646D02*
X124511D01*
X124104Y115621D02*
X124587D01*
X124104Y115595D02*
X124663D01*
X124409Y115570D02*
X124714D01*
X124079D02*
X124257D01*
X124485Y115545D02*
X124765D01*
X124079D02*
X124206D01*
X124536Y115519D02*
X124790D01*
X124079D02*
X124206D01*
X124587Y115494D02*
X124841D01*
X124308D02*
X124333D01*
X124079D02*
X124206D01*
X124663Y115468D02*
X124892D01*
X124308D02*
X124409D01*
X124079D02*
X124206D01*
X124714Y115443D02*
X124943D01*
X124333D02*
X124485D01*
X124079D02*
X124206D01*
X124739Y115418D02*
X124993D01*
X124358D02*
X124511D01*
X124079D02*
X124206D01*
X124790Y115392D02*
X125019D01*
X124384D02*
X124587D01*
X124079D02*
X124231D01*
X124841Y115367D02*
X125044D01*
X124409D02*
X124612D01*
X124079D02*
X124257D01*
X124841Y115341D02*
X125070D01*
X124435D02*
X124663D01*
X124104D02*
X124257D01*
X125603Y115316D02*
X125832D01*
X124917D02*
X125095D01*
X124435D02*
X124714D01*
X124130D02*
X124282D01*
X125552Y115291D02*
X125781D01*
X124943D02*
X125120D01*
X124485D02*
X124765D01*
X124155D02*
X124308D01*
X125501Y115265D02*
X125755D01*
X124968D02*
X125171D01*
X124511D02*
X124790D01*
X124155D02*
X124333D01*
X125476Y115240D02*
X125705D01*
X124993D02*
X125197D01*
X124536D02*
X124816D01*
X124206D02*
X124358D01*
X125425Y115214D02*
X125679D01*
X125019D02*
X125222D01*
X124562D02*
X124841D01*
X124206D02*
X124409D01*
X125400Y115189D02*
X125603D01*
X125044D02*
X125247D01*
X124587D02*
X124892D01*
X124231D02*
X124409D01*
X125349Y115164D02*
X125578D01*
X125095D02*
X125273D01*
X124612D02*
X124917D01*
X124257D02*
X124435D01*
X125324Y115138D02*
X125527D01*
X125120D02*
X125298D01*
X124638D02*
X124968D01*
X124308D02*
X124485D01*
X125146Y115113D02*
X125501D01*
X124663D02*
X124993D01*
X124308D02*
X124511D01*
X125171Y115087D02*
X125451D01*
X124689D02*
X125019D01*
X124358D02*
X124511D01*
X125197Y115062D02*
X125451D01*
X124689D02*
X125044D01*
X124384D02*
X124562D01*
X125222Y115037D02*
X125400D01*
X124714D02*
X125070D01*
X124409D02*
X124562D01*
X125247Y115011D02*
X125374D01*
X124739D02*
X125095D01*
X124409D02*
X124587D01*
X125273Y114986D02*
X125349D01*
X124765D02*
X125120D01*
X124460D02*
X124612D01*
X125273Y114960D02*
X125324D01*
X124790D02*
X125146D01*
X124460D02*
X124638D01*
X124816Y114935D02*
X125146D01*
X124485D02*
X124663D01*
X124816Y114910D02*
X125171D01*
X124511D02*
X124689D01*
X124841Y114884D02*
X125197D01*
X124536D02*
X124689D01*
X124866Y114859D02*
X125222D01*
X124562D02*
X124714D01*
X124866Y114833D02*
X125247D01*
X124562D02*
X124739D01*
X124892Y114808D02*
X125247D01*
X124587D02*
X124739D01*
X124612Y114783D02*
X124765D01*
X124612Y114757D02*
X124790D01*
X124638Y114732D02*
X124790D01*
X124257Y114681D02*
X124816D01*
X124993Y114630D02*
X125832D01*
X124511D02*
X124841D01*
X124993Y114605D02*
X125832D01*
X124562D02*
X124866D01*
X124968Y114579D02*
X125806D01*
X124663D02*
X124841D01*
X124943Y114554D02*
X125781D01*
X124714D02*
X124816D01*
X124943Y114529D02*
X125781D01*
X124917Y114503D02*
X125755D01*
X124130D02*
X124587D01*
X124917Y114478D02*
X125755D01*
X124231D02*
X124663D01*
X124892Y114452D02*
X125730D01*
X124358D02*
X124714D01*
X124866Y114427D02*
X125730D01*
X124460D02*
X124790D01*
X124511Y114402D02*
X125730D01*
X124612Y114376D02*
X125730D01*
X124663Y114351D02*
X125705D01*
X124714Y114325D02*
X125628D01*
X124739Y114300D02*
X125552D01*
X124739Y114275D02*
X125451D01*
X124714Y114249D02*
X125451D01*
X124714Y114224D02*
X125451D01*
X124943Y114198D02*
X125451D01*
X124663D02*
X124866D01*
X124993Y114173D02*
X125451D01*
X124638D02*
X124816D01*
X125019Y114148D02*
X125451D01*
X124638D02*
X124765D01*
X125679Y114122D02*
X125832D01*
X125044D02*
X125425D01*
X124612D02*
X124714D01*
X125654Y114097D02*
X125806D01*
X125070D02*
X125425D01*
X124587D02*
X124663D01*
X125628Y114071D02*
X125781D01*
X125095D02*
X125425D01*
X124562D02*
X124638D01*
X125603Y114046D02*
X125755D01*
X125120D02*
X125425D01*
X124536D02*
X124587D01*
X125578Y114021D02*
X125730D01*
X125120D02*
X125400D01*
X125552Y113995D02*
X125705D01*
X125120D02*
X125400D01*
X125527Y113970D02*
X125679D01*
X125120D02*
X125400D01*
X125501Y113944D02*
X125628D01*
X125120D02*
X125425D01*
X125476Y113919D02*
X125628D01*
X125120D02*
X125425D01*
X125120Y113894D02*
X125603D01*
X125120Y113868D02*
X125578D01*
X125120Y113843D02*
X125552D01*
X125120Y113817D02*
X125527D01*
X125120Y113792D02*
X125501D01*
X125146Y113767D02*
X125476D01*
X125298Y113741D02*
X125476D01*
X125171D02*
X125222D01*
X125298Y113716D02*
X125501D01*
X125298Y113690D02*
X125501D01*
X125273Y113665D02*
X125501D01*
X125273Y113640D02*
X125501D01*
X125273Y113614D02*
X125501D01*
X125273Y113589D02*
X125501D01*
X125273Y113563D02*
X125501D01*
X125273Y113538D02*
X125501D01*
X125247Y113513D02*
X125501D01*
X125222Y113487D02*
X125527D01*
X125171Y113462D02*
X125527D01*
X125120Y113436D02*
X125501D01*
X125349Y113411D02*
X125501D01*
X125044D02*
X125273D01*
X125374Y113386D02*
X125501D01*
X124943D02*
X125222D01*
X125349Y113360D02*
X125501D01*
X124841D02*
X125171D01*
X124739Y113335D02*
X125095D01*
X124689Y113309D02*
X125019D01*
X124612Y113284D02*
X124917D01*
X124536Y113259D02*
X124790D01*
X124511Y113233D02*
X124739D01*
X124460Y113208D02*
X124689D01*
X124409Y113182D02*
X124638D01*
X124384Y113157D02*
X124612D01*
X123952D02*
X123977D01*
X124358Y113132D02*
X124536D01*
X123901D02*
X124028D01*
X124308Y113106D02*
X124511D01*
X123850D02*
X124079D01*
X124282Y113081D02*
X124460D01*
X124282Y113055D02*
X124435D01*
X124511Y111049D02*
X125349D01*
X124612Y111023D02*
X125247D01*
X124638Y110998D02*
X125197D01*
X124663Y110973D02*
X125171D01*
X124689Y110947D02*
X125146D01*
X124714Y110922D02*
X125120D01*
X124739Y110896D02*
X125095D01*
X125324Y110871D02*
X125476D01*
X124765D02*
X125095D01*
X124358D02*
X124511D01*
X125273Y110846D02*
X125552D01*
X124765D02*
X125095D01*
X124308D02*
X124562D01*
X125247Y110820D02*
X125578D01*
X124765D02*
X125070D01*
X124282D02*
X124587D01*
X125247Y110795D02*
X125578D01*
X124765D02*
X125070D01*
X124257D02*
X124612D01*
X125247Y110769D02*
X125578D01*
X124765D02*
X125070D01*
X124257D02*
X124612D01*
X125247Y110744D02*
X125578D01*
X124765D02*
X125070D01*
X124257D02*
X124612D01*
X125247Y110719D02*
X125578D01*
X124765D02*
X125070D01*
X124257D02*
X124612D01*
X125247Y110693D02*
X125603D01*
X124765D02*
X125070D01*
X124257D02*
X124612D01*
X124765Y110668D02*
X125070D01*
X124765Y110642D02*
X125070D01*
X124765Y110617D02*
X125070D01*
X124765Y110566D02*
X125095D01*
X124765Y110541D02*
X125095D01*
X124765Y110515D02*
X125120D01*
X124765Y110490D02*
X125578D01*
X124765Y110465D02*
X125603D01*
X124765Y110439D02*
X125578D01*
X124765Y110414D02*
X125578D01*
X124765Y110388D02*
X125552D01*
X124765Y110363D02*
X125476D01*
X124739Y110338D02*
X125120D01*
X124739Y110312D02*
X125095D01*
X124714Y110287D02*
X125095D01*
X124689Y110261D02*
X125095D01*
X124663Y110236D02*
X125095D01*
X124638Y110211D02*
X125120D01*
X124587Y110185D02*
X125146D01*
X127178Y115672D02*
X127483D01*
X126898Y115646D02*
X127660D01*
X126721Y115621D02*
X127737D01*
X126568D02*
X126695D01*
X126390Y115595D02*
X127762D01*
X126289Y115570D02*
X127787D01*
X127635Y115545D02*
X127787D01*
X126136D02*
X126949D01*
X127660Y115519D02*
X127787D01*
X126035D02*
X126771D01*
X127686Y115494D02*
X127813D01*
X125959D02*
X126594D01*
X127686Y115468D02*
X127813D01*
X127000D02*
X127559D01*
X125882D02*
X126390D01*
X127686Y115443D02*
X127813D01*
X126695D02*
X127584D01*
X127686Y115418D02*
X127813D01*
X127483D02*
X127559D01*
X127229D02*
X127381D01*
X126594D02*
X126898D01*
X127686Y115392D02*
X127813D01*
X127483D02*
X127559D01*
X127203D02*
X127330D01*
X126416D02*
X126797D01*
X127660Y115367D02*
X127813D01*
X127457D02*
X127533D01*
X127178D02*
X127305D01*
X126289D02*
X126797D01*
X127660Y115341D02*
X127813D01*
X127457D02*
X127508D01*
X127127D02*
X127254D01*
X126162D02*
X126771D01*
X127635Y115316D02*
X127787D01*
X127432D02*
X127508D01*
X127102D02*
X127229D01*
X126086D02*
X126771D01*
X127635Y115291D02*
X127762D01*
X127406D02*
X127483D01*
X127076D02*
X127178D01*
X126009D02*
X126746D01*
X127610Y115265D02*
X127762D01*
X127381D02*
X127457D01*
X127051D02*
X127152D01*
X125959D02*
X126721D01*
X127584Y115240D02*
X127737D01*
X127381D02*
X127457D01*
X127000D02*
X127127D01*
X125908D02*
X126721D01*
X127559Y115214D02*
X127737D01*
X127356D02*
X127432D01*
X126975D02*
X127102D01*
X127533Y115189D02*
X127711D01*
X127330D02*
X127406D01*
X126949D02*
X127051D01*
X127533Y115164D02*
X127686D01*
X127305D02*
X127406D01*
X126924D02*
X127025D01*
X127508Y115138D02*
X127660D01*
X127279D02*
X127381D01*
X126898D02*
X127000D01*
X127508Y115113D02*
X127660D01*
X127279D02*
X127356D01*
X126873D02*
X126975D01*
X127483Y115087D02*
X127635D01*
X127254D02*
X127330D01*
X126848D02*
X126949D01*
X127483Y115062D02*
X127635D01*
X127229D02*
X127330D01*
X126822D02*
X126924D01*
X127457Y115037D02*
X127610D01*
X127203D02*
X127305D01*
X126797D02*
X126898D01*
X127432Y115011D02*
X127610D01*
X127178D02*
X127279D01*
X126771D02*
X126873D01*
X126517D02*
X126594D01*
X127406Y114986D02*
X127584D01*
X127152D02*
X127254D01*
X126746D02*
X126848D01*
X126543D02*
X126644D01*
X127406Y114960D02*
X127559D01*
X127127D02*
X127229D01*
X126721D02*
X126822D01*
X126594D02*
X126670D01*
X127356Y114935D02*
X127533D01*
X127102D02*
X127203D01*
X126619D02*
X126797D01*
X127330Y114910D02*
X127508D01*
X127076D02*
X127203D01*
X126670D02*
X126771D01*
X127305Y114884D02*
X127508D01*
X127051D02*
X127152D01*
X126695D02*
X126721D01*
X127305Y114859D02*
X127457D01*
X127025D02*
X127152D01*
X127279Y114833D02*
X127457D01*
X127000D02*
X127102D01*
X127254Y114808D02*
X127432D01*
X126975D02*
X127102D01*
X127229Y114783D02*
X127406D01*
X126949D02*
X127076D01*
X127203Y114757D02*
X127381D01*
X126924D02*
X127051D01*
X127178Y114732D02*
X127356D01*
X126898D02*
X127025D01*
X127152Y114706D02*
X127330D01*
X126873D02*
X127000D01*
X127127Y114681D02*
X127305D01*
X126848D02*
X126975D01*
X127076Y114630D02*
X127254D01*
X126797D02*
X126898D01*
X127051Y114605D02*
X127229D01*
X126746D02*
X126898D01*
X127025Y114579D02*
X127203D01*
X126721D02*
X126848D01*
X126975Y114554D02*
X127178D01*
X126695D02*
X126822D01*
X126949Y114529D02*
X127152D01*
X126670D02*
X126797D01*
X126924Y114503D02*
X127152D01*
X126644D02*
X126771D01*
X126924Y114478D02*
X127102D01*
X126594D02*
X126746D01*
X126873Y114452D02*
X127076D01*
X126568D02*
X126695D01*
X126848Y114427D02*
X127051D01*
X126517D02*
X126670D01*
X126797Y114402D02*
X127025D01*
X126492D02*
X126619D01*
X126771Y114376D02*
X126975D01*
X126467D02*
X126594D01*
X126746Y114351D02*
X126949D01*
X126416D02*
X126568D01*
X126721Y114325D02*
X126924D01*
X126390D02*
X126517D01*
X126670Y114300D02*
X126873D01*
X126340D02*
X126492D01*
X126644Y114275D02*
X126848D01*
X126314D02*
X126441D01*
X125882D02*
X125933D01*
X126594Y114249D02*
X126822D01*
X126263D02*
X126416D01*
X126568Y114224D02*
X126797D01*
X126213D02*
X126365D01*
X126543Y114198D02*
X126771D01*
X126187D02*
X126340D01*
X125959D02*
X126060D01*
X126492Y114173D02*
X126721D01*
X125984D02*
X126289D01*
X126441Y114148D02*
X126695D01*
X126035D02*
X126263D01*
X126416Y114122D02*
X126670D01*
X126060D02*
X126213D01*
X126365Y114097D02*
X126670D01*
X126086D02*
X126213D01*
X126949Y114071D02*
X127254D01*
X126365D02*
X126721D01*
X126136D02*
X126213D01*
X126416Y114046D02*
X127381D01*
X126162D02*
X126238D01*
X126416Y114021D02*
X127483D01*
X126187D02*
X126289D01*
X126467Y113995D02*
X127533D01*
X126213D02*
X126314D01*
X126670Y113970D02*
X127610D01*
X126238D02*
X126314D01*
X126695Y113944D02*
X127635D01*
X126263D02*
X126365D01*
X126517Y113919D02*
X126543D01*
X126289D02*
X126390D01*
X126314Y113894D02*
X126568D01*
X126340Y113843D02*
X127838D01*
X126314Y113817D02*
X127787D01*
X126289Y113792D02*
X127737D01*
X126238Y113767D02*
X127660D01*
X126187Y113741D02*
X127660D01*
X126136Y113716D02*
X127711D01*
X126060Y113665D02*
X127838D01*
X126009Y113640D02*
X127813D01*
X125959Y113614D02*
X127813D01*
X125908Y113589D02*
X127838D01*
X125882Y113563D02*
X127864D01*
X127432Y112243D02*
X127686D01*
X127356Y112217D02*
X127660D01*
X126390D02*
X127330D01*
X126441Y112192D02*
X127610D01*
X126517Y112166D02*
X127559D01*
X126644Y112141D02*
X127533D01*
X126746Y112116D02*
X127483D01*
X126746Y112090D02*
X127432D01*
X126746Y112065D02*
X127356D01*
X126746Y112039D02*
X127279D01*
X126771Y112014D02*
X127178D01*
X126797Y111989D02*
X127102D01*
X126822Y111963D02*
X127229D01*
X126695Y111404D02*
X127584D01*
X126721Y111379D02*
X127584D01*
X126721Y111354D02*
X127584D01*
X126721Y111328D02*
X127660D01*
X126721Y111303D02*
X127711D01*
X126721Y111277D02*
X127737D01*
X126721Y111252D02*
X127762D01*
X126721Y111227D02*
X127787D01*
X126263D02*
X126543D01*
X126721Y111201D02*
X127813D01*
X126213D02*
X126543D01*
X126721Y111176D02*
X127838D01*
X126213D02*
X126543D01*
X126721Y111150D02*
X127864D01*
X126213D02*
X126568D01*
X126721Y111125D02*
X127864D01*
X126187D02*
X126568D01*
X126187Y111100D02*
X126568D01*
X126187Y111074D02*
X126568D01*
X126187Y111049D02*
X126568D01*
X126187Y111023D02*
X126568D01*
X126213Y110998D02*
X126568D01*
X126213Y110973D02*
X126568D01*
X126213Y110947D02*
X126568D01*
X126238Y110922D02*
X126568D01*
X126314Y110896D02*
X126568D01*
X126263Y110693D02*
X126568D01*
X126238Y110668D02*
X126568D01*
X126213Y110642D02*
X126568D01*
X126213Y110617D02*
X126568D01*
X126213Y110566D02*
X126568D01*
X126213Y110541D02*
X126594D01*
X126213Y110515D02*
X126594D01*
X126746Y110490D02*
X127864D01*
X126213D02*
X126594D01*
X126746Y110465D02*
X127864D01*
X126213D02*
X126594D01*
X126746Y110439D02*
X127838D01*
X126238D02*
X126594D01*
X126746Y110414D02*
X127787D01*
X126238D02*
X126594D01*
X126746Y110388D02*
X127762D01*
X126263D02*
X126594D01*
X126746Y110363D02*
X127711D01*
X126771Y110338D02*
X127686D01*
X126771Y110312D02*
X127660D01*
X126771Y110287D02*
X127660D01*
X126771Y110261D02*
X127660D01*
X126771Y110236D02*
X127660D01*
X126771Y110211D02*
X127660D01*
X126746Y110185D02*
X127660D01*
X128651Y114224D02*
X129032D01*
X128524Y114198D02*
X129083D01*
X128397Y114173D02*
X129083D01*
X128321Y114148D02*
X129108D01*
X128956Y114122D02*
X129108D01*
X128219D02*
X128753D01*
X129007Y114097D02*
X129134D01*
X128143D02*
X128702D01*
X129007Y114071D02*
X129134D01*
X128041D02*
X128549D01*
X129007Y114046D02*
X129134D01*
X128829D02*
X128905D01*
X128016D02*
X128448D01*
X129007Y114021D02*
X129134D01*
X128702D02*
X128905D01*
X127965D02*
X128321D01*
X129007Y113995D02*
X129134D01*
X128600D02*
X128880D01*
X129007Y113970D02*
X129134D01*
X128448D02*
X128880D01*
X129007Y113944D02*
X129134D01*
X128778D02*
X128854D01*
X128321D02*
X128651D01*
X128981Y113919D02*
X129134D01*
X128778D02*
X128854D01*
X128295D02*
X128600D01*
X128956Y113894D02*
X129134D01*
X128753D02*
X128829D01*
X128448D02*
X128549D01*
X128219D02*
X128397D01*
X128956Y113868D02*
X129108D01*
X128753D02*
X128829D01*
X128448D02*
X128524D01*
X128194D02*
X128346D01*
X128930Y113843D02*
X129108D01*
X128727D02*
X128803D01*
X128473D02*
X128524D01*
X128118D02*
X128295D01*
X128930Y113817D02*
X129083D01*
X128727D02*
X128803D01*
X128473D02*
X128524D01*
X128067D02*
X128295D01*
X128905Y113792D02*
X129083D01*
X128702D02*
X128778D01*
X128473D02*
X128549D01*
X128219D02*
X128295D01*
X128016D02*
X128168D01*
X128905Y113767D02*
X129057D01*
X128676D02*
X128778D01*
X128473D02*
X128549D01*
X128219D02*
X128295D01*
X127940D02*
X128143D01*
X128905Y113741D02*
X129057D01*
X128676D02*
X128753D01*
X128473D02*
X128549D01*
X128219D02*
X128295D01*
X128880Y113716D02*
X129032D01*
X128651D02*
X128753D01*
X128473D02*
X128549D01*
X128245D02*
X128321D01*
X128880Y113690D02*
X129032D01*
X128651D02*
X128727D01*
X128473D02*
X128549D01*
X128245D02*
X128321D01*
X128016D02*
X128092D01*
X128854Y113665D02*
X129007D01*
X128626D02*
X128727D01*
X128473D02*
X128549D01*
X128245D02*
X128321D01*
X128016D02*
X128092D01*
X128829Y113640D02*
X129007D01*
X128600D02*
X128702D01*
X128473D02*
X128575D01*
X128245D02*
X128321D01*
X128041D02*
X128118D01*
X128829Y113614D02*
X128981D01*
X128600D02*
X128702D01*
X128473D02*
X128549D01*
X128245D02*
X128321D01*
X128041D02*
X128118D01*
X128803Y113589D02*
X128956D01*
X128473D02*
X128676D01*
X128245D02*
X128321D01*
X128041D02*
X128118D01*
X128778Y113563D02*
X128956D01*
X128448D02*
X128651D01*
X128245D02*
X128321D01*
X128041D02*
X128118D01*
X128778Y113538D02*
X128930D01*
X128397D02*
X128651D01*
X128245D02*
X128321D01*
X128041D02*
X128118D01*
X128753Y113513D02*
X128905D01*
X128245D02*
X128600D01*
X128041D02*
X128118D01*
X128727Y113487D02*
X128905D01*
X128499D02*
X128600D01*
X128245D02*
X128448D01*
X128041D02*
X128118D01*
X128727Y113462D02*
X128880D01*
X128499D02*
X128575D01*
X128219D02*
X128397D01*
X128041D02*
X128118D01*
X128702Y113436D02*
X128880D01*
X128473D02*
X128575D01*
X128168D02*
X128346D01*
X128041D02*
X128143D01*
X128702Y113411D02*
X128854D01*
X128448D02*
X128549D01*
X128041D02*
X128270D01*
X128676Y113386D02*
X128854D01*
X128422D02*
X128524D01*
X128041D02*
X128219D01*
X128651Y113360D02*
X128829D01*
X128422D02*
X128524D01*
X128626Y113335D02*
X128829D01*
X128397D02*
X128499D01*
X128626Y113309D02*
X128778D01*
X128372D02*
X128473D01*
X128600Y113284D02*
X128778D01*
X128346D02*
X128448D01*
X128600Y113259D02*
X128753D01*
X128321D02*
X128422D01*
X128575Y113233D02*
X128727D01*
X128295D02*
X128422D01*
X128549Y113208D02*
X128727D01*
X128295D02*
X128397D01*
X128524Y113182D02*
X128702D01*
X128270D02*
X128372D01*
X128524Y113157D02*
X128702D01*
X128245D02*
X128346D01*
X128473Y113132D02*
X128651D01*
X128219D02*
X128321D01*
X128473Y113106D02*
X128651D01*
X128194D02*
X128295D01*
X128448Y113081D02*
X128626D01*
X128168D02*
X128270D01*
X128422Y113055D02*
X128600D01*
X128143D02*
X128245D01*
X128397Y113030D02*
X128575D01*
X128118D02*
X128219D01*
X128372Y113005D02*
X128575D01*
X128092D02*
X128194D01*
X128346Y112979D02*
X128524D01*
X128067D02*
X128168D01*
X128321Y112954D02*
X128499D01*
X128041D02*
X128143D01*
X128270Y112928D02*
X128473D01*
X128245Y112903D02*
X128448D01*
X128219Y112878D02*
X128448D01*
X128194Y112852D02*
X128397D01*
X128194Y112827D02*
X128372D01*
X128168Y112801D02*
X128346D01*
X128118Y112776D02*
X128321D01*
X128092Y112751D02*
X128295D01*
X128092Y112725D02*
X128295D01*
X128016Y112700D02*
X128245D01*
X127991Y112674D02*
X128219D01*
X127965Y112649D02*
X128194D01*
X127914Y112598D02*
X128118D01*
D30*
X127635Y72517D02*
X126635D01*
Y72017D01*
X126802Y71851D01*
X127135D01*
X127302Y72017D01*
Y72517D01*
X126635Y71017D02*
Y71351D01*
X126802Y71517D01*
X127468D01*
X127635Y71351D01*
Y71017D01*
X127468Y70851D01*
X126802D01*
X126635Y71017D01*
Y70518D02*
X127635D01*
X127302Y70184D01*
X127635Y69851D01*
X126635D01*
Y68852D02*
Y69518D01*
X127635D01*
Y68852D01*
X127135Y69518D02*
Y69185D01*
X127635Y68518D02*
X126635D01*
Y68018D01*
X126802Y67852D01*
X127135D01*
X127302Y68018D01*
Y68518D01*
Y68185D02*
X127635Y67852D01*
X126635Y66519D02*
Y66186D01*
Y66352D01*
X127635D01*
Y66519D01*
Y66186D01*
Y65686D02*
X126635D01*
X127635Y65019D01*
X126635D01*
X106497Y108235D02*
X106664Y108069D01*
Y107736D01*
X106497Y107569D01*
X106330D01*
X106164Y107736D01*
Y108069D01*
X105997Y108235D01*
X105831D01*
X105664Y108069D01*
Y107736D01*
X105831Y107569D01*
X106164Y108569D02*
Y109235D01*
X106664Y110235D02*
Y109568D01*
X106164D01*
X106330Y109902D01*
Y110068D01*
X106164Y110235D01*
X105831D01*
X105664Y110068D01*
Y109735D01*
X105831Y109568D01*
X106664Y110568D02*
X105997D01*
X105664Y110901D01*
X105997Y111234D01*
X106664D01*
X106164Y111568D02*
Y112234D01*
X106497Y113234D02*
X106664Y113067D01*
Y112734D01*
X106497Y112567D01*
X105831D01*
X105664Y112734D01*
Y113067D01*
X105831Y113234D01*
X106164D01*
Y112901D01*
X105664Y113567D02*
X106664D01*
X105664Y114234D01*
X106664D01*
Y114567D02*
X105664D01*
Y115067D01*
X105831Y115233D01*
X106497D01*
X106664Y115067D01*
Y114567D01*
X56134Y66421D02*
X57134D01*
Y66921D01*
X56967Y67087D01*
X56634D01*
X56467Y66921D01*
Y66421D01*
X57134Y67921D02*
Y67587D01*
X56967Y67421D01*
X56301D01*
X56134Y67587D01*
Y67921D01*
X56301Y68087D01*
X56967D01*
X57134Y67921D01*
Y68420D02*
X56134D01*
X56467Y68754D01*
X56134Y69087D01*
X57134D01*
Y70086D02*
Y69420D01*
X56134D01*
Y70086D01*
X56634Y69420D02*
Y69753D01*
X56134Y70420D02*
X57134D01*
Y70920D01*
X56967Y71086D01*
X56634D01*
X56467Y70920D01*
Y70420D01*
Y70753D02*
X56134Y71086D01*
X57134Y72419D02*
Y72752D01*
Y72586D01*
X56134D01*
Y72419D01*
Y72752D01*
Y73252D02*
X57134D01*
X56134Y73919D01*
X57134D01*
X79344Y113863D02*
X79510Y114030D01*
X79843D01*
X80010Y113863D01*
Y113696D01*
X79843Y113530D01*
X79510D01*
X79344Y113363D01*
Y113197D01*
X79510Y113030D01*
X79843D01*
X80010Y113197D01*
X78344Y114030D02*
X79010D01*
Y113030D01*
X78344D01*
X79010Y113530D02*
X78677D01*
X78011Y113030D02*
Y114030D01*
X77511D01*
X77344Y113863D01*
Y113530D01*
X77511Y113363D01*
X78011D01*
X77677D02*
X77344Y113030D01*
X77011Y114030D02*
Y113363D01*
X76678Y113030D01*
X76345Y113363D01*
Y114030D01*
X75511D02*
X75845D01*
X76011Y113863D01*
Y113197D01*
X75845Y113030D01*
X75511D01*
X75345Y113197D01*
Y113863D01*
X75511Y114030D01*
X74012D02*
X73679D01*
X73845D01*
Y113030D01*
X74012D01*
X73679D01*
X73179D02*
Y114030D01*
X72512Y113030D01*
Y114030D01*
X114117Y63912D02*
X114284Y63746D01*
Y63413D01*
X114117Y63246D01*
X113950D01*
X113784Y63413D01*
Y63746D01*
X113617Y63912D01*
X113451D01*
X113284Y63746D01*
Y63413D01*
X113451Y63246D01*
X113784Y64246D02*
Y64912D01*
X114117Y65912D02*
X114284Y65745D01*
Y65412D01*
X114117Y65245D01*
X113950D01*
X113784Y65412D01*
Y65745D01*
X113617Y65912D01*
X113451D01*
X113284Y65745D01*
Y65412D01*
X113451Y65245D01*
X113784Y66245D02*
Y66911D01*
X114117Y67911D02*
X114284Y67745D01*
Y67411D01*
X114117Y67245D01*
X113451D01*
X113284Y67411D01*
Y67745D01*
X113451Y67911D01*
X113784D01*
Y67578D01*
X113284Y68244D02*
X114284D01*
X113284Y68911D01*
X114284D01*
Y69244D02*
X113284D01*
Y69744D01*
X113451Y69911D01*
X114117D01*
X114284Y69744D01*
Y69244D01*
X113784Y70244D02*
Y70910D01*
X114284Y71910D02*
Y71243D01*
X113784D01*
X113950Y71577D01*
Y71743D01*
X113784Y71910D01*
X113451D01*
X113284Y71743D01*
Y71410D01*
X113451Y71243D01*
X114284Y72243D02*
X113617D01*
X113284Y72576D01*
X113617Y72910D01*
X114284D01*
X59253Y94265D02*
X59420Y94099D01*
Y93766D01*
X59253Y93599D01*
X59086D01*
X58920Y93766D01*
Y94099D01*
X58753Y94265D01*
X58587D01*
X58420Y94099D01*
Y93766D01*
X58587Y93599D01*
X58920Y94599D02*
Y95265D01*
X59420Y96265D02*
Y95598D01*
X58920D01*
X59086Y95932D01*
Y96098D01*
X58920Y96265D01*
X58587D01*
X58420Y96098D01*
Y95765D01*
X58587Y95598D01*
X59420Y96598D02*
X58753D01*
X58420Y96931D01*
X58753Y97264D01*
X59420D01*
X58920Y97598D02*
Y98264D01*
X59253Y99264D02*
X59420Y99097D01*
Y98764D01*
X59253Y98597D01*
X58587D01*
X58420Y98764D01*
Y99097D01*
X58587Y99264D01*
X58920D01*
Y98931D01*
X58420Y99597D02*
X59420D01*
X58420Y100264D01*
X59420D01*
Y100597D02*
X58420D01*
Y101097D01*
X58587Y101263D01*
X59253D01*
X59420Y101097D01*
Y100597D01*
D31*
X66548Y114554D02*
X66040D01*
X66294D01*
Y113030D01*
X66548D01*
X66040D01*
X65278Y114554D02*
X64263D01*
X64771D01*
Y113030D01*
X63755Y114554D02*
Y113284D01*
X63501Y113030D01*
X62993D01*
X62739Y113284D01*
Y114554D01*
X60708Y113030D02*
Y114554D01*
X59946D01*
X59692Y114300D01*
Y113792D01*
X59946Y113538D01*
X60708D01*
X60200D02*
X59692Y113030D01*
X58423Y114554D02*
X58930D01*
X59184Y114300D01*
Y113284D01*
X58930Y113030D01*
X58423D01*
X58169Y113284D01*
Y114300D01*
X58423Y114554D01*
X57661D02*
Y113538D01*
X57153Y113030D01*
X56645Y113538D01*
Y114554D01*
X93853Y75160D02*
X93353D01*
X93603D01*
Y73660D01*
X93853D01*
X93353D01*
X92603Y75160D02*
X91604D01*
X92104D01*
Y73660D01*
X91104Y75160D02*
Y73910D01*
X90854Y73660D01*
X90354D01*
X90104Y73910D01*
Y75160D01*
X88105Y73660D02*
Y75160D01*
X87355D01*
X87105Y74910D01*
Y74410D01*
X87355Y74160D01*
X88105D01*
X87605D02*
X87105Y73660D01*
X85856Y75160D02*
X86355D01*
X86605Y74910D01*
Y73910D01*
X86355Y73660D01*
X85856D01*
X85606Y73910D01*
Y74910D01*
X85856Y75160D01*
X85106D02*
Y74160D01*
X84606Y73660D01*
X84106Y74160D01*
Y75160D01*
X100981Y72874D02*
X101981D01*
Y71374D01*
X100981D01*
X101981Y72124D02*
X101481D01*
X100481Y71374D02*
X99982D01*
X100232D01*
Y72874D01*
X100481D01*
X98482Y71374D02*
X98982D01*
X99232Y71624D01*
Y72124D01*
X98982Y72374D01*
X98482D01*
X98232Y72124D01*
Y71874D01*
X99232D01*
X96733Y72374D02*
X97482D01*
X97732Y72124D01*
Y71624D01*
X97482Y71374D01*
X96733D01*
X95983Y72624D02*
Y72374D01*
X96233D01*
X95733D01*
X95983D01*
Y71624D01*
X95733Y71374D01*
X94983Y72374D02*
Y71374D01*
Y71874D01*
X94733Y72124D01*
X94483Y72374D01*
X94234D01*
X93234Y71374D02*
X92734D01*
X92484Y71624D01*
Y72124D01*
X92734Y72374D01*
X93234D01*
X93484Y72124D01*
Y71624D01*
X93234Y71374D01*
X91984D02*
Y72374D01*
X91234D01*
X90985Y72124D01*
Y71374D01*
X90485D02*
X89985D01*
X90235D01*
Y72374D01*
X90485D01*
X88235D02*
X88985D01*
X89235Y72124D01*
Y71624D01*
X88985Y71374D01*
X88235D01*
X85236Y72624D02*
X85486Y72874D01*
X85986D01*
X86236Y72624D01*
Y72374D01*
X85986Y72124D01*
X85486D01*
X85236Y71874D01*
Y71624D01*
X85486Y71374D01*
X85986D01*
X86236Y71624D01*
X84737Y72374D02*
Y71624D01*
X84487Y71374D01*
X83737D01*
Y71124D01*
X83987Y70874D01*
X84237D01*
X83737Y71374D02*
Y72374D01*
X83237Y71374D02*
X82487D01*
X82237Y71624D01*
X82487Y71874D01*
X82987D01*
X83237Y72124D01*
X82987Y72374D01*
X82237D01*
X81488Y72624D02*
Y72374D01*
X81738D01*
X81238D01*
X81488D01*
Y71624D01*
X81238Y71374D01*
X79738D02*
X80238D01*
X80488Y71624D01*
Y72124D01*
X80238Y72374D01*
X79738D01*
X79488Y72124D01*
Y71874D01*
X80488D01*
X78988Y71374D02*
Y72374D01*
X78739D01*
X78489Y72124D01*
Y71374D01*
Y72124D01*
X78239Y72374D01*
X77989Y72124D01*
Y71374D01*
X77489D02*
X76739D01*
X76489Y71624D01*
X76739Y71874D01*
X77239D01*
X77489Y72124D01*
X77239Y72374D01*
X76489D01*
M02*
