M48
;Layer_Color=9474304
;FILE_FORMAT=4:2
METRIC
;TYPE=PLATED
T1F00S00C0.71
T2F00S00C0.76
T3F00S00C0.90
T4F00S00C3.00
%
T01
X006845Y008090
X008979Y009385
X009207Y009563
X010071Y008560
T02
X008433Y010795
X008687
X008941
X009195
X009449
X009703
X009957
X010211
Y011049
X009957
X009703
X009449
X009195
X008941
X008687
X008433
Y011303
X008687
X008941
X009195
X009449
X009703
X009957
X010211
T03
X012154Y005194
X012408
X012662
X012357Y006883
Y007137
X010986
Y006883
Y006629
Y006375
X010909Y005906
X011163
X011417
Y005651
X011163
X010909
X010655
Y005906
X010401
Y005651
X010147
Y005906
X009893
Y005651
X009639
Y005906
X009385
Y005651
X009131
Y005906
X008877
Y005651
X008623
Y005906
X008369
Y005651
X008115
Y005906
X007988Y005194
X008420
X008674
X008928
X009360
X009614
X009868
X010300
X010554
X010808
X011239
X011493
X011747
X010414Y006375
Y006629
Y006883
Y007137
Y007582
Y007836
X007366
Y007582
Y007137
Y006883
Y006629
Y006375
X007353Y005906
X007607
X007861
Y005651
X007607
X007353
X007099
Y005906
X006845
Y005651
X006591
Y005906
X006540Y005194
X006794
X007049
X007480
X007734
X006198
X005944
X005690
X006096Y006909
Y007163
X005893Y007849
Y008103
Y008357
Y008661
Y008915
Y009169
X006896Y008852
X007150
X007404
X007658
X007912
X007366Y008344
Y008090
X007404Y010376
X007658
X007912
X007150
X006896
X007544Y011049
X007798
X008166Y010376
X008420
X008674
X008928
X009690
X009944
X010198
X010452
Y008852
X010198
X009944
X009690
X009436
X009182
X008928
X008674
X008420
X008166
X010414Y008344
Y008090
X012510Y008293
Y008547
Y008801
Y009055
Y009309
Y009563
Y009817
Y010071
T04
X011904Y005778
X006105
Y010679
X011904
X011316Y009944
Y008420
M30
