G04 Layer_Color=65535*
%FSLAX43Y43*%
%MOMM*%
G71*
G01*
G75*
%ADD11C,0.500*%
%ADD13C,1.270*%
%ADD20C,0.200*%
%ADD21C,0.203*%
D11*
X65151Y87122D02*
Y105029D01*
X108331D01*
Y87122D02*
Y105029D01*
X65151Y87122D02*
X108331D01*
X83058Y106426D02*
X103886D01*
X83058D02*
Y114300D01*
X103886D01*
Y106426D02*
Y114300D01*
D13*
X54483Y49403D02*
Y116840D01*
Y49403D02*
X130302D01*
Y116840D01*
X54483D02*
X130302D01*
D20*
X108585Y62484D02*
X111125D01*
X108585D02*
Y72644D01*
X111125Y62484D02*
Y72644D01*
X108585D02*
X111125D01*
X102870Y74549D02*
X105410D01*
X102870D02*
Y84709D01*
X105410Y74549D02*
Y84709D01*
X102870D02*
X105410D01*
X73533Y50673D02*
Y53213D01*
X81153D01*
Y50673D02*
Y53213D01*
X73533Y50673D02*
X81153D01*
X102870Y62484D02*
X105410D01*
X102870D02*
Y72644D01*
X105410Y62484D02*
Y72644D01*
X102870D02*
X105410D01*
X111125Y50673D02*
Y53213D01*
X118745D01*
Y50673D02*
Y53213D01*
X111125Y50673D02*
X118745D01*
X101727D02*
Y53213D01*
X109347D01*
Y50673D02*
Y53213D01*
X101727Y50673D02*
X109347D01*
X92329D02*
Y53213D01*
X99949D01*
Y50673D02*
Y53213D01*
X92329Y50673D02*
X99949D01*
X82931D02*
Y53213D01*
X90551D01*
Y50673D02*
Y53213D01*
X82931Y50673D02*
X90551D01*
X64135D02*
Y53213D01*
X71755D01*
Y50673D02*
Y53213D01*
X64135Y50673D02*
X71755D01*
X120269D02*
X127889D01*
Y53213D01*
X120269D02*
X127889D01*
X120269Y50673D02*
Y53213D01*
X74168Y109220D02*
Y111760D01*
X79248D01*
Y109220D02*
Y111760D01*
X74168Y109220D02*
X79248D01*
X115443Y55245D02*
Y60325D01*
X64643Y55245D02*
Y60325D01*
X115443D01*
X64643Y55245D02*
X115443D01*
X55626Y50673D02*
Y53213D01*
X63246D01*
Y50673D02*
Y53213D01*
X55626Y50673D02*
X63246D01*
D21*
X64092Y55753D02*
X63246D01*
X64092Y56599D01*
Y56811D01*
X63881Y57023D01*
X63458D01*
X63246Y56811D01*
X63500Y58547D02*
X63923D01*
X63712D01*
Y59817D01*
X63500Y59605D01*
M02*
