M48
;Layer_Color=9474304
;FILE_FORMAT=4:4
METRIC,LZ
;TYPE=PLATED
T1F00S00C0.7112
T2F00S00C0.8500
T3F00S00C0.9000
T4F00S00C2.7500
T5F00S00C3.0000
%
T01
X0123444Y007493
X0124079Y0076708
X0127508Y0075057
X01297305Y00760095
X0084201Y0071628
X0082423Y0072644
X009271Y0085598
X0095377
X00962025Y00892175
X0099695Y0090043
X0100838Y0084201
X0139954Y0084709
X0139065Y008636
X013716Y0088011
X0141732Y0083312
T02
X012077Y0087757
Y0091821
X0133474
X0133477Y0087757
T03
X0119126Y0071755
X012319
X012573
X012827
X0132334
X0134874
X0137414
X0138557Y007874
X0136017
X0133477
X0130937
X0128397
X0125857
X0123317
X0120777
X0149479Y0077089
Y0074549
X0118237Y007874
X0115697
X0113157
X0110617
X0108077
X0105537
X0102997
X0100457
X0097917
X0095377
X0092837
X0090297
X0089154Y0071755
X0091694
X0095885
X0098425
X0100965
X0105156
X0107696
X0110236
X0114046
X0116586
X0086614
X0090297Y008128
X0092837
X0095377
X0097917
X0100457
X0102997
X0105537
X0108077
X0110617
X0113157
X0115697
X0118237
Y0087503
X0115697
X0113157
X010795Y008763
Y008509
Y009017
Y009271
X0104648Y0090043
Y0087503
X0101981Y0095123
X0099441
X0096901
X0094361
X0091821
X0089281
X0086741
X0084201
X0088519Y0116967
X0092837
X0097155
X0114173
Y0114427
Y0109601
Y0107061
Y0104521
Y0101981
X0108204
Y0104521
Y0107061
Y0109601
X0144653
Y0107061
Y0104521
Y0101981
X0143891Y0092583
X0146431
X0148971
X0151511
X0149479Y0087249
Y0084709
Y0082169
Y0079629
X0138557Y008128
X0136017
X0133477
X0130937
X0128397
X0125857
X0123317
X0120777
X0123317Y0084582
X0125857
X0144653Y0114427
Y0116967
Y0119507
Y0122047
X0114173
Y0119507
X0097155
Y0122047
X0092837
Y0119507
X0088519
Y0122047
T04
X0085435Y008001
X0143425
Y012901
X0085435
T05
X0085471Y01082
X0100711
M30
