G04 Layer_Color=65535*
%FSLAX44Y44*%
%MOMM*%
G71*
G01*
G75*
%ADD13C,1.2700*%
%ADD20C,0.2000*%
%ADD21C,0.2540*%
%ADD22C,0.1780*%
%ADD23C,0.1778*%
%ADD24C,0.3000*%
%ADD25C,0.2032*%
D13*
X786130Y1325880D02*
X1550670D01*
Y648970D02*
Y1325880D01*
X786130Y648970D02*
X1550670D01*
X786130D02*
Y1325880D01*
D20*
X1033780Y862330D02*
Y913130D01*
Y862330D02*
X1059180D01*
Y913130D01*
X1033780D02*
X1059180D01*
X1066800Y939800D02*
X1092200D01*
Y838200D02*
Y939800D01*
X1066800Y838200D02*
Y939800D01*
Y838200D02*
X1092200D01*
X1433830Y1131570D02*
X1459230D01*
X1433830D02*
Y1233170D01*
X1459230Y1131570D02*
Y1233170D01*
X1433830D02*
X1459230D01*
X1433830Y1007110D02*
X1459230D01*
X1433830D02*
Y1108710D01*
X1459230Y1007110D02*
Y1108710D01*
X1433830D02*
X1459230D01*
X1482090Y732790D02*
X1507490D01*
X1482090Y885190D02*
X1507490D01*
X853440Y704850D02*
Y730250D01*
X929640D01*
Y704850D02*
Y730250D01*
X853440Y704850D02*
X929640D01*
X946150D02*
Y730250D01*
X1022350D01*
Y704850D02*
Y730250D01*
X946150Y704850D02*
X1022350D01*
X1038860D02*
Y730250D01*
X1115060D01*
Y704850D02*
Y730250D01*
X1038860Y704850D02*
X1115060D01*
X1127760D02*
Y730250D01*
X1203960D01*
Y704850D02*
Y730250D01*
X1127760Y704850D02*
X1203960D01*
X1219200D02*
Y730250D01*
X1295400D01*
Y704850D02*
Y730250D01*
X1219200Y704850D02*
X1295400D01*
X1069340Y1108710D02*
X1094740D01*
Y1007110D02*
Y1108710D01*
X1069340Y1007110D02*
Y1108710D01*
Y1007110D02*
X1094740D01*
X1310640Y704850D02*
Y730250D01*
X1386840D01*
Y704850D02*
Y730250D01*
X1310640Y704850D02*
X1386840D01*
X1220470Y858520D02*
X1271270D01*
X1220470Y833120D02*
Y858520D01*
Y833120D02*
X1271270D01*
Y858520D01*
X1527810Y913130D02*
Y938530D01*
X1426210Y913130D02*
X1527810D01*
X1426210Y938530D02*
X1527810D01*
X1426210Y913130D02*
Y938530D01*
X829310Y963930D02*
X1032510D01*
X829310Y938530D02*
Y963930D01*
Y938530D02*
X1032510D01*
Y963930D01*
X1398270Y774700D02*
Y825500D01*
X890270Y774700D02*
Y825500D01*
X1398270D01*
X890270Y774700D02*
X1398270D01*
X872490Y1156970D02*
X897890D01*
X872490D02*
Y1233170D01*
X897890D01*
Y1156970D02*
Y1233170D01*
X915670Y1156970D02*
X941070D01*
X915670D02*
Y1233170D01*
X941070D01*
Y1156970D02*
Y1233170D01*
X958850Y1156970D02*
X984250D01*
X958850D02*
Y1233170D01*
X984250D01*
Y1156970D02*
Y1233170D01*
X1118870Y862330D02*
Y887730D01*
X1195070D01*
Y862330D02*
Y887730D01*
X1118870Y862330D02*
X1195070D01*
X1217930Y877570D02*
X1233170D01*
X1309370D02*
X1324610D01*
X1233170Y864870D02*
Y890270D01*
X1309370D01*
Y864870D02*
Y890270D01*
X1233170Y864870D02*
X1309370D01*
X1217930Y918210D02*
X1233170D01*
X1309370D02*
X1324610D01*
X1233170Y905510D02*
Y930910D01*
X1309370D01*
Y905510D02*
Y930910D01*
X1233170Y905510D02*
X1309370D01*
X1507490Y732790D02*
Y885190D01*
X1482090Y732790D02*
Y885190D01*
X1129030Y1007110D02*
X1154430D01*
X1129030D02*
Y1108710D01*
X1154430Y1007110D02*
Y1108710D01*
X1129030D02*
X1154430D01*
X1129030Y1131570D02*
X1154430D01*
X1129030D02*
Y1233170D01*
X1154430Y1131570D02*
Y1233170D01*
X1129030D02*
X1154430D01*
D21*
X1537970Y659130D02*
Y692150D01*
X1421130D02*
X1537970D01*
X1421130Y659130D02*
Y692150D01*
Y659130D02*
X1537970D01*
X1172210Y1099815D02*
X1177288D01*
X1174749D01*
Y1084580D01*
X1172210D01*
X1177288D01*
X1195063D02*
X1184906D01*
X1195063Y1094737D01*
Y1097276D01*
X1192523Y1099815D01*
X1187445D01*
X1184906Y1097276D01*
X1210298Y1094737D02*
X1202680D01*
X1200141Y1092197D01*
Y1087119D01*
X1202680Y1084580D01*
X1210298D01*
X1240768D02*
X1230611D01*
X1240768Y1094737D01*
Y1097276D01*
X1238229Y1099815D01*
X1233150D01*
X1230611Y1097276D01*
X1168400Y1230625D02*
X1173478D01*
X1170939D01*
Y1215390D01*
X1168400D01*
X1173478D01*
X1191253D02*
X1181096D01*
X1191253Y1225547D01*
Y1228086D01*
X1188713Y1230625D01*
X1183635D01*
X1181096Y1228086D01*
X1206488Y1225547D02*
X1198870D01*
X1196331Y1223008D01*
Y1217929D01*
X1198870Y1215390D01*
X1206488D01*
X1226801D02*
X1231880D01*
X1229340D01*
Y1230625D01*
X1226801Y1228086D01*
X1397005Y1108710D02*
Y1113788D01*
Y1111249D01*
X1412240D01*
Y1108710D01*
Y1113788D01*
Y1131563D02*
Y1121406D01*
X1402083Y1131563D01*
X1399544D01*
X1397005Y1129023D01*
Y1123945D01*
X1399544Y1121406D01*
Y1146798D02*
X1397005Y1144258D01*
Y1139180D01*
X1399544Y1136641D01*
X1409701D01*
X1412240Y1139180D01*
Y1144258D01*
X1409701Y1146798D01*
X1412240Y1156954D02*
X1407162Y1151876D01*
X1402083D01*
X1397005Y1156954D01*
Y1164572D02*
Y1174729D01*
Y1169650D01*
X1412240D01*
Y1179807D02*
X1407162Y1184885D01*
X1402083D01*
X1397005Y1179807D01*
X1052827Y967735D02*
X1047748D01*
X1050287D01*
Y955039D01*
X1047748Y952500D01*
X1045209D01*
X1042670Y955039D01*
X1068062Y965196D02*
X1065523Y967735D01*
X1060444D01*
X1057905Y965196D01*
Y962657D01*
X1060444Y960117D01*
X1065523D01*
X1068062Y957578D01*
Y955039D01*
X1065523Y952500D01*
X1060444D01*
X1057905Y955039D01*
X1073140Y952500D02*
Y967735D01*
X1083297Y952500D01*
Y967735D01*
X1113767Y965196D02*
X1111228Y967735D01*
X1106150D01*
X1103610Y965196D01*
Y962657D01*
X1106150Y960117D01*
X1111228D01*
X1113767Y957578D01*
Y955039D01*
X1111228Y952500D01*
X1106150D01*
X1103610Y955039D01*
X1118845Y952500D02*
Y967735D01*
X1126463D01*
X1129002Y965196D01*
Y960117D01*
X1126463Y957578D01*
X1118845D01*
X1123924D02*
X1129002Y952500D01*
X1149315Y965196D02*
X1151855Y967735D01*
X1156933D01*
X1159472Y965196D01*
Y955039D01*
X1156933Y952500D01*
X1151855D01*
X1149315Y955039D01*
Y965196D01*
X1172168Y952500D02*
Y967735D01*
X1164551Y960117D01*
X1174707D01*
X1456690Y906775D02*
Y891540D01*
Y899157D01*
X1466847D01*
Y906775D01*
Y891540D01*
X1482082Y904236D02*
X1479543Y906775D01*
X1474464D01*
X1471925Y904236D01*
Y894079D01*
X1474464Y891540D01*
X1479543D01*
X1482082Y894079D01*
X1487160Y899157D02*
X1497317D01*
X1502395Y904236D02*
X1504934Y906775D01*
X1510013D01*
X1512552Y904236D01*
Y894079D01*
X1510013Y891540D01*
X1504934D01*
X1502395Y894079D01*
Y904236D01*
X1527787Y906775D02*
X1522709Y904236D01*
X1517630Y899157D01*
Y894079D01*
X1520170Y891540D01*
X1525248D01*
X1527787Y894079D01*
Y896618D01*
X1525248Y899157D01*
X1517630D01*
X1490986Y1000895D02*
X1491030Y1005973D01*
X1491008Y1003434D01*
X1506243Y1003299D01*
X1506220Y1000760D01*
X1506265Y1005838D01*
X1506422Y1023612D02*
X1506332Y1013455D01*
X1496266Y1023702D01*
X1493727Y1023724D01*
X1491165Y1021207D01*
X1491120Y1016129D01*
X1493637Y1013568D01*
X1493862Y1038959D02*
X1491300Y1036442D01*
X1491255Y1031364D01*
X1493772Y1028802D01*
X1503928Y1028712D01*
X1506490Y1031229D01*
X1506535Y1036307D01*
X1504018Y1038869D01*
X1506647Y1049003D02*
X1501524Y1043969D01*
X1496446Y1044014D01*
X1491412Y1049137D01*
X1506714Y1056620D02*
X1491480Y1056755D01*
X1491547Y1064372D01*
X1494109Y1066888D01*
X1499187Y1066843D01*
X1501704Y1064282D01*
X1501636Y1056665D01*
X1506849Y1071854D02*
X1501816Y1076977D01*
X1496738Y1077022D01*
X1491615Y1071989D01*
X831850Y748030D02*
X816615D01*
Y755648D01*
X819154Y758187D01*
X824232D01*
X826772Y755648D01*
Y748030D01*
Y753108D02*
X831850Y758187D01*
Y763265D02*
X821693D01*
X816615Y768343D01*
X821693Y773422D01*
X831850D01*
X824232D01*
Y763265D01*
X819154Y788657D02*
X816615Y786118D01*
Y781039D01*
X819154Y778500D01*
X821693D01*
X824232Y781039D01*
Y786118D01*
X826772Y788657D01*
X829311D01*
X831850Y786118D01*
Y781039D01*
X829311Y778500D01*
X831850Y793735D02*
X816615D01*
Y801353D01*
X819154Y803892D01*
X824232D01*
X826772Y801353D01*
Y793735D01*
X816615Y808970D02*
X831850D01*
Y816588D01*
X829311Y819127D01*
X826772D01*
X824232Y816588D01*
Y808970D01*
Y816588D01*
X821693Y819127D01*
X819154D01*
X816615Y816588D01*
Y808970D01*
Y834362D02*
Y824205D01*
X831850D01*
Y834362D01*
X824232Y824205D02*
Y829284D01*
X831850Y839440D02*
X816615D01*
Y847058D01*
X819154Y849597D01*
X824232D01*
X826772Y847058D01*
Y839440D01*
Y844519D02*
X831850Y849597D01*
Y854676D02*
X816615D01*
Y862293D01*
X819154Y864832D01*
X824232D01*
X826772Y862293D01*
Y854676D01*
Y859754D02*
X831850Y864832D01*
X816615Y869911D02*
X819154D01*
X824232Y874989D01*
X819154Y880067D01*
X816615D01*
X824232Y874989D02*
X831850D01*
X821690Y982980D02*
Y993137D01*
X824229D01*
X826768Y990598D01*
Y982980D01*
Y990598D01*
X829307Y993137D01*
X831847Y990598D01*
Y982980D01*
X836925Y977902D02*
Y993137D01*
X844543D01*
X847082Y990598D01*
Y985519D01*
X844543Y982980D01*
X836925D01*
X852160Y993137D02*
Y985519D01*
X854699Y982980D01*
X862317D01*
Y993137D01*
X892787Y998215D02*
X887709Y995676D01*
X882630Y990598D01*
Y985519D01*
X885170Y982980D01*
X890248D01*
X892787Y985519D01*
Y988058D01*
X890248Y990598D01*
X882630D01*
X897865Y995676D02*
X900405Y998215D01*
X905483D01*
X908022Y995676D01*
Y985519D01*
X905483Y982980D01*
X900405D01*
X897865Y985519D01*
Y995676D01*
X923257Y998215D02*
X913100D01*
Y990598D01*
X918179Y993137D01*
X920718D01*
X923257Y990598D01*
Y985519D01*
X920718Y982980D01*
X915640D01*
X913100Y985519D01*
X928335Y995676D02*
X930875Y998215D01*
X935953D01*
X938492Y995676D01*
Y985519D01*
X935953Y982980D01*
X930875D01*
X928335Y985519D01*
Y995676D01*
X960501Y1256914D02*
Y1246757D01*
X965579Y1241679D01*
X970658Y1246757D01*
Y1256914D01*
X975736Y1241679D02*
X980814D01*
X978275D01*
Y1256914D01*
X975736Y1254375D01*
X917321Y1256914D02*
Y1246757D01*
X922399Y1241679D01*
X927478Y1246757D01*
Y1256914D01*
X942713Y1241679D02*
X932556D01*
X942713Y1251836D01*
Y1254375D01*
X940174Y1256914D01*
X935095D01*
X932556Y1254375D01*
X874141Y1256914D02*
Y1246757D01*
X879219Y1241679D01*
X884298Y1246757D01*
Y1256914D01*
X889376Y1254375D02*
X891915Y1256914D01*
X896994D01*
X899533Y1254375D01*
Y1251836D01*
X896994Y1249296D01*
X894454D01*
X896994D01*
X899533Y1246757D01*
Y1244218D01*
X896994Y1241679D01*
X891915D01*
X889376Y1244218D01*
X1430020Y683255D02*
X1435098D01*
X1432559D01*
Y668020D01*
X1430020D01*
X1435098D01*
X1442716Y683255D02*
X1452873D01*
X1447794D01*
Y668020D01*
X1457951Y683255D02*
Y670559D01*
X1460490Y668020D01*
X1465569D01*
X1468108Y670559D01*
Y683255D01*
X1488421Y668020D02*
Y683255D01*
X1496039D01*
X1498578Y680716D01*
Y675638D01*
X1496039Y673098D01*
X1488421D01*
X1493499D02*
X1498578Y668020D01*
X1511274Y683255D02*
X1506195D01*
X1503656Y680716D01*
Y670559D01*
X1506195Y668020D01*
X1511274D01*
X1513813Y670559D01*
Y680716D01*
X1511274Y683255D01*
X1518891D02*
Y673098D01*
X1523970Y668020D01*
X1529048Y673098D01*
Y683255D01*
D22*
X1248410Y952500D02*
Y965196D01*
X1254758D01*
X1256874Y963080D01*
Y958848D01*
X1254758Y956732D01*
X1248410D01*
X1252642D02*
X1256874Y952500D01*
X1269570D02*
X1261106D01*
X1269570Y960964D01*
Y963080D01*
X1267454Y965196D01*
X1263222D01*
X1261106Y963080D01*
X1273802Y958848D02*
X1282266D01*
X1294962Y952500D02*
X1286498D01*
X1294962Y960964D01*
Y963080D01*
X1292846Y965196D01*
X1288614D01*
X1286498Y963080D01*
X1299194Y965196D02*
Y952500D01*
Y956732D01*
X1307657Y965196D01*
X1301310Y958848D01*
X1307657Y952500D01*
D23*
X1249680Y979170D02*
Y991866D01*
X1256028D01*
X1258144Y989750D01*
Y985518D01*
X1256028Y983402D01*
X1249680D01*
X1253912D02*
X1258144Y979170D01*
X1262376D02*
X1266608D01*
X1264492D01*
Y991866D01*
X1262376Y989750D01*
X1272956Y985518D02*
X1281420D01*
X1285652Y979170D02*
X1289884D01*
X1287768D01*
Y991866D01*
X1285652Y989750D01*
X1296232Y991866D02*
Y979170D01*
Y983402D01*
X1304695Y991866D01*
X1298348Y985518D01*
X1304695Y979170D01*
D24*
X868801Y759388D02*
X855472D01*
Y739394D01*
X868801D01*
X855472Y749391D02*
X862137D01*
X888795Y756055D02*
X885462Y759388D01*
X878798D01*
X875466Y756055D01*
Y752723D01*
X878798Y749391D01*
X885462D01*
X888795Y746059D01*
Y742726D01*
X885462Y739394D01*
X878798D01*
X875466Y742726D01*
X908788Y756055D02*
X905456Y759388D01*
X898791D01*
X895459Y756055D01*
Y742726D01*
X898791Y739394D01*
X905456D01*
X908788Y742726D01*
X915453Y739394D02*
X922117D01*
X918785D01*
Y759388D01*
X915453Y756055D01*
X961511Y759388D02*
X948182D01*
Y739394D01*
X961511D01*
X948182Y749391D02*
X954846D01*
X981505Y756055D02*
X978172Y759388D01*
X971508D01*
X968176Y756055D01*
Y752723D01*
X971508Y749391D01*
X978172D01*
X981505Y746059D01*
Y742726D01*
X978172Y739394D01*
X971508D01*
X968176Y742726D01*
X1001498Y756055D02*
X998166Y759388D01*
X991501D01*
X988169Y756055D01*
Y742726D01*
X991501Y739394D01*
X998166D01*
X1001498Y742726D01*
X1021492Y739394D02*
X1008163D01*
X1021492Y752723D01*
Y756055D01*
X1018159Y759388D01*
X1011495D01*
X1008163Y756055D01*
X1054221Y759388D02*
X1040892D01*
Y739394D01*
X1054221D01*
X1040892Y749391D02*
X1047557D01*
X1074215Y756055D02*
X1070882Y759388D01*
X1064218D01*
X1060886Y756055D01*
Y752723D01*
X1064218Y749391D01*
X1070882D01*
X1074215Y746059D01*
Y742726D01*
X1070882Y739394D01*
X1064218D01*
X1060886Y742726D01*
X1094208Y756055D02*
X1090876Y759388D01*
X1084211D01*
X1080879Y756055D01*
Y742726D01*
X1084211Y739394D01*
X1090876D01*
X1094208Y742726D01*
X1100873Y756055D02*
X1104205Y759388D01*
X1110870D01*
X1114202Y756055D01*
Y752723D01*
X1110870Y749391D01*
X1107537D01*
X1110870D01*
X1114202Y746059D01*
Y742726D01*
X1110870Y739394D01*
X1104205D01*
X1100873Y742726D01*
X1143121Y759388D02*
X1129792D01*
Y739394D01*
X1143121D01*
X1129792Y749391D02*
X1136457D01*
X1163115Y756055D02*
X1159782Y759388D01*
X1153118D01*
X1149786Y756055D01*
Y752723D01*
X1153118Y749391D01*
X1159782D01*
X1163115Y746059D01*
Y742726D01*
X1159782Y739394D01*
X1153118D01*
X1149786Y742726D01*
X1183108Y756055D02*
X1179776Y759388D01*
X1173111D01*
X1169779Y756055D01*
Y742726D01*
X1173111Y739394D01*
X1179776D01*
X1183108Y742726D01*
X1199770Y739394D02*
Y759388D01*
X1189773Y749391D01*
X1203102D01*
X1237609Y759134D02*
X1224280D01*
Y739140D01*
X1237609D01*
X1224280Y749137D02*
X1230945D01*
X1257603Y755801D02*
X1254270Y759134D01*
X1247606D01*
X1244274Y755801D01*
Y752469D01*
X1247606Y749137D01*
X1254270D01*
X1257603Y745805D01*
Y742472D01*
X1254270Y739140D01*
X1247606D01*
X1244274Y742472D01*
X1277596Y755801D02*
X1274264Y759134D01*
X1267599D01*
X1264267Y755801D01*
Y742472D01*
X1267599Y739140D01*
X1274264D01*
X1277596Y742472D01*
X1297590Y759134D02*
X1284261D01*
Y749137D01*
X1290925Y752469D01*
X1294258D01*
X1297590Y749137D01*
Y742472D01*
X1294258Y739140D01*
X1287593D01*
X1284261Y742472D01*
X1326001Y759388D02*
X1312672D01*
Y739394D01*
X1326001D01*
X1312672Y749391D02*
X1319337D01*
X1345995Y756055D02*
X1342662Y759388D01*
X1335998D01*
X1332666Y756055D01*
Y752723D01*
X1335998Y749391D01*
X1342662D01*
X1345995Y746059D01*
Y742726D01*
X1342662Y739394D01*
X1335998D01*
X1332666Y742726D01*
X1365988Y756055D02*
X1362656Y759388D01*
X1355991D01*
X1352659Y756055D01*
Y742726D01*
X1355991Y739394D01*
X1362656D01*
X1365988Y742726D01*
X1385982Y759388D02*
X1379317Y756055D01*
X1372653Y749391D01*
Y742726D01*
X1375985Y739394D01*
X1382650D01*
X1385982Y742726D01*
Y746059D01*
X1382650Y749391D01*
X1372653D01*
D25*
X883494Y807720D02*
X875030D01*
X883494Y816184D01*
Y818300D01*
X881378Y820416D01*
X877146D01*
X875030Y818300D01*
X877570Y782320D02*
X881802D01*
X879686D01*
Y795016D01*
X877570Y792900D01*
M02*
