G04 Layer_Color=32896*
%FSLAX44Y44*%
%MOMM*%
G71*
G01*
G75*
%ADD13C,1.2700*%
%ADD32C,0.1270*%
%ADD33C,0.1000*%
D13*
X786130Y1325880D02*
X1550670D01*
Y648970D02*
Y1325880D01*
X786130Y648970D02*
X1550670D01*
X786130D02*
Y1325880D01*
D32*
X1040976Y1096432D02*
X1040129Y1097278D01*
X1038436D01*
X1037590Y1096432D01*
Y1093046D01*
X1038436Y1092200D01*
X1040129D01*
X1040976Y1093046D01*
Y1094739D01*
X1039283D01*
X1042668Y1092200D02*
Y1097278D01*
X1045208D01*
X1046054Y1096432D01*
Y1094739D01*
X1045208Y1093893D01*
X1042668D01*
X1044361D02*
X1046054Y1092200D01*
X1050286Y1097278D02*
X1048593D01*
X1047747Y1096432D01*
Y1093046D01*
X1048593Y1092200D01*
X1050286D01*
X1051132Y1093046D01*
Y1096432D01*
X1050286Y1097278D01*
X1052825D02*
Y1093046D01*
X1053671Y1092200D01*
X1055364D01*
X1056211Y1093046D01*
Y1097278D01*
X1057903Y1092200D02*
Y1097278D01*
X1061289Y1092200D01*
Y1097278D01*
X1062982D02*
Y1092200D01*
X1065521D01*
X1066367Y1093046D01*
Y1096432D01*
X1065521Y1097278D01*
X1062982D01*
X1036320Y1071032D02*
X1037166Y1071878D01*
X1038859D01*
X1039706Y1071032D01*
Y1070186D01*
X1038859Y1069339D01*
X1038013D01*
X1038859D01*
X1039706Y1068493D01*
Y1067646D01*
X1038859Y1066800D01*
X1037166D01*
X1036320Y1067646D01*
X1041398Y1066800D02*
Y1067646D01*
X1042245D01*
Y1066800D01*
X1041398D01*
X1045630Y1071032D02*
X1046477Y1071878D01*
X1048169D01*
X1049016Y1071032D01*
Y1070186D01*
X1048169Y1069339D01*
X1047323D01*
X1048169D01*
X1049016Y1068493D01*
Y1067646D01*
X1048169Y1066800D01*
X1046477D01*
X1045630Y1067646D01*
X1050709Y1071878D02*
Y1068493D01*
X1052402Y1066800D01*
X1054094Y1068493D01*
Y1071878D01*
X1100666Y1046902D02*
X1099819Y1047748D01*
X1098126D01*
X1097280Y1046902D01*
Y1043516D01*
X1098126Y1042670D01*
X1099819D01*
X1100666Y1043516D01*
Y1045209D01*
X1098973D01*
X1102358Y1042670D02*
Y1047748D01*
X1104898D01*
X1105744Y1046902D01*
Y1045209D01*
X1104898Y1044363D01*
X1102358D01*
X1104051D02*
X1105744Y1042670D01*
X1109976Y1047748D02*
X1108283D01*
X1107437Y1046902D01*
Y1043516D01*
X1108283Y1042670D01*
X1109976D01*
X1110822Y1043516D01*
Y1046902D01*
X1109976Y1047748D01*
X1112515D02*
Y1043516D01*
X1113362Y1042670D01*
X1115054D01*
X1115901Y1043516D01*
Y1047748D01*
X1117593Y1042670D02*
Y1047748D01*
X1120979Y1042670D01*
Y1047748D01*
X1122672D02*
Y1042670D01*
X1125211D01*
X1126057Y1043516D01*
Y1046902D01*
X1125211Y1047748D01*
X1122672D01*
X1105746Y1021078D02*
X1102360D01*
Y1018539D01*
X1104053Y1019386D01*
X1104899D01*
X1105746Y1018539D01*
Y1016846D01*
X1104899Y1016000D01*
X1103206D01*
X1102360Y1016846D01*
X1107438Y1021078D02*
Y1017693D01*
X1109131Y1016000D01*
X1110824Y1017693D01*
Y1021078D01*
D33*
X1044732Y922375D02*
X1043899Y923208D01*
X1042233D01*
X1041400Y922375D01*
Y919043D01*
X1042233Y918210D01*
X1043899D01*
X1044732Y919043D01*
Y920709D01*
X1043066D01*
X1046398Y918210D02*
Y923208D01*
X1048897D01*
X1049731Y922375D01*
Y920709D01*
X1048897Y919876D01*
X1046398D01*
X1051397Y923208D02*
X1053063D01*
X1052230D01*
Y918210D01*
X1051397D01*
X1053063D01*
X1058061Y923208D02*
X1056395D01*
X1055562Y922375D01*
Y919043D01*
X1056395Y918210D01*
X1058061D01*
X1058894Y919043D01*
Y922375D01*
X1058061Y923208D01*
X1063893Y918210D02*
X1060560D01*
X1063893Y921542D01*
Y922375D01*
X1063060Y923208D01*
X1061394D01*
X1060560Y922375D01*
X1068891Y918210D02*
X1065559D01*
X1068891Y921542D01*
Y922375D01*
X1068058Y923208D01*
X1066392D01*
X1065559Y922375D01*
X1007902Y884275D02*
X1007069Y885108D01*
X1005403D01*
X1004570Y884275D01*
Y880943D01*
X1005403Y880110D01*
X1007069D01*
X1007902Y880943D01*
Y882609D01*
X1006236D01*
X1009568Y880110D02*
Y885108D01*
X1012067D01*
X1012901Y884275D01*
Y882609D01*
X1012067Y881776D01*
X1009568D01*
X1014567Y885108D02*
X1016233D01*
X1015400D01*
Y880110D01*
X1014567D01*
X1016233D01*
X1021231Y885108D02*
X1019565D01*
X1018732Y884275D01*
Y880943D01*
X1019565Y880110D01*
X1021231D01*
X1022064Y880943D01*
Y884275D01*
X1021231Y885108D01*
X1023730Y884275D02*
X1024564Y885108D01*
X1026230D01*
X1027063Y884275D01*
Y880943D01*
X1026230Y880110D01*
X1024564D01*
X1023730Y880943D01*
Y884275D01*
X1031228Y880110D02*
Y885108D01*
X1028729Y882609D01*
X1032061D01*
X1129945Y891062D02*
X1129112Y890229D01*
Y888563D01*
X1129945Y887730D01*
X1133277D01*
X1134110Y888563D01*
Y890229D01*
X1133277Y891062D01*
X1131611D01*
Y889396D01*
X1134110Y892728D02*
X1129112D01*
Y895228D01*
X1129945Y896061D01*
X1131611D01*
X1132444Y895228D01*
Y892728D01*
X1129112Y897727D02*
Y899393D01*
Y898560D01*
X1134110D01*
Y897727D01*
Y899393D01*
X1129112Y904391D02*
Y902725D01*
X1129945Y901892D01*
X1133277D01*
X1134110Y902725D01*
Y904391D01*
X1133277Y905224D01*
X1129945D01*
X1129112Y904391D01*
X1134110Y906890D02*
Y908557D01*
Y907723D01*
X1129112D01*
X1129945Y906890D01*
Y911056D02*
X1129112Y911889D01*
Y913555D01*
X1129945Y914388D01*
X1133277D01*
X1134110Y913555D01*
Y911889D01*
X1133277Y911056D01*
X1129945D01*
X1155345Y891062D02*
X1154512Y890229D01*
Y888563D01*
X1155345Y887730D01*
X1158677D01*
X1159510Y888563D01*
Y890229D01*
X1158677Y891062D01*
X1157011D01*
Y889396D01*
X1159510Y892728D02*
X1154512D01*
Y895228D01*
X1155345Y896061D01*
X1157011D01*
X1157844Y895228D01*
Y892728D01*
X1154512Y897727D02*
Y899393D01*
Y898560D01*
X1159510D01*
Y897727D01*
Y899393D01*
X1154512Y904391D02*
Y902725D01*
X1155345Y901892D01*
X1158677D01*
X1159510Y902725D01*
Y904391D01*
X1158677Y905224D01*
X1155345D01*
X1154512Y904391D01*
X1155345Y906890D02*
X1154512Y907723D01*
Y909390D01*
X1155345Y910223D01*
X1158677D01*
X1159510Y909390D01*
Y907723D01*
X1158677Y906890D01*
X1155345D01*
X1158677Y911889D02*
X1159510Y912722D01*
Y914388D01*
X1158677Y915221D01*
X1155345D01*
X1154512Y914388D01*
Y912722D01*
X1155345Y911889D01*
X1156178D01*
X1157011Y912722D01*
Y915221D01*
X1182015Y892332D02*
X1181182Y891499D01*
Y889833D01*
X1182015Y889000D01*
X1185347D01*
X1186180Y889833D01*
Y891499D01*
X1185347Y892332D01*
X1183681D01*
Y890666D01*
X1186180Y893998D02*
X1181182D01*
Y896497D01*
X1182015Y897331D01*
X1183681D01*
X1184514Y896497D01*
Y893998D01*
X1181182Y898997D02*
Y900663D01*
Y899830D01*
X1186180D01*
Y898997D01*
Y900663D01*
X1181182Y905661D02*
Y903995D01*
X1182015Y903162D01*
X1185347D01*
X1186180Y903995D01*
Y905661D01*
X1185347Y906494D01*
X1182015D01*
X1181182Y905661D01*
X1186180Y908160D02*
Y909827D01*
Y908994D01*
X1181182D01*
X1182015Y908160D01*
X1186180Y912326D02*
Y913992D01*
Y913159D01*
X1181182D01*
X1182015Y912326D01*
X1278412Y848715D02*
X1277579Y849548D01*
X1275913D01*
X1275080Y848715D01*
Y845383D01*
X1275913Y844550D01*
X1277579D01*
X1278412Y845383D01*
Y847049D01*
X1276746D01*
X1280078Y844550D02*
Y849548D01*
X1282578D01*
X1283411Y848715D01*
Y847049D01*
X1282578Y846216D01*
X1280078D01*
X1285077Y849548D02*
X1286743D01*
X1285910D01*
Y844550D01*
X1285077D01*
X1286743D01*
X1291741Y849548D02*
X1290075D01*
X1289242Y848715D01*
Y845383D01*
X1290075Y844550D01*
X1291741D01*
X1292574Y845383D01*
Y848715D01*
X1291741Y849548D01*
X1294240Y848715D02*
X1295074Y849548D01*
X1296740D01*
X1297573Y848715D01*
Y845383D01*
X1296740Y844550D01*
X1295074D01*
X1294240Y845383D01*
Y848715D01*
X1302571Y849548D02*
X1299239D01*
Y847049D01*
X1300905Y847882D01*
X1301738D01*
X1302571Y847049D01*
Y845383D01*
X1301738Y844550D01*
X1300072D01*
X1299239Y845383D01*
X1421922Y946505D02*
X1421089Y947338D01*
X1419423D01*
X1418590Y946505D01*
Y943173D01*
X1419423Y942340D01*
X1421089D01*
X1421922Y943173D01*
Y944839D01*
X1420256D01*
X1423588Y942340D02*
Y947338D01*
X1426087D01*
X1426921Y946505D01*
Y944839D01*
X1426087Y944006D01*
X1423588D01*
X1428587Y947338D02*
X1430253D01*
X1429420D01*
Y942340D01*
X1428587D01*
X1430253D01*
X1435251Y947338D02*
X1433585D01*
X1432752Y946505D01*
Y943173D01*
X1433585Y942340D01*
X1435251D01*
X1436084Y943173D01*
Y946505D01*
X1435251Y947338D01*
X1437750Y946505D02*
X1438584Y947338D01*
X1440250D01*
X1441083Y946505D01*
Y943173D01*
X1440250Y942340D01*
X1438584D01*
X1437750Y943173D01*
Y946505D01*
X1446081Y947338D02*
X1444415Y946505D01*
X1442749Y944839D01*
Y943173D01*
X1443582Y942340D01*
X1445248D01*
X1446081Y943173D01*
Y944006D01*
X1445248Y944839D01*
X1442749D01*
X1453672Y946505D02*
X1452839Y947338D01*
X1451173D01*
X1450340Y946505D01*
Y943173D01*
X1451173Y942340D01*
X1452839D01*
X1453672Y943173D01*
Y944839D01*
X1452006D01*
X1455338Y942340D02*
Y947338D01*
X1457838D01*
X1458671Y946505D01*
Y944839D01*
X1457838Y944006D01*
X1455338D01*
X1460337Y947338D02*
X1462003D01*
X1461170D01*
Y942340D01*
X1460337D01*
X1462003D01*
X1467001Y947338D02*
X1465335D01*
X1464502Y946505D01*
Y943173D01*
X1465335Y942340D01*
X1467001D01*
X1467834Y943173D01*
Y946505D01*
X1467001Y947338D01*
X1469500Y942340D02*
X1471167D01*
X1470334D01*
Y947338D01*
X1469500Y946505D01*
X1473666D02*
X1474499Y947338D01*
X1476165D01*
X1476998Y946505D01*
Y945672D01*
X1476165Y944839D01*
X1475332D01*
X1476165D01*
X1476998Y944006D01*
Y943173D01*
X1476165Y942340D01*
X1474499D01*
X1473666Y943173D01*
X1485422Y946505D02*
X1484589Y947338D01*
X1482923D01*
X1482090Y946505D01*
Y943173D01*
X1482923Y942340D01*
X1484589D01*
X1485422Y943173D01*
Y944839D01*
X1483756D01*
X1487088Y942340D02*
Y947338D01*
X1489588D01*
X1490421Y946505D01*
Y944839D01*
X1489588Y944006D01*
X1487088D01*
X1492087Y947338D02*
X1493753D01*
X1492920D01*
Y942340D01*
X1492087D01*
X1493753D01*
X1498751Y947338D02*
X1497085D01*
X1496252Y946505D01*
Y943173D01*
X1497085Y942340D01*
X1498751D01*
X1499584Y943173D01*
Y946505D01*
X1498751Y947338D01*
X1501250Y942340D02*
X1502917D01*
X1502083D01*
Y947338D01*
X1501250Y946505D01*
X1505416Y943173D02*
X1506249Y942340D01*
X1507915D01*
X1508748Y943173D01*
Y946505D01*
X1507915Y947338D01*
X1506249D01*
X1505416Y946505D01*
Y945672D01*
X1506249Y944839D01*
X1508748D01*
X1515902Y946505D02*
X1515069Y947338D01*
X1513403D01*
X1512570Y946505D01*
Y943173D01*
X1513403Y942340D01*
X1515069D01*
X1515902Y943173D01*
Y944839D01*
X1514236D01*
X1517568Y942340D02*
Y947338D01*
X1520067D01*
X1520901Y946505D01*
Y944839D01*
X1520067Y944006D01*
X1517568D01*
X1522567Y947338D02*
X1524233D01*
X1523400D01*
Y942340D01*
X1522567D01*
X1524233D01*
X1529231Y947338D02*
X1527565D01*
X1526732Y946505D01*
Y943173D01*
X1527565Y942340D01*
X1529231D01*
X1530064Y943173D01*
Y946505D01*
X1529231Y947338D01*
X1535063Y942340D02*
X1531730D01*
X1535063Y945672D01*
Y946505D01*
X1534230Y947338D01*
X1532563D01*
X1531730Y946505D01*
X1540061Y947338D02*
X1538395Y946505D01*
X1536729Y944839D01*
Y943173D01*
X1537562Y942340D01*
X1539228D01*
X1540061Y943173D01*
Y944006D01*
X1539228Y944839D01*
X1536729D01*
M02*
