G04 Layer_Physical_Order=2*
G04 Layer_Color=16711680*
%FSLAX44Y44*%
%MOMM*%
G71*
G01*
G75*
%ADD10C,0.9000*%
%ADD11C,0.7000*%
%ADD12C,0.5000*%
%ADD13C,1.2700*%
%ADD14C,3.0000*%
%ADD15C,1.5000*%
%ADD16R,1.5000X1.5000*%
%ADD17R,1.5000X1.5000*%
%ADD18C,1.4000*%
%ADD19C,1.2700*%
D10*
X1282700Y717550D02*
Y720090D01*
X1258570Y744220D02*
X1282700Y720090D01*
X1258570Y744220D02*
Y749300D01*
X1253950Y744680D02*
X1258570Y749300D01*
X1191260Y717550D02*
X1209040Y735330D01*
X1258570Y749300D02*
Y787400D01*
X867410Y951230D02*
X905510Y989330D01*
X1022350D01*
X1078230Y1045210D01*
X1082040D01*
X1282700Y717550D02*
X1304290Y695960D01*
X1352550D01*
X1374140Y717550D01*
X1253950Y744375D02*
Y744680D01*
X1209040Y735330D02*
X1244905D01*
X1253950Y744375D01*
X842010Y951230D02*
X894080Y1003300D01*
X1014730D01*
X1082040Y1070610D01*
X1416050Y717550D02*
X1494790Y796290D01*
X1374140Y717550D02*
X1416050D01*
D11*
X953770Y812800D02*
Y855980D01*
X927100Y814070D02*
Y855980D01*
X1121410Y918210D02*
X1207700D01*
X1079500Y876300D02*
X1121410Y918210D01*
D12*
X1200150Y755650D02*
X1206500Y749300D01*
X1112520Y755650D02*
X1200150D01*
X1080770Y787400D02*
X1112520Y755650D01*
X1106170Y787400D02*
X1130300Y763270D01*
X866140Y713740D02*
Y717550D01*
X1426210Y1024890D02*
Y1149350D01*
Y985520D02*
Y1024890D01*
X1446530Y1045210D01*
X1426210Y1149350D02*
X1446530Y1169670D01*
X1466850Y1050290D02*
Y1174750D01*
Y1000760D02*
Y1050290D01*
X1446530Y1070610D02*
X1466850Y1050290D01*
X1446530Y1195070D02*
X1466850Y1174750D01*
X1360170Y812800D02*
X1380490Y833120D01*
X1417320D01*
X927100Y814070D02*
X928370Y812800D01*
X1029970D02*
Y849630D01*
X979170Y812800D02*
X1008380Y842010D01*
X1283970Y812800D02*
X1332230Y861060D01*
X1258570Y812800D02*
Y845820D01*
X1206500Y749300D02*
X1234440D01*
X960120Y742950D02*
X1004570Y787400D01*
X850133Y742950D02*
X960120D01*
X847090Y750570D02*
X942340D01*
X979170Y787400D01*
X1309370Y812800D02*
X1360170Y863600D01*
X1390650D01*
X1332230Y861060D02*
X1343660D01*
X1362710Y880110D01*
X1371600D01*
X962025Y892175D02*
X966470Y887730D01*
X824230Y727710D02*
X847090Y750570D01*
X824230Y726440D02*
Y727710D01*
X1055370Y812800D02*
Y834893D01*
X808990Y721360D02*
Y843280D01*
Y721360D02*
X833745Y696606D01*
X801450Y718237D02*
X831657Y688030D01*
X801450Y718237D02*
Y846403D01*
X831657Y688030D02*
X1022040D01*
X1051560Y717550D01*
X833745Y696606D02*
X849006D01*
X866140Y713740D01*
X1412050Y945960D02*
X1466850Y1000760D01*
X966470Y887730D02*
X1002030D01*
X996950Y900430D02*
X1000760D01*
X1395730Y955040D02*
X1426210Y985520D01*
X1055370Y955040D02*
X1395730D01*
X1000760Y900430D02*
X1055370Y955040D01*
X1275080Y748030D02*
Y750570D01*
X1297305Y760095D02*
X1300480Y756920D01*
X1275080Y748030D02*
X1422400D01*
X1351280Y896620D02*
X1373996D01*
X1342859Y938420D02*
X1464310Y816969D01*
X1422400Y748030D02*
X1464310Y789940D01*
Y816969D01*
X1373996Y896620D02*
X1456690Y813926D01*
X1300480Y756920D02*
X1420261D01*
X1456690Y793349D01*
Y813926D01*
X1011460Y868140D02*
X1029970Y849630D01*
X833850Y868140D02*
X1011460D01*
X808990Y843280D02*
X833850Y868140D01*
X1014583Y875680D02*
X1055370Y834893D01*
X801450Y846403D02*
X830727Y875680D01*
X1014583D01*
X1002030Y887730D02*
X1060260Y945960D01*
X1079500Y901700D02*
X1116220Y938420D01*
X1060260Y945960D02*
X1412050D01*
X1116220Y938420D02*
X1342859D01*
X1334770Y812800D02*
X1369060Y847090D01*
X1399540D01*
X842010Y734827D02*
X850133Y742950D01*
X842010Y716280D02*
Y734827D01*
X1130300Y763270D02*
X1215390D01*
X1219200Y767080D01*
X1240790D01*
X1334770Y880110D02*
X1351280Y896620D01*
X1182370Y812800D02*
Y872490D01*
X1156970Y812800D02*
Y872490D01*
X1131570Y812800D02*
Y872490D01*
D13*
X786130Y1325880D02*
X1550670D01*
Y648970D02*
Y1325880D01*
X786130Y648970D02*
X1550670D01*
X786130D02*
Y1325880D01*
D14*
X1007110Y1082000D02*
D03*
X1434250Y800100D02*
D03*
X854350D02*
D03*
X1434250Y1290100D02*
D03*
X854710Y1082000D02*
D03*
X854350Y1290100D02*
D03*
D15*
X1046480Y900430D02*
D03*
X1079500Y850900D02*
D03*
Y876300D02*
D03*
Y901700D02*
D03*
X1446530Y1220470D02*
D03*
Y1195070D02*
D03*
Y1169670D02*
D03*
Y1096010D02*
D03*
Y1070610D02*
D03*
Y1045210D02*
D03*
X1494790Y847090D02*
D03*
Y821690D02*
D03*
Y796290D02*
D03*
Y770890D02*
D03*
X916940Y717550D02*
D03*
X1009650D02*
D03*
X1102360D02*
D03*
X1191260D02*
D03*
X1282700D02*
D03*
X1082040Y1045210D02*
D03*
Y1070610D02*
D03*
Y1096010D02*
D03*
X1374140Y717550D02*
D03*
X1258570Y845820D02*
D03*
X1464310Y925830D02*
D03*
X1489710D02*
D03*
X1515110D02*
D03*
X918210Y951230D02*
D03*
X892810D02*
D03*
X867410D02*
D03*
X902970Y812800D02*
D03*
X928370Y787400D02*
D03*
Y812800D02*
D03*
X953770Y787400D02*
D03*
Y812800D02*
D03*
X979170Y787400D02*
D03*
Y812800D02*
D03*
X1004570Y787400D02*
D03*
Y812800D02*
D03*
X1029970Y787400D02*
D03*
Y812800D02*
D03*
X1055370Y787400D02*
D03*
Y812800D02*
D03*
X1080770Y787400D02*
D03*
Y812800D02*
D03*
X1106170Y787400D02*
D03*
Y812800D02*
D03*
X1131570Y787400D02*
D03*
Y812800D02*
D03*
X1156970Y787400D02*
D03*
Y812800D02*
D03*
X1182370Y787400D02*
D03*
Y812800D02*
D03*
X1207770Y787400D02*
D03*
Y812800D02*
D03*
X1233170Y787400D02*
D03*
Y812800D02*
D03*
X1258570Y787400D02*
D03*
Y812800D02*
D03*
X1283970Y787400D02*
D03*
Y812800D02*
D03*
X1309370Y787400D02*
D03*
Y812800D02*
D03*
X1334770Y787400D02*
D03*
Y812800D02*
D03*
X1360170Y787400D02*
D03*
Y812800D02*
D03*
X1385570Y787400D02*
D03*
Y812800D02*
D03*
X1182370Y875030D02*
D03*
X1156970D02*
D03*
X1494790Y872490D02*
D03*
X891540Y717550D02*
D03*
X984250D02*
D03*
X1076960D02*
D03*
X1165860D02*
D03*
X1257300D02*
D03*
X1348740D02*
D03*
X1019810Y951230D02*
D03*
X994410D02*
D03*
X969010D02*
D03*
X943610D02*
D03*
X885190Y1220470D02*
D03*
Y1195070D02*
D03*
X928370Y1220470D02*
D03*
Y1195070D02*
D03*
X971550Y1220470D02*
D03*
Y1195070D02*
D03*
X1141730Y1096010D02*
D03*
Y1070610D02*
D03*
Y1045210D02*
D03*
Y1220470D02*
D03*
Y1195070D02*
D03*
Y1169670D02*
D03*
D16*
X1046480Y875030D02*
D03*
X1079500Y927100D02*
D03*
X1446530Y1144270D02*
D03*
Y1019810D02*
D03*
X1082040D02*
D03*
X1494790Y745490D02*
D03*
X885190Y1169670D02*
D03*
X928370D02*
D03*
X971550D02*
D03*
X1141730Y1019810D02*
D03*
Y1144270D02*
D03*
D17*
X866140Y717550D02*
D03*
X958850D02*
D03*
X1051560D02*
D03*
X1140460D02*
D03*
X1231900D02*
D03*
X1323340D02*
D03*
X1438910Y925830D02*
D03*
X842010Y951230D02*
D03*
X902970Y787400D02*
D03*
X1131570Y875030D02*
D03*
X1233170Y845820D02*
D03*
D18*
X1207700Y877570D02*
D03*
X1334770D02*
D03*
X1207700Y918210D02*
D03*
X1334740D02*
D03*
D19*
X1417320Y833120D02*
D03*
X962025Y892175D02*
D03*
X1390650Y863600D02*
D03*
X1371600Y880110D02*
D03*
X1008380Y842010D02*
D03*
X1234440Y749300D02*
D03*
X953770Y855980D02*
D03*
X927100D02*
D03*
X824230Y726440D02*
D03*
X996950Y900430D02*
D03*
X1275080Y750570D02*
D03*
X1297305Y760095D02*
D03*
X1399540Y847090D02*
D03*
X842010Y716280D02*
D03*
X1240790Y767080D02*
D03*
M02*
