G04 Layer_Color=128*
%FSLAX44Y44*%
%MOMM*%
G71*
G01*
G75*
%ADD13C,1.2700*%
%ADD32C,0.1270*%
D13*
X786130Y1325880D02*
X1550670D01*
Y648970D02*
Y1325880D01*
X786130Y648970D02*
X1550670D01*
X786130D02*
Y1325880D01*
D32*
X992110Y1082000D02*
X1022110D01*
X1007110Y1067000D02*
Y1097000D01*
X1420500Y800100D02*
X1448000D01*
X1434250Y786350D02*
Y813850D01*
X840600Y800100D02*
X868100D01*
X854350Y786350D02*
Y813850D01*
X1420500Y1290100D02*
X1448000D01*
X1434250Y1276350D02*
Y1303850D01*
X839710Y1082000D02*
X869710D01*
X854710Y1067000D02*
Y1097000D01*
X840600Y1290100D02*
X868100D01*
X854350Y1276350D02*
Y1303850D01*
X1041980Y900430D02*
X1050980D01*
X1046480Y895930D02*
Y904930D01*
X1041980Y875030D02*
X1050980D01*
X1046480Y870530D02*
Y879530D01*
X1075000Y850900D02*
X1084000D01*
X1079500Y846400D02*
Y855400D01*
X1075000Y876300D02*
X1084000D01*
X1079500Y871800D02*
Y880800D01*
X1075000Y901700D02*
X1084000D01*
X1079500Y897200D02*
Y906200D01*
X1075000Y927100D02*
X1084000D01*
X1079500Y922600D02*
Y931600D01*
X1442030Y1220470D02*
X1451030D01*
X1446530Y1215970D02*
Y1224970D01*
X1442030Y1195070D02*
X1451030D01*
X1446530Y1190570D02*
Y1199570D01*
X1442030Y1169670D02*
X1451030D01*
X1446530Y1165170D02*
Y1174170D01*
X1442030Y1144270D02*
X1451030D01*
X1446530Y1139770D02*
Y1148770D01*
X1442030Y1096010D02*
X1451030D01*
X1446530Y1091510D02*
Y1100510D01*
X1442030Y1070610D02*
X1451030D01*
X1446530Y1066110D02*
Y1075110D01*
X1442030Y1045210D02*
X1451030D01*
X1446530Y1040710D02*
Y1049710D01*
X1442030Y1019810D02*
X1451030D01*
X1446530Y1015310D02*
Y1024310D01*
X1490290Y847090D02*
X1499290D01*
X1494790Y842590D02*
Y851590D01*
X1490290Y821690D02*
X1499290D01*
X1494790Y817190D02*
Y826190D01*
X1490290Y796290D02*
X1499290D01*
X1494790Y791790D02*
Y800790D01*
X1490290Y770890D02*
X1499290D01*
X1494790Y766390D02*
Y775390D01*
X912440Y717550D02*
X921440D01*
X916940Y713050D02*
Y722050D01*
X861640Y717550D02*
X870640D01*
X866140Y713050D02*
Y722050D01*
X1005150Y717550D02*
X1014150D01*
X1009650Y713050D02*
Y722050D01*
X954350Y717550D02*
X963350D01*
X958850Y713050D02*
Y722050D01*
X1097860Y717550D02*
X1106860D01*
X1102360Y713050D02*
Y722050D01*
X1047060Y717550D02*
X1056060D01*
X1051560Y713050D02*
Y722050D01*
X1186760Y717550D02*
X1195760D01*
X1191260Y713050D02*
Y722050D01*
X1135960Y717550D02*
X1144960D01*
X1140460Y713050D02*
Y722050D01*
X1278200Y717550D02*
X1287200D01*
X1282700Y713050D02*
Y722050D01*
X1227400Y717550D02*
X1236400D01*
X1231900Y713050D02*
Y722050D01*
X1077540Y1019810D02*
X1086540D01*
X1082040Y1015310D02*
Y1024310D01*
X1077540Y1045210D02*
X1086540D01*
X1082040Y1040710D02*
Y1049710D01*
X1077540Y1070610D02*
X1086540D01*
X1082040Y1066110D02*
Y1075110D01*
X1077540Y1096010D02*
X1086540D01*
X1082040Y1091510D02*
Y1100510D01*
X1369640Y717550D02*
X1378640D01*
X1374140Y713050D02*
Y722050D01*
X1318840Y717550D02*
X1327840D01*
X1323340Y713050D02*
Y722050D01*
X1254070Y845820D02*
X1263070D01*
X1258570Y841320D02*
Y850320D01*
X1434410Y925830D02*
X1443410D01*
X1438910Y921330D02*
Y930330D01*
X1459810Y925830D02*
X1468810D01*
X1464310Y921330D02*
Y930330D01*
X1485210Y925830D02*
X1494210D01*
X1489710Y921330D02*
Y930330D01*
X1510610Y925830D02*
X1519610D01*
X1515110Y921330D02*
Y930330D01*
X913710Y951230D02*
X922710D01*
X918210Y946730D02*
Y955730D01*
X888310Y951230D02*
X897310D01*
X892810Y946730D02*
Y955730D01*
X862910Y951230D02*
X871910D01*
X867410Y946730D02*
Y955730D01*
X837510Y951230D02*
X846510D01*
X842010Y946730D02*
Y955730D01*
X898470Y787400D02*
X907470D01*
X902970Y782900D02*
Y791900D01*
X898470Y812800D02*
X907470D01*
X902970Y808300D02*
Y817300D01*
X923870Y787400D02*
X932870D01*
X928370Y782900D02*
Y791900D01*
X923870Y812800D02*
X932870D01*
X928370Y808300D02*
Y817300D01*
X949270Y787400D02*
X958270D01*
X953770Y782900D02*
Y791900D01*
X949270Y812800D02*
X958270D01*
X953770Y808300D02*
Y817300D01*
X974670Y787400D02*
X983670D01*
X979170Y782900D02*
Y791900D01*
X974670Y812800D02*
X983670D01*
X979170Y808300D02*
Y817300D01*
X1000070Y787400D02*
X1009070D01*
X1004570Y782900D02*
Y791900D01*
X1000070Y812800D02*
X1009070D01*
X1004570Y808300D02*
Y817300D01*
X1025470Y787400D02*
X1034470D01*
X1029970Y782900D02*
Y791900D01*
X1025470Y812800D02*
X1034470D01*
X1029970Y808300D02*
Y817300D01*
X1050870Y787400D02*
X1059870D01*
X1055370Y782900D02*
Y791900D01*
X1050870Y812800D02*
X1059870D01*
X1055370Y808300D02*
Y817300D01*
X1076270Y787400D02*
X1085270D01*
X1080770Y782900D02*
Y791900D01*
X1076270Y812800D02*
X1085270D01*
X1080770Y808300D02*
Y817300D01*
X1101670Y787400D02*
X1110670D01*
X1106170Y782900D02*
Y791900D01*
X1101670Y812800D02*
X1110670D01*
X1106170Y808300D02*
Y817300D01*
X1127070Y787400D02*
X1136070D01*
X1131570Y782900D02*
Y791900D01*
X1127070Y812800D02*
X1136070D01*
X1131570Y808300D02*
Y817300D01*
X1152470Y787400D02*
X1161470D01*
X1156970Y782900D02*
Y791900D01*
X1152470Y812800D02*
X1161470D01*
X1156970Y808300D02*
Y817300D01*
X1177870Y787400D02*
X1186870D01*
X1182370Y782900D02*
Y791900D01*
X1177870Y812800D02*
X1186870D01*
X1182370Y808300D02*
Y817300D01*
X1203270Y787400D02*
X1212270D01*
X1207770Y782900D02*
Y791900D01*
X1203270Y812800D02*
X1212270D01*
X1207770Y808300D02*
Y817300D01*
X1228670Y787400D02*
X1237670D01*
X1233170Y782900D02*
Y791900D01*
X1228670Y812800D02*
X1237670D01*
X1233170Y808300D02*
Y817300D01*
X1254070Y787400D02*
X1263070D01*
X1258570Y782900D02*
Y791900D01*
X1254070Y812800D02*
X1263070D01*
X1258570Y808300D02*
Y817300D01*
X1279470Y787400D02*
X1288470D01*
X1283970Y782900D02*
Y791900D01*
X1279470Y812800D02*
X1288470D01*
X1283970Y808300D02*
Y817300D01*
X1304870Y787400D02*
X1313870D01*
X1309370Y782900D02*
Y791900D01*
X1304870Y812800D02*
X1313870D01*
X1309370Y808300D02*
Y817300D01*
X1330270Y787400D02*
X1339270D01*
X1334770Y782900D02*
Y791900D01*
X1330270Y812800D02*
X1339270D01*
X1334770Y808300D02*
Y817300D01*
X1355670Y787400D02*
X1364670D01*
X1360170Y782900D02*
Y791900D01*
X1355670Y812800D02*
X1364670D01*
X1360170Y808300D02*
Y817300D01*
X1381070Y787400D02*
X1390070D01*
X1385570Y782900D02*
Y791900D01*
X1381070Y812800D02*
X1390070D01*
X1385570Y808300D02*
Y817300D01*
X1177870Y875030D02*
X1186870D01*
X1182370Y870530D02*
Y879530D01*
X1152470Y875030D02*
X1161470D01*
X1156970Y870530D02*
Y879530D01*
X1127070Y875030D02*
X1136070D01*
X1131570Y870530D02*
Y879530D01*
X1203450Y877570D02*
X1211950D01*
X1207700Y873320D02*
Y881820D01*
X1330520Y877570D02*
X1339020D01*
X1334770Y873320D02*
Y881820D01*
X1203450Y918210D02*
X1211950D01*
X1207700Y913960D02*
Y922460D01*
X1330490Y918210D02*
X1338990D01*
X1334740Y913960D02*
Y922460D01*
X1490290Y872490D02*
X1499290D01*
X1494790Y867990D02*
Y876990D01*
X1490290Y745490D02*
X1499290D01*
X1494790Y740990D02*
Y749990D01*
X887040Y717550D02*
X896040D01*
X891540Y713050D02*
Y722050D01*
X979750Y717550D02*
X988750D01*
X984250Y713050D02*
Y722050D01*
X1072460Y717550D02*
X1081460D01*
X1076960Y713050D02*
Y722050D01*
X1161360Y717550D02*
X1170360D01*
X1165860Y713050D02*
Y722050D01*
X1252800Y717550D02*
X1261800D01*
X1257300Y713050D02*
Y722050D01*
X1344240Y717550D02*
X1353240D01*
X1348740Y713050D02*
Y722050D01*
X1228670Y845820D02*
X1237670D01*
X1233170Y841320D02*
Y850320D01*
X1015310Y951230D02*
X1024310D01*
X1019810Y946730D02*
Y955730D01*
X989910Y951230D02*
X998910D01*
X994410Y946730D02*
Y955730D01*
X964510Y951230D02*
X973510D01*
X969010Y946730D02*
Y955730D01*
X939110Y951230D02*
X948110D01*
X943610Y946730D02*
Y955730D01*
X880690Y1220470D02*
X889690D01*
X885190Y1215970D02*
Y1224970D01*
X880690Y1195070D02*
X889690D01*
X885190Y1190570D02*
Y1199570D01*
X880690Y1169670D02*
X889690D01*
X885190Y1165170D02*
Y1174170D01*
X923870Y1220470D02*
X932870D01*
X928370Y1215970D02*
Y1224970D01*
X923870Y1195070D02*
X932870D01*
X928370Y1190570D02*
Y1199570D01*
X923870Y1169670D02*
X932870D01*
X928370Y1165170D02*
Y1174170D01*
X967050Y1220470D02*
X976050D01*
X971550Y1215970D02*
Y1224970D01*
X967050Y1195070D02*
X976050D01*
X971550Y1190570D02*
Y1199570D01*
X967050Y1169670D02*
X976050D01*
X971550Y1165170D02*
Y1174170D01*
X1137230Y1096010D02*
X1146230D01*
X1141730Y1091510D02*
Y1100510D01*
X1137230Y1070610D02*
X1146230D01*
X1141730Y1066110D02*
Y1075110D01*
X1137230Y1045210D02*
X1146230D01*
X1141730Y1040710D02*
Y1049710D01*
X1137230Y1019810D02*
X1146230D01*
X1141730Y1015310D02*
Y1024310D01*
X1137230Y1220470D02*
X1146230D01*
X1141730Y1215970D02*
Y1224970D01*
X1137230Y1195070D02*
X1146230D01*
X1141730Y1190570D02*
Y1199570D01*
X1137230Y1169670D02*
X1146230D01*
X1141730Y1165170D02*
Y1174170D01*
X1137230Y1144270D02*
X1146230D01*
X1141730Y1139770D02*
Y1148770D01*
X1413764Y833120D02*
X1420876D01*
X1417320Y829564D02*
Y836676D01*
X958469Y892175D02*
X965581D01*
X962025Y888619D02*
Y895731D01*
X1387094Y863600D02*
X1394206D01*
X1390650Y860044D02*
Y867156D01*
X1368044Y880110D02*
X1375156D01*
X1371600Y876554D02*
Y883666D01*
X1004824Y842010D02*
X1011936D01*
X1008380Y838454D02*
Y845566D01*
X1230884Y749300D02*
X1237996D01*
X1234440Y745744D02*
Y752856D01*
X950214Y855980D02*
X957326D01*
X953770Y852424D02*
Y859536D01*
X923544Y855980D02*
X930656D01*
X927100Y852424D02*
Y859536D01*
X820674Y726440D02*
X827786D01*
X824230Y722884D02*
Y729996D01*
X993394Y900430D02*
X1000506D01*
X996950Y896874D02*
Y903986D01*
X1271524Y750570D02*
X1278636D01*
X1275080Y747014D02*
Y754126D01*
X1293749Y760095D02*
X1300861D01*
X1297305Y756539D02*
Y763651D01*
X1395984Y847090D02*
X1403096D01*
X1399540Y843534D02*
Y850646D01*
X838454Y716280D02*
X845566D01*
X842010Y712724D02*
Y719836D01*
X1237234Y767080D02*
X1244346D01*
X1240790Y763524D02*
Y770636D01*
M02*
