G04 Layer_Color=8388736*
%FSLAX44Y44*%
%MOMM*%
G71*
G01*
G75*
%ADD13C,1.2700*%
%ADD26C,3.2032*%
%ADD27C,1.7032*%
%ADD28R,1.7032X1.7032*%
%ADD29R,1.7032X1.7032*%
%ADD30C,1.6032*%
%ADD31C,1.4732*%
D13*
X786130Y1325880D02*
X1550670D01*
Y648970D02*
Y1325880D01*
X786130Y648970D02*
X1550670D01*
X786130D02*
Y1325880D01*
D26*
X1007110Y1082000D02*
D03*
X1434250Y800100D02*
D03*
X854350D02*
D03*
X1434250Y1290100D02*
D03*
X854710Y1082000D02*
D03*
X854350Y1290100D02*
D03*
D27*
X1046480Y900430D02*
D03*
X1079500Y850900D02*
D03*
Y876300D02*
D03*
Y901700D02*
D03*
X1446530Y1220470D02*
D03*
Y1195070D02*
D03*
Y1169670D02*
D03*
Y1096010D02*
D03*
Y1070610D02*
D03*
Y1045210D02*
D03*
X1494790Y847090D02*
D03*
Y821690D02*
D03*
Y796290D02*
D03*
Y770890D02*
D03*
X916940Y717550D02*
D03*
X1009650D02*
D03*
X1102360D02*
D03*
X1191260D02*
D03*
X1282700D02*
D03*
X1082040Y1045210D02*
D03*
Y1070610D02*
D03*
Y1096010D02*
D03*
X1374140Y717550D02*
D03*
X1258570Y845820D02*
D03*
X1464310Y925830D02*
D03*
X1489710D02*
D03*
X1515110D02*
D03*
X918210Y951230D02*
D03*
X892810D02*
D03*
X867410D02*
D03*
X902970Y812800D02*
D03*
X928370Y787400D02*
D03*
Y812800D02*
D03*
X953770Y787400D02*
D03*
Y812800D02*
D03*
X979170Y787400D02*
D03*
Y812800D02*
D03*
X1004570Y787400D02*
D03*
Y812800D02*
D03*
X1029970Y787400D02*
D03*
Y812800D02*
D03*
X1055370Y787400D02*
D03*
Y812800D02*
D03*
X1080770Y787400D02*
D03*
Y812800D02*
D03*
X1106170Y787400D02*
D03*
Y812800D02*
D03*
X1131570Y787400D02*
D03*
Y812800D02*
D03*
X1156970Y787400D02*
D03*
Y812800D02*
D03*
X1182370Y787400D02*
D03*
Y812800D02*
D03*
X1207770Y787400D02*
D03*
Y812800D02*
D03*
X1233170Y787400D02*
D03*
Y812800D02*
D03*
X1258570Y787400D02*
D03*
Y812800D02*
D03*
X1283970Y787400D02*
D03*
Y812800D02*
D03*
X1309370Y787400D02*
D03*
Y812800D02*
D03*
X1334770Y787400D02*
D03*
Y812800D02*
D03*
X1360170Y787400D02*
D03*
Y812800D02*
D03*
X1385570Y787400D02*
D03*
Y812800D02*
D03*
X1182370Y875030D02*
D03*
X1156970D02*
D03*
X1494790Y872490D02*
D03*
X891540Y717550D02*
D03*
X984250D02*
D03*
X1076960D02*
D03*
X1165860D02*
D03*
X1257300D02*
D03*
X1348740D02*
D03*
X1019810Y951230D02*
D03*
X994410D02*
D03*
X969010D02*
D03*
X943610D02*
D03*
X885190Y1220470D02*
D03*
Y1195070D02*
D03*
X928370Y1220470D02*
D03*
Y1195070D02*
D03*
X971550Y1220470D02*
D03*
Y1195070D02*
D03*
X1141730Y1096010D02*
D03*
Y1070610D02*
D03*
Y1045210D02*
D03*
Y1220470D02*
D03*
Y1195070D02*
D03*
Y1169670D02*
D03*
D28*
X1046480Y875030D02*
D03*
X1079500Y927100D02*
D03*
X1446530Y1144270D02*
D03*
Y1019810D02*
D03*
X1082040D02*
D03*
X1494790Y745490D02*
D03*
X885190Y1169670D02*
D03*
X928370D02*
D03*
X971550D02*
D03*
X1141730Y1019810D02*
D03*
Y1144270D02*
D03*
D29*
X866140Y717550D02*
D03*
X958850D02*
D03*
X1051560D02*
D03*
X1140460D02*
D03*
X1231900D02*
D03*
X1323340D02*
D03*
X1438910Y925830D02*
D03*
X842010Y951230D02*
D03*
X902970Y787400D02*
D03*
X1131570Y875030D02*
D03*
X1233170Y845820D02*
D03*
D30*
X1207700Y877570D02*
D03*
X1334770D02*
D03*
X1207700Y918210D02*
D03*
X1334740D02*
D03*
D31*
X1417320Y833120D02*
D03*
X962025Y892175D02*
D03*
X1390650Y863600D02*
D03*
X1371600Y880110D02*
D03*
X1008380Y842010D02*
D03*
X1234440Y749300D02*
D03*
X953770Y855980D02*
D03*
X927100D02*
D03*
X824230Y726440D02*
D03*
X996950Y900430D02*
D03*
X1275080Y750570D02*
D03*
X1297305Y760095D02*
D03*
X1399540Y847090D02*
D03*
X842010Y716280D02*
D03*
X1240790Y767080D02*
D03*
M02*
