G04 Layer_Color=2752767*
%FSLAX44Y44*%
%MOMM*%
G71*
G01*
G75*
%ADD13C,1.2700*%
%ADD32C,0.1270*%
%ADD34C,0.1693*%
D13*
X786130Y1325880D02*
X1550670D01*
Y648970D02*
Y1325880D01*
X786130Y648970D02*
X1550670D01*
X786130D02*
Y1325880D01*
D32*
X1002030Y1076920D02*
Y1087080D01*
X1012190D01*
Y1076920D01*
X1002030D01*
X849630D02*
Y1087080D01*
X859790D01*
Y1076920D01*
X849630D01*
X1046480Y895350D02*
X1041400Y905510D01*
X1051560D01*
X1046480Y895350D01*
Y869950D02*
X1041400Y880110D01*
X1051560D01*
X1046480Y869950D01*
X1079500Y845820D02*
X1074420Y855980D01*
X1084580D01*
X1079500Y845820D01*
Y871220D02*
X1074420Y881380D01*
X1084580D01*
X1079500Y871220D01*
Y896620D02*
X1074420Y906780D01*
X1084580D01*
X1079500Y896620D01*
Y922020D02*
X1074420Y932180D01*
X1084580D01*
X1079500Y922020D01*
X1446530Y1215390D02*
X1441450Y1225550D01*
X1451610D01*
X1446530Y1215390D01*
Y1189990D02*
X1441450Y1200150D01*
X1451610D01*
X1446530Y1189990D01*
Y1164590D02*
X1441450Y1174750D01*
X1451610D01*
X1446530Y1164590D01*
Y1139190D02*
X1441450Y1149350D01*
X1451610D01*
X1446530Y1139190D01*
Y1090930D02*
X1441450Y1101090D01*
X1451610D01*
X1446530Y1090930D01*
Y1065530D02*
X1441450Y1075690D01*
X1451610D01*
X1446530Y1065530D01*
Y1040130D02*
X1441450Y1050290D01*
X1451610D01*
X1446530Y1040130D01*
Y1014730D02*
X1441450Y1024890D01*
X1451610D01*
X1446530Y1014730D01*
X1494790Y842010D02*
X1489710Y852170D01*
X1499870D01*
X1494790Y842010D01*
Y816610D02*
X1489710Y826770D01*
X1499870D01*
X1494790Y816610D01*
Y791210D02*
X1489710Y801370D01*
X1499870D01*
X1494790Y791210D01*
Y765810D02*
X1489710Y775970D01*
X1499870D01*
X1494790Y765810D01*
X916940Y712470D02*
X911860Y722630D01*
X922020D01*
X916940Y712470D01*
X866140D02*
X861060Y722630D01*
X871220D01*
X866140Y712470D01*
X1009650D02*
X1004570Y722630D01*
X1014730D01*
X1009650Y712470D01*
X958850D02*
X953770Y722630D01*
X963930D01*
X958850Y712470D01*
X1102360D02*
X1097280Y722630D01*
X1107440D01*
X1102360Y712470D01*
X1051560D02*
X1046480Y722630D01*
X1056640D01*
X1051560Y712470D01*
X1191260D02*
X1186180Y722630D01*
X1196340D01*
X1191260Y712470D01*
X1140460D02*
X1135380Y722630D01*
X1145540D01*
X1140460Y712470D01*
X1282700D02*
X1277620Y722630D01*
X1287780D01*
X1282700Y712470D01*
X1231900D02*
X1226820Y722630D01*
X1236980D01*
X1231900Y712470D01*
X1082040Y1014730D02*
X1076960Y1024890D01*
X1087120D01*
X1082040Y1014730D01*
Y1040130D02*
X1076960Y1050290D01*
X1087120D01*
X1082040Y1040130D01*
Y1065530D02*
X1076960Y1075690D01*
X1087120D01*
X1082040Y1065530D01*
Y1090930D02*
X1076960Y1101090D01*
X1087120D01*
X1082040Y1090930D01*
X1374140Y712470D02*
X1369060Y722630D01*
X1379220D01*
X1374140Y712470D01*
X1323340D02*
X1318260Y722630D01*
X1328420D01*
X1323340Y712470D01*
X1258570Y840740D02*
X1253490Y850900D01*
X1263650D01*
X1258570Y840740D01*
X1438910Y920750D02*
X1433830Y930910D01*
X1443990D01*
X1438910Y920750D01*
X1464310D02*
X1459230Y930910D01*
X1469390D01*
X1464310Y920750D01*
X1489710D02*
X1484630Y930910D01*
X1494790D01*
X1489710Y920750D01*
X1515110D02*
X1510030Y930910D01*
X1520190D01*
X1515110Y920750D01*
X918210Y946150D02*
X913130Y956310D01*
X923290D01*
X918210Y946150D01*
X892810D02*
X887730Y956310D01*
X897890D01*
X892810Y946150D01*
X867410D02*
X862330Y956310D01*
X872490D01*
X867410Y946150D01*
X842010D02*
X836930Y956310D01*
X847090D01*
X842010Y946150D01*
X902970Y782320D02*
X897890Y792480D01*
X908050D01*
X902970Y782320D01*
Y807720D02*
X897890Y817880D01*
X908050D01*
X902970Y807720D01*
X928370Y782320D02*
X923290Y792480D01*
X933450D01*
X928370Y782320D01*
Y807720D02*
X923290Y817880D01*
X933450D01*
X928370Y807720D01*
X953770Y782320D02*
X948690Y792480D01*
X958850D01*
X953770Y782320D01*
Y807720D02*
X948690Y817880D01*
X958850D01*
X953770Y807720D01*
X979170Y782320D02*
X974090Y792480D01*
X984250D01*
X979170Y782320D01*
Y807720D02*
X974090Y817880D01*
X984250D01*
X979170Y807720D01*
X1004570Y782320D02*
X999490Y792480D01*
X1009650D01*
X1004570Y782320D01*
Y807720D02*
X999490Y817880D01*
X1009650D01*
X1004570Y807720D01*
X1029970Y782320D02*
X1024890Y792480D01*
X1035050D01*
X1029970Y782320D01*
Y807720D02*
X1024890Y817880D01*
X1035050D01*
X1029970Y807720D01*
X1055370Y782320D02*
X1050290Y792480D01*
X1060450D01*
X1055370Y782320D01*
Y807720D02*
X1050290Y817880D01*
X1060450D01*
X1055370Y807720D01*
X1080770Y782320D02*
X1075690Y792480D01*
X1085850D01*
X1080770Y782320D01*
Y807720D02*
X1075690Y817880D01*
X1085850D01*
X1080770Y807720D01*
X1106170Y782320D02*
X1101090Y792480D01*
X1111250D01*
X1106170Y782320D01*
Y807720D02*
X1101090Y817880D01*
X1111250D01*
X1106170Y807720D01*
X1131570Y782320D02*
X1126490Y792480D01*
X1136650D01*
X1131570Y782320D01*
Y807720D02*
X1126490Y817880D01*
X1136650D01*
X1131570Y807720D01*
X1156970Y782320D02*
X1151890Y792480D01*
X1162050D01*
X1156970Y782320D01*
Y807720D02*
X1151890Y817880D01*
X1162050D01*
X1156970Y807720D01*
X1182370Y782320D02*
X1177290Y792480D01*
X1187450D01*
X1182370Y782320D01*
Y807720D02*
X1177290Y817880D01*
X1187450D01*
X1182370Y807720D01*
X1207770Y782320D02*
X1202690Y792480D01*
X1212850D01*
X1207770Y782320D01*
Y807720D02*
X1202690Y817880D01*
X1212850D01*
X1207770Y807720D01*
X1233170Y782320D02*
X1228090Y792480D01*
X1238250D01*
X1233170Y782320D01*
Y807720D02*
X1228090Y817880D01*
X1238250D01*
X1233170Y807720D01*
X1258570Y782320D02*
X1253490Y792480D01*
X1263650D01*
X1258570Y782320D01*
Y807720D02*
X1253490Y817880D01*
X1263650D01*
X1258570Y807720D01*
X1283970Y782320D02*
X1278890Y792480D01*
X1289050D01*
X1283970Y782320D01*
Y807720D02*
X1278890Y817880D01*
X1289050D01*
X1283970Y807720D01*
X1309370Y782320D02*
X1304290Y792480D01*
X1314450D01*
X1309370Y782320D01*
Y807720D02*
X1304290Y817880D01*
X1314450D01*
X1309370Y807720D01*
X1334770Y782320D02*
X1329690Y792480D01*
X1339850D01*
X1334770Y782320D01*
Y807720D02*
X1329690Y817880D01*
X1339850D01*
X1334770Y807720D01*
X1360170Y782320D02*
X1355090Y792480D01*
X1365250D01*
X1360170Y782320D01*
Y807720D02*
X1355090Y817880D01*
X1365250D01*
X1360170Y807720D01*
X1385570Y782320D02*
X1380490Y792480D01*
X1390650D01*
X1385570Y782320D01*
Y807720D02*
X1380490Y817880D01*
X1390650D01*
X1385570Y807720D01*
X1182370Y869950D02*
X1177290Y880110D01*
X1187450D01*
X1182370Y869950D01*
X1156970D02*
X1151890Y880110D01*
X1162050D01*
X1156970Y869950D01*
X1131570D02*
X1126490Y880110D01*
X1136650D01*
X1131570Y869950D01*
X1207700Y872490D02*
X1210240Y875030D01*
X1212780D01*
X1210240Y877570D01*
X1212780Y880110D01*
X1210240D01*
X1207700Y882650D01*
X1205160Y880110D01*
X1202620D01*
X1205160Y877570D01*
X1202620Y875030D01*
X1205160D01*
X1207700Y872490D01*
X1334770D02*
X1337310Y875030D01*
X1339850D01*
X1337310Y877570D01*
X1339850Y880110D01*
X1337310D01*
X1334770Y882650D01*
X1332230Y880110D01*
X1329690D01*
X1332230Y877570D01*
X1329690Y875030D01*
X1332230D01*
X1334770Y872490D01*
X1207700Y913130D02*
X1210240Y915670D01*
X1212780D01*
X1210240Y918210D01*
X1212780Y920750D01*
X1210240D01*
X1207700Y923290D01*
X1205160Y920750D01*
X1202620D01*
X1205160Y918210D01*
X1202620Y915670D01*
X1205160D01*
X1207700Y913130D01*
X1334740D02*
X1337280Y915670D01*
X1339820D01*
X1337280Y918210D01*
X1339820Y920750D01*
X1337280D01*
X1334740Y923290D01*
X1332200Y920750D01*
X1329660D01*
X1332200Y918210D01*
X1329660Y915670D01*
X1332200D01*
X1334740Y913130D01*
X1494790Y867410D02*
X1489710Y877570D01*
X1499870D01*
X1494790Y867410D01*
Y740410D02*
X1489710Y750570D01*
X1499870D01*
X1494790Y740410D01*
X891540Y712470D02*
X886460Y722630D01*
X896620D01*
X891540Y712470D01*
X984250D02*
X979170Y722630D01*
X989330D01*
X984250Y712470D01*
X1076960D02*
X1071880Y722630D01*
X1082040D01*
X1076960Y712470D01*
X1165860D02*
X1160780Y722630D01*
X1170940D01*
X1165860Y712470D01*
X1257300D02*
X1252220Y722630D01*
X1262380D01*
X1257300Y712470D01*
X1348740D02*
X1343660Y722630D01*
X1353820D01*
X1348740Y712470D01*
X1233170Y840740D02*
X1228090Y850900D01*
X1238250D01*
X1233170Y840740D01*
X1019810Y946150D02*
X1014730Y956310D01*
X1024890D01*
X1019810Y946150D01*
X994410D02*
X989330Y956310D01*
X999490D01*
X994410Y946150D01*
X969010D02*
X963930Y956310D01*
X974090D01*
X969010Y946150D01*
X943610D02*
X938530Y956310D01*
X948690D01*
X943610Y946150D01*
X885190Y1215390D02*
X880110Y1225550D01*
X890270D01*
X885190Y1215390D01*
Y1189990D02*
X880110Y1200150D01*
X890270D01*
X885190Y1189990D01*
Y1164590D02*
X880110Y1174750D01*
X890270D01*
X885190Y1164590D01*
X928370Y1215390D02*
X923290Y1225550D01*
X933450D01*
X928370Y1215390D01*
Y1189990D02*
X923290Y1200150D01*
X933450D01*
X928370Y1189990D01*
Y1164590D02*
X923290Y1174750D01*
X933450D01*
X928370Y1164590D01*
X971550Y1215390D02*
X966470Y1225550D01*
X976630D01*
X971550Y1215390D01*
Y1189990D02*
X966470Y1200150D01*
X976630D01*
X971550Y1189990D01*
Y1164590D02*
X966470Y1174750D01*
X976630D01*
X971550Y1164590D01*
X1141730Y1090930D02*
X1136650Y1101090D01*
X1146810D01*
X1141730Y1090930D01*
Y1065530D02*
X1136650Y1075690D01*
X1146810D01*
X1141730Y1065530D01*
Y1040130D02*
X1136650Y1050290D01*
X1146810D01*
X1141730Y1040130D01*
Y1014730D02*
X1136650Y1024890D01*
X1146810D01*
X1141730Y1014730D01*
Y1215390D02*
X1136650Y1225550D01*
X1146810D01*
X1141730Y1215390D01*
Y1189990D02*
X1136650Y1200150D01*
X1146810D01*
X1141730Y1189990D01*
Y1164590D02*
X1136650Y1174750D01*
X1146810D01*
X1141730Y1164590D01*
Y1139190D02*
X1136650Y1149350D01*
X1146810D01*
X1141730Y1139190D01*
X1412240Y828040D02*
X1414780Y833120D01*
X1412240Y838200D01*
X1417320Y835660D01*
X1422400Y838200D01*
X1419860Y833120D01*
X1422400Y828040D01*
X1417320Y830580D01*
X1412240Y828040D01*
X956945Y887095D02*
X959485Y892175D01*
X956945Y897255D01*
X962025Y894715D01*
X967105Y897255D01*
X964565Y892175D01*
X967105Y887095D01*
X962025Y889635D01*
X956945Y887095D01*
X1385570Y858520D02*
X1388110Y863600D01*
X1385570Y868680D01*
X1390650Y866140D01*
X1395730Y868680D01*
X1393190Y863600D01*
X1395730Y858520D01*
X1390650Y861060D01*
X1385570Y858520D01*
X1366520Y875030D02*
X1369060Y880110D01*
X1366520Y885190D01*
X1371600Y882650D01*
X1376680Y885190D01*
X1374140Y880110D01*
X1376680Y875030D01*
X1371600Y877570D01*
X1366520Y875030D01*
X1003300Y836930D02*
X1005840Y842010D01*
X1003300Y847090D01*
X1008380Y844550D01*
X1013460Y847090D01*
X1010920Y842010D01*
X1013460Y836930D01*
X1008380Y839470D01*
X1003300Y836930D01*
X1229360Y744220D02*
X1231900Y749300D01*
X1229360Y754380D01*
X1234440Y751840D01*
X1239520Y754380D01*
X1236980Y749300D01*
X1239520Y744220D01*
X1234440Y746760D01*
X1229360Y744220D01*
X948690Y850900D02*
X951230Y855980D01*
X948690Y861060D01*
X953770Y858520D01*
X958850Y861060D01*
X956310Y855980D01*
X958850Y850900D01*
X953770Y853440D01*
X948690Y850900D01*
X922020D02*
X924560Y855980D01*
X922020Y861060D01*
X927100Y858520D01*
X932180Y861060D01*
X929640Y855980D01*
X932180Y850900D01*
X927100Y853440D01*
X922020Y850900D01*
X819150Y721360D02*
X821690Y726440D01*
X819150Y731520D01*
X824230Y728980D01*
X829310Y731520D01*
X826770Y726440D01*
X829310Y721360D01*
X824230Y723900D01*
X819150Y721360D01*
X991870Y895350D02*
X994410Y900430D01*
X991870Y905510D01*
X996950Y902970D01*
X1002030Y905510D01*
X999490Y900430D01*
X1002030Y895350D01*
X996950Y897890D01*
X991870Y895350D01*
X1270000Y745490D02*
X1272540Y750570D01*
X1270000Y755650D01*
X1275080Y753110D01*
X1280160Y755650D01*
X1277620Y750570D01*
X1280160Y745490D01*
X1275080Y748030D01*
X1270000Y745490D01*
X1292225Y755015D02*
X1294765Y760095D01*
X1292225Y765175D01*
X1297305Y762635D01*
X1302385Y765175D01*
X1299845Y760095D01*
X1302385Y755015D01*
X1297305Y757555D01*
X1292225Y755015D01*
X1394460Y842010D02*
X1397000Y847090D01*
X1394460Y852170D01*
X1399540Y849630D01*
X1404620Y852170D01*
X1402080Y847090D01*
X1404620Y842010D01*
X1399540Y844550D01*
X1394460Y842010D01*
X836930Y711200D02*
X839470Y716280D01*
X836930Y721360D01*
X842010Y718820D01*
X847090Y721360D01*
X844550Y716280D01*
X847090Y711200D01*
X842010Y713740D01*
X836930Y711200D01*
X1235710Y762000D02*
X1238250Y767080D01*
X1235710Y772160D01*
X1240790Y769620D01*
X1245870Y772160D01*
X1243330Y767080D01*
X1245870Y762000D01*
X1240790Y764540D01*
X1235710Y762000D01*
D34*
X1439330Y800100D02*
G03*
X1439330Y800100I-5080J0D01*
G01*
X859430D02*
G03*
X859430Y800100I-5080J0D01*
G01*
X1439330Y1290100D02*
G03*
X1439330Y1290100I-5080J0D01*
G01*
X859430D02*
G03*
X859430Y1290100I-5080J0D01*
G01*
M02*
